<?xml version="1.0" standalone="no"?>
<!DOCTYPE svg PUBLIC "-//W3C//DTD SVG 1.1//EN" "http://www.w3.org/Graphics/SVG/1.1/DTD/svg11.dtd" >
<svg xmlns="http://www.w3.org/2000/svg" xmlns:xlink="http://www.w3.org/1999/xlink" version="1.1">
<metadata>
Created by FontForge 20190801 at Sun Sep  9 17:21:32 2018
 By www-data
(c) 1999-2018 Typodermic Fonts Inc.
</metadata>
<defs>
<font id="coolveticarg" horiz-adv-x="503" >
  <font-face 
    font-family="coolveticarg"
    font-weight="400"
    font-stretch="normal"
    units-per-em="1000"
    panose-1="2 11 6 3 3 6 2 2 0 4"
    ascent="767"
    descent="-233"
    x-height="492"
    cap-height="664"
    bbox="-444 -233 1103 921"
    underline-thickness="20"
    underline-position="-143"
    unicode-range="U+0017-FB02"
  />
<missing-glyph horiz-adv-x="452" 
d="M322 0h-193q-97 0 -97 84v488q0 85 97 85h193q98 0 98 -85v-488q0 -84 -98 -84zM368 84v488q0 39 -46 39h-193q-46 0 -46 -39v-488q0 -39 46 -39h193q46 0 46 39z" />
    <glyph glyph-name=".notdef" horiz-adv-x="452" 
d="M322 0h-193q-97 0 -97 84v488q0 85 97 85h193q98 0 98 -85v-488q0 -84 -98 -84zM368 84v488q0 39 -46 39h-193q-46 0 -46 -39v-488q0 -39 46 -39h193q46 0 46 39z" />
    <glyph glyph-name=".null" horiz-adv-x="0" 
 />
    <glyph glyph-name="nonmarkingreturn" horiz-adv-x="333" 
 />
    <glyph glyph-name="uni0017" horiz-adv-x="241" 
 />
    <glyph glyph-name="space" unicode=" " horiz-adv-x="241" 
 />
    <glyph glyph-name="exclam" unicode="!" horiz-adv-x="245" 
d="M187 0h-135v131h135v-131zM155 184h-69q-39 238 -39 409q0 51 5 71h138q4 -44 4 -74q0 -168 -39 -406z" />
    <glyph glyph-name="quotedbl" unicode="&#x22;" horiz-adv-x="289" 
d="M257 414h-89v250h89v-250zM112 414h-89v250h89v-250z" />
    <glyph glyph-name="numbersign" unicode="#" horiz-adv-x="501" 
d="M280 274l15 116h-88l-16 -116h89zM329 0h-87l27 189h-88l-24 -189h-85l24 189h-87l9 85h89l15 116h-87l10 85h88l26 189h83l-25 -189h89l24 189h86l-25 -189h88l-12 -85h-87l-15 -116h88l-10 -85h-89z" />
    <glyph glyph-name="dollar" unicode="$" horiz-adv-x="484" 
d="M265 260v-177q37 2 60 26.5t23 57.5q0 34 -22 58.5t-61 34.5zM224 400v159q-36 -2 -57.5 -23.5t-21.5 -51.5q0 -31 21 -55t58 -29zM265 -55h-41v39q-112 10 -161 59.5t-49 155.5h120q8 -63 27 -86.5t63 -29.5v193q-104 27 -151 70t-47 121q0 79 56.5 134.5t141.5 56.5v44
h41v-44q185 -6 194 -194h-118q-4 52 -22 72.5t-54 22.5v-172q67 -22 107.5 -42.5t62 -45.5t28.5 -50.5t7 -65.5q0 -87 -56 -140.5t-149 -58.5v-39z" />
    <glyph glyph-name="percent" unicode="%" horiz-adv-x="669" 
d="M137 -20h-67l461 704h68zM539 31q24 0 35.5 29t11.5 95q0 68 -11.5 97t-35.5 29q-47 0 -47 -125t47 -125zM537 -22q-113 0 -113 179q0 176 113 176q115 0 115 -175q0 -180 -115 -180zM134 384q24 0 35.5 29t11.5 95q0 68 -11.5 97t-35.5 29q-47 0 -47 -125t47 -125z
M132 331q-113 0 -113 179q0 176 113 176q115 0 115 -175q0 -180 -115 -180z" />
    <glyph glyph-name="ampersand" unicode="&#x26;" horiz-adv-x="505" 
d="M355 202v179h125v-179q0 -101 -62 -163t-162 -62q-110 0 -174 58.5t-64 149.5q0 48 23 93.5t57 60.5q-77 40 -77 139q0 83 69.5 134.5t180.5 51.5v-109q-67 0 -94.5 -21.5t-27.5 -70.5q0 -42 28.5 -62t93.5 -20v-94q-60 0 -93 -25.5t-33 -74.5q0 -44 28 -73.5t82 -29.5
q100 0 100 118z" />
    <glyph glyph-name="quotesingle" unicode="'" horiz-adv-x="145" 
d="M112 414h-89v250h89v-250z" />
    <glyph glyph-name="parenleft" unicode="(" horiz-adv-x="326" 
d="M322 -143h-95q-77 93 -118.5 208.5t-41.5 235.5q0 246 160 427h95q-122 -203 -122 -429q0 -228 122 -442z" />
    <glyph glyph-name="parenright" unicode=")" horiz-adv-x="326" 
d="M103 -143h-95q122 214 122 442q0 226 -122 429h95q160 -181 160 -427q0 -120 -41.5 -235.5t-118.5 -208.5z" />
    <glyph glyph-name="asterisk" unicode="*" horiz-adv-x="539" 
d="M453 260l-88 -63l-98 129l-95 -129l-90 63l96 136l-146 46l33 101l143 -46v167h118v-167l143 46l36 -101l-148 -46z" />
    <glyph glyph-name="plus" unicode="+" horiz-adv-x="523" 
d="M305 107h-94v189h-188v94h188v188h94v-188h189v-94h-189v-189z" />
    <glyph glyph-name="comma" unicode="," horiz-adv-x="187" 
d="M23 -156v50q76 19 77 106h-77v135h138v-102q0 -86 -30.5 -129.5t-107.5 -59.5z" />
    <glyph glyph-name="hyphen" unicode="-" horiz-adv-x="280" 
d="M261 257h-248v101h248v-101z" />
    <glyph glyph-name="hyphen" unicode="&#xad;" horiz-adv-x="280" 
d="M261 257h-248v101h248v-101z" />
    <glyph glyph-name="period" unicode="." horiz-adv-x="187" 
d="M162 0h-139v135h139v-135z" />
    <glyph glyph-name="slash" unicode="/" horiz-adv-x="300" 
d="M102 0h-107l190 664h109z" />
    <glyph glyph-name="zero" unicode="0" horiz-adv-x="490" 
d="M247 82q48 0 71 58t23 191q0 135 -23 193t-71 58q-49 0 -72 -57.5t-23 -191.5q0 -135 23 -193t72 -58zM243 -23q-226 0 -226 358q0 351 226 351q230 0 230 -349q0 -181 -60 -270.5t-170 -89.5z" />
    <glyph glyph-name="one" unicode="1" horiz-adv-x="296" 
d="M270 0h-130v459h-136v90q83 0 118.5 27.5t41.5 87.5h106v-664z" />
    <glyph glyph-name="two" unicode="2" horiz-adv-x="465" 
d="M456 0h-452q1 100 40.5 172t159.5 158q72 52 97.5 84t25.5 74q0 87 -92 87q-47 0 -72 -27t-25 -91h-125q0 107 57 168t159 61q104 0 164.5 -49.5t60.5 -144.5q0 -74 -41 -128t-151 -132q-39 -28 -64.5 -61t-27.5 -58h286v-113z" />
    <glyph glyph-name="three" unicode="3" horiz-adv-x="479" 
d="M184 298v91q77 0 106 24.5t29 66.5q0 102 -86 102q-39 0 -63.5 -29t-24.5 -80h-121q0 95 59.5 154t154.5 59q87 0 146.5 -51t59.5 -130q0 -47 -20 -87t-58 -62q99 -41 99 -164q0 -99 -64.5 -157t-169.5 -58q-103 0 -160.5 58t-57.5 160h125q0 -111 99 -111
q42 0 68.5 29.5t26.5 80.5q0 58 -33 81t-115 23z" />
    <glyph glyph-name="four" unicode="4" horiz-adv-x="476" 
d="M265 246v234l-136 -234h136zM392 0h-130v145h-258v113l242 406h146v-418h75v-101h-75v-145z" />
    <glyph glyph-name="five" unicode="5" horiz-adv-x="490" 
d="M162 261h-134l14 403h409v-110h-293l-6 -178q44 47 132 47q84 0 138 -56t54 -153q0 -107 -63.5 -172t-165.5 -65q-91 0 -154 54.5t-67 139.5h130q4 -41 28 -64.5t63 -23.5q99 0 99 125q0 110 -91 110q-65 0 -93 -57z" />
    <glyph glyph-name="six" unicode="6" horiz-adv-x="487" 
d="M246 82q44 0 68.5 35.5t24.5 90.5q0 57 -26 90.5t-69 33.5q-44 0 -71.5 -34t-27.5 -88q0 -58 27 -93t74 -35zM455 520h-129q-5 62 -70 62q-53 0 -80 -51t-33 -159q53 62 136 62q81 0 134.5 -59.5t53.5 -160.5q0 -103 -61 -170t-158 -67q-233 0 -233 333q0 197 60.5 286.5
t186.5 89.5q81 0 132 -43t61 -123z" />
    <glyph glyph-name="seven" unicode="7" horiz-adv-x="478" 
d="M229 0h-134q11 146 70.5 288.5t162.5 260.5h-324v115h465v-100q-110 -122 -171 -267.5t-69 -296.5z" />
    <glyph glyph-name="eight" unicode="8" horiz-adv-x="495" 
d="M245 84q96 0 96 110q0 48 -24 76t-72 28q-94 0 -94 -104q0 -110 94 -110zM245 401q39 0 60 24.5t21 64.5q0 42 -20.5 66t-60.5 24t-60.5 -24t-20.5 -66q0 -40 21 -64.5t60 -24.5zM376 363q45 -20 72 -66.5t27 -102.5q0 -98 -58.5 -157.5t-170.5 -59.5q-110 0 -170.5 59.5
t-60.5 151.5q0 119 104 169q-39 20 -57 59.5t-18 86.5q0 79 57.5 131t144.5 52q95 0 147 -50t52 -129q0 -109 -69 -144z" />
    <glyph glyph-name="nine" unicode="9" horiz-adv-x="487" 
d="M238 331q44 0 71.5 34t27.5 88q0 58 -27 93t-74 35q-44 0 -68.5 -35.5t-24.5 -90.5q0 -57 26 -90.5t69 -33.5zM27 143h129q5 -62 70 -62q53 0 80 51t33 159q-53 -62 -136 -62q-81 0 -134.5 59.5t-53.5 160.5q0 103 61 170t158 67q233 0 233 -333q0 -197 -60.5 -286.5
t-186.5 -89.5q-81 0 -132 43t-61 123z" />
    <glyph glyph-name="colon" unicode=":" horiz-adv-x="171" 
d="M152 0h-138v135h138v-135zM152 339h-138v134h138v-134z" />
    <glyph glyph-name="semicolon" unicode=";" horiz-adv-x="175" 
d="M10 -156v50q76 19 77 106h-77v135h138v-102q0 -86 -30.5 -129.5t-107.5 -59.5zM148 339h-138v134h138v-134z" />
    <glyph glyph-name="less" unicode="&#x3c;" horiz-adv-x="523" 
d="M494 96l-471 200v94l471 200v-104l-365 -143l365 -143v-104z" />
    <glyph glyph-name="equal" unicode="=" horiz-adv-x="523" 
d="M494 396h-471v94h471v-94zM494 196h-471v94h471v-94z" />
    <glyph glyph-name="greater" unicode="&#x3e;" horiz-adv-x="523" 
d="M494 296l-471 -200v104l365 143l-365 143v104l471 -200v-94z" />
    <glyph glyph-name="question" unicode="?" horiz-adv-x="491" 
d="M314 0h-135v131h135v-131zM305 193h-122q0 60 9.5 96t34.5 65q13 15 43.5 37.5t47 44.5t16.5 56q0 46 -25.5 67t-65.5 21q-50 0 -71 -27t-27 -82h-129q0 98 61.5 156.5t162.5 58.5q233 0 233 -187q0 -60 -23 -95t-78 -76q-42 -31 -54.5 -59t-12.5 -76z" />
    <glyph glyph-name="at" unicode="@" horiz-adv-x="708" 
d="M336 154q45 0 72 43t27 110q0 85 -69 85q-47 0 -76 -38t-29 -114q0 -44 17 -65t58 -21zM615 43l31 -58q-80 -68 -282 -68q-167 0 -258 94.5t-91 249.5q0 161 95 263t258 102q68 0 125.5 -16.5t103 -50.5t71 -90.5t25.5 -131.5q0 -122 -53.5 -193.5t-121.5 -71.5
q-40 0 -63 15t-28 38q-29 -50 -106 -50q-72 0 -108.5 48t-36.5 117q0 98 51.5 162t135.5 64q77 0 98 -63l13 53h78l-52 -247q-6 -27 -6 -36q0 -19 23 -19q39 0 70.5 46.5t31.5 126.5q0 231 -252 231q-86 0 -150 -43.5t-94.5 -109t-30.5 -139.5q0 -132 73 -203t205 -71
q178 0 245 51z" />
    <glyph glyph-name="A" unicode="A" horiz-adv-x="643" 
d="M402 251l-83 264h-1l-85 -264h169zM635 0h-151l-42 137h-245l-47 -137h-147l237 664h161z" />
    <glyph glyph-name="A" unicode="&#x410;" horiz-adv-x="643" 
d="M402 251l-83 264h-1l-85 -264h169zM635 0h-151l-42 137h-245l-47 -137h-147l237 664h161z" />
    <glyph glyph-name="A" unicode="&#x391;" horiz-adv-x="643" 
d="M402 251l-83 264h-1l-85 -264h169zM635 0h-151l-42 137h-245l-47 -137h-147l237 664h161z" />
    <glyph glyph-name="B" unicode="B" horiz-adv-x="574" 
d="M157 113h176q47 0 74.5 26.5t27.5 68.5q0 84 -100 84h-178v-179zM324 549h-167v-144h175q84 0 84 72q0 38 -21.5 55t-70.5 17zM322 0h-299v664h327q96 0 148 -48.5t52 -132.5q0 -42 -23 -75.5t-58 -48.5q101 -38 101 -161q0 -93 -63 -145.5t-185 -52.5z" />
    <glyph glyph-name="B" unicode="&#x412;" horiz-adv-x="574" 
d="M157 113h176q47 0 74.5 26.5t27.5 68.5q0 84 -100 84h-178v-179zM324 549h-167v-144h175q84 0 84 72q0 38 -21.5 55t-70.5 17zM322 0h-299v664h327q96 0 148 -48.5t52 -132.5q0 -42 -23 -75.5t-58 -48.5q101 -38 101 -161q0 -93 -63 -145.5t-185 -52.5z" />
    <glyph glyph-name="B" unicode="&#x392;" horiz-adv-x="574" 
d="M157 113h176q47 0 74.5 26.5t27.5 68.5q0 84 -100 84h-178v-179zM324 549h-167v-144h175q84 0 84 72q0 38 -21.5 55t-70.5 17zM322 0h-299v664h327q96 0 148 -48.5t52 -132.5q0 -42 -23 -75.5t-58 -48.5q101 -38 101 -161q0 -93 -63 -145.5t-185 -52.5z" />
    <glyph glyph-name="C" unicode="C" horiz-adv-x="613" 
d="M469 228h139q-21 -115 -96.5 -183t-189.5 -68q-136 0 -221.5 90.5t-85.5 256.5q0 168 83 265t226 97q121 0 197.5 -68t86.5 -172h-139q-14 55 -54 87.5t-90 32.5q-84 0 -126.5 -61.5t-42.5 -172.5q0 -112 41 -173t121 -61q121 0 151 130z" />
    <glyph glyph-name="C" unicode="&#x421;" horiz-adv-x="613" 
d="M469 228h139q-21 -115 -96.5 -183t-189.5 -68q-136 0 -221.5 90.5t-85.5 256.5q0 168 83 265t226 97q121 0 197.5 -68t86.5 -172h-139q-14 55 -54 87.5t-90 32.5q-84 0 -126.5 -61.5t-42.5 -172.5q0 -112 41 -173t121 -61q121 0 151 130z" />
    <glyph glyph-name="D" unicode="D" horiz-adv-x="607" 
d="M158 113h115q90 0 131.5 56t41.5 170q0 113 -42.5 161.5t-142.5 48.5h-103v-436zM301 0h-278v664h257q137 0 222.5 -88t85.5 -237q0 -152 -79 -245.5t-208 -93.5z" />
    <glyph glyph-name="E" unicode="E" horiz-adv-x="532" 
d="M527 0h-504v664h488v-116h-353v-142h325v-117h-325v-171h369v-118z" />
    <glyph glyph-name="E" unicode="&#x415;" horiz-adv-x="532" 
d="M527 0h-504v664h488v-116h-353v-142h325v-117h-325v-171h369v-118z" />
    <glyph glyph-name="E" unicode="&#x395;" horiz-adv-x="532" 
d="M527 0h-504v664h488v-116h-353v-142h325v-117h-325v-171h369v-118z" />
    <glyph glyph-name="F" unicode="F" horiz-adv-x="505" 
d="M454 280h-292v-280h-139v664h473v-116h-334v-151h292v-117z" />
    <glyph glyph-name="G" unicode="G" horiz-adv-x="658" 
d="M633 0h-115l-3 66q-24 -42 -77 -65.5t-122 -23.5q-133 0 -217 105.5t-84 250.5q0 154 86 253.5t241 99.5q119 0 201 -64t89 -163h-140q-5 46 -49 79t-101 33q-85 0 -135 -64t-50 -180q0 -58 18.5 -109t61.5 -87.5t104 -36.5q68 0 115 44.5t47 107.5h-147v111h277v-357z
" />
    <glyph glyph-name="H" unicode="H" horiz-adv-x="587" 
d="M561 0h-140v298h-259v-298h-139v664h139v-250h259v250h140v-664z" />
    <glyph glyph-name="H" unicode="&#x41d;" horiz-adv-x="587" 
d="M561 0h-140v298h-259v-298h-139v664h139v-250h259v250h140v-664z" />
    <glyph glyph-name="H" unicode="&#x397;" horiz-adv-x="587" 
d="M561 0h-140v298h-259v-298h-139v664h139v-250h259v250h140v-664z" />
    <glyph glyph-name="I" unicode="I" horiz-adv-x="187" 
d="M162 0h-139v664h139v-664z" />
    <glyph glyph-name="I" unicode="&#x4cf;" horiz-adv-x="187" 
d="M162 0h-139v664h139v-664z" />
    <glyph glyph-name="I" unicode="&#x4c0;" horiz-adv-x="187" 
d="M162 0h-139v664h139v-664z" />
    <glyph glyph-name="I" unicode="&#x406;" horiz-adv-x="187" 
d="M162 0h-139v664h139v-664z" />
    <glyph glyph-name="I" unicode="&#x399;" horiz-adv-x="187" 
d="M162 0h-139v664h139v-664z" />
    <glyph glyph-name="J" unicode="J" horiz-adv-x="454" 
d="M288 192v472h139v-485q0 -93 -56.5 -147.5t-161.5 -54.5q-97 0 -151 52.5t-54 153.5v68h126v-61q0 -51 18.5 -75.5t60.5 -24.5q47 0 63 22.5t16 79.5z" />
    <glyph glyph-name="J" unicode="&#x408;" horiz-adv-x="454" 
d="M288 192v472h139v-485q0 -93 -56.5 -147.5t-161.5 -54.5q-97 0 -151 52.5t-54 153.5v68h126v-61q0 -51 18.5 -75.5t60.5 -24.5q47 0 63 22.5t16 79.5z" />
    <glyph glyph-name="K" unicode="K" horiz-adv-x="604" 
d="M600 0h-169l-197 299l-74 -73v-226h-137v664h137v-270l254 270h180l-262 -262z" />
    <glyph glyph-name="K" unicode="&#x41a;" horiz-adv-x="604" 
d="M600 0h-169l-197 299l-74 -73v-226h-137v664h137v-270l254 270h180l-262 -262z" />
    <glyph glyph-name="K" unicode="&#x39a;" horiz-adv-x="604" 
d="M600 0h-169l-197 299l-74 -73v-226h-137v664h137v-270l254 270h180l-262 -262z" />
    <glyph glyph-name="L" unicode="L" horiz-adv-x="501" 
d="M491 0h-468v664h139v-543h329v-121z" />
    <glyph glyph-name="M" unicode="M" horiz-adv-x="695" 
d="M667 0h-130v455l-124 -455h-138l-123 453v-453h-129v664h204l120 -487l120 487h200v-664z" />
    <glyph glyph-name="M" unicode="&#x41c;" horiz-adv-x="695" 
d="M667 0h-130v455l-124 -455h-138l-123 453v-453h-129v664h204l120 -487l120 487h200v-664z" />
    <glyph glyph-name="M" unicode="&#x39c;" horiz-adv-x="695" 
d="M667 0h-130v455l-124 -455h-138l-123 453v-453h-129v664h204l120 -487l120 487h200v-664z" />
    <glyph glyph-name="N" unicode="N" horiz-adv-x="591" 
d="M564 0h-128l-284 446v-446h-129v664h147l264 -427v427h130v-664z" />
    <glyph glyph-name="N" unicode="&#x39d;" horiz-adv-x="591" 
d="M564 0h-128l-284 446v-446h-129v664h147l264 -427v427h130v-664z" />
    <glyph glyph-name="O" unicode="O" horiz-adv-x="670" 
d="M334 96q80 0 130 57.5t50 169.5q0 117 -46.5 178.5t-133.5 61.5q-88 0 -135 -61.5t-47 -178.5q0 -227 182 -227zM334 -23q-153 0 -236 90.5t-83 258.5q0 170 83.5 265t235.5 95t234.5 -95.5t82.5 -267.5q0 -170 -81.5 -258t-235.5 -88z" />
    <glyph glyph-name="O" unicode="&#x41e;" horiz-adv-x="670" 
d="M334 96q80 0 130 57.5t50 169.5q0 117 -46.5 178.5t-133.5 61.5q-88 0 -135 -61.5t-47 -178.5q0 -227 182 -227zM334 -23q-153 0 -236 90.5t-83 258.5q0 170 83.5 265t235.5 95t234.5 -95.5t82.5 -267.5q0 -170 -81.5 -258t-235.5 -88z" />
    <glyph glyph-name="O" unicode="&#x39f;" horiz-adv-x="670" 
d="M334 96q80 0 130 57.5t50 169.5q0 117 -46.5 178.5t-133.5 61.5q-88 0 -135 -61.5t-47 -178.5q0 -227 182 -227zM334 -23q-153 0 -236 90.5t-83 258.5q0 170 83.5 265t235.5 95t234.5 -95.5t82.5 -267.5q0 -170 -81.5 -258t-235.5 -88z" />
    <glyph glyph-name="P" unicode="P" horiz-adv-x="534" 
d="M162 354h132q58 0 85.5 26.5t27.5 72.5q0 44 -28 70t-85 26h-132v-195zM162 0h-139v664h293q96 0 154.5 -61.5t58.5 -153.5t-58.5 -150t-154.5 -58h-154v-241z" />
    <glyph glyph-name="P" unicode="&#x420;" horiz-adv-x="534" 
d="M162 354h132q58 0 85.5 26.5t27.5 72.5q0 44 -28 70t-85 26h-132v-195zM162 0h-139v664h293q96 0 154.5 -61.5t58.5 -153.5t-58.5 -150t-154.5 -58h-154v-241z" />
    <glyph glyph-name="P" unicode="&#x3a1;" horiz-adv-x="534" 
d="M162 354h132q58 0 85.5 26.5t27.5 72.5q0 44 -28 70t-85 26h-132v-195zM162 0h-139v664h293q96 0 154.5 -61.5t58.5 -153.5t-58.5 -150t-154.5 -58h-154v-241z" />
    <glyph glyph-name="Q" unicode="Q" horiz-adv-x="671" 
d="M542 -14h122q0 -95 -57 -157t-145 -62q-83 0 -136 56t-53 144v21q-126 17 -192 102.5t-66 235.5q0 170 83.5 265t235.5 95t234.5 -95.5t82.5 -267.5q0 -125 -66 -217t-183 -110q0 -54 19.5 -81t52.5 -27q30 0 49 25.5t19 72.5zM334 96q80 0 130 57.5t50 169.5
q0 117 -46.5 178.5t-133.5 61.5q-88 0 -135 -61.5t-47 -178.5q0 -227 182 -227z" />
    <glyph glyph-name="R" unicode="R" horiz-adv-x="578" 
d="M337 549h-179v-177h174q102 0 102 88q0 89 -97 89zM546 0h-136v171q0 49 -22.5 69t-81.5 20h-148v-260h-135v664h337q91 0 147.5 -54t56.5 -138q0 -54 -26 -95.5t-73 -58.5q45 -14 63 -43t18 -87v-188z" />
    <glyph glyph-name="S" unicode="S" horiz-adv-x="563" 
d="M531 468h-132q-10 101 -132 101q-119 0 -119 -78q0 -32 24 -51.5t79 -32.5q146 -35 197 -58q49 -22 76.5 -59t27.5 -102q0 -106 -71.5 -158.5t-193.5 -52.5q-127 0 -203 56.5t-78 165.5h134q1 -51 41 -80.5t107 -29.5q61 0 95 25t34 69q0 31 -22 51t-81 33
q-133 29 -182 51q-111 50 -111 164q0 92 62.5 148t180.5 56q123 0 193 -60t74 -158z" />
    <glyph glyph-name="S" unicode="&#x405;" horiz-adv-x="563" 
d="M531 468h-132q-10 101 -132 101q-119 0 -119 -78q0 -32 24 -51.5t79 -32.5q146 -35 197 -58q49 -22 76.5 -59t27.5 -102q0 -106 -71.5 -158.5t-193.5 -52.5q-127 0 -203 56.5t-78 165.5h134q1 -51 41 -80.5t107 -29.5q61 0 95 25t34 69q0 31 -22 51t-81 33
q-133 29 -182 51q-111 50 -111 164q0 92 62.5 148t180.5 56q123 0 193 -60t74 -158z" />
    <glyph glyph-name="T" unicode="T" horiz-adv-x="554" 
d="M343 0h-139v548h-200v116h540v-116h-201v-548z" />
    <glyph glyph-name="T" unicode="&#x422;" horiz-adv-x="554" 
d="M343 0h-139v548h-200v116h540v-116h-201v-548z" />
    <glyph glyph-name="T" unicode="&#x3a4;" horiz-adv-x="554" 
d="M343 0h-139v548h-200v116h540v-116h-201v-548z" />
    <glyph glyph-name="U" unicode="U" horiz-adv-x="586" 
d="M416 221v443h142v-443q0 -120 -70.5 -182t-202.5 -62q-124 0 -193 59.5t-69 176.5v451h141v-438q0 -62 31.5 -98t87.5 -36q133 0 133 129z" />
    <glyph glyph-name="V" unicode="V" horiz-adv-x="593" 
d="M359 0h-131l-225 664h148l145 -466l144 466h144z" />
    <glyph glyph-name="W" unicode="W" horiz-adv-x="856" 
d="M663 0h-134l-103 432l-105 -432h-130l-188 664h148l109 -430l92 430h146l101 -430l108 430h142z" />
    <glyph glyph-name="X" unicode="X" horiz-adv-x="605" 
d="M596 0h-169l-127 228l-134 -228h-162l215 339l-203 325h164l120 -215l121 215h161l-202 -319z" />
    <glyph glyph-name="X" unicode="&#x425;" horiz-adv-x="605" 
d="M596 0h-169l-127 228l-134 -228h-162l215 339l-203 325h164l120 -215l121 215h161l-202 -319z" />
    <glyph glyph-name="X" unicode="&#x3a7;" horiz-adv-x="605" 
d="M596 0h-169l-127 228l-134 -228h-162l215 339l-203 325h164l120 -215l121 215h161l-202 -319z" />
    <glyph glyph-name="Y" unicode="Y" horiz-adv-x="602" 
d="M372 0h-139v251l-230 413h162l140 -270l129 270h160l-222 -415v-249z" />
    <glyph glyph-name="Y" unicode="&#x4ae;" horiz-adv-x="602" 
d="M372 0h-139v251l-230 413h162l140 -270l129 270h160l-222 -415v-249z" />
    <glyph glyph-name="Y" unicode="&#x3a5;" horiz-adv-x="602" 
d="M372 0h-139v251l-230 413h162l140 -270l129 270h160l-222 -415v-249z" />
    <glyph glyph-name="Z" unicode="Z" horiz-adv-x="532" 
d="M523 0h-519v118l345 430h-335v116h509v-109l-347 -437h347v-118z" />
    <glyph glyph-name="Z" unicode="&#x396;" horiz-adv-x="532" 
d="M523 0h-519v118l345 430h-335v116h509v-109l-347 -437h347v-118z" />
    <glyph glyph-name="bracketleft" unicode="[" horiz-adv-x="319" 
d="M300 -130h-228v849h228v-89h-113v-673h113v-87z" />
    <glyph glyph-name="backslash" unicode="\" horiz-adv-x="294" 
d="M294 0h-107l-192 664h109z" />
    <glyph glyph-name="bracketright" unicode="]" horiz-adv-x="316" 
d="M240 -130h-230v87h115v673h-115v89h230v-849z" />
    <glyph glyph-name="asciicircum" unicode="^" horiz-adv-x="459" 
d="M440 473h-139l-73 87l-75 -87h-138l165 191h93z" />
    <glyph glyph-name="underscore" unicode="_" horiz-adv-x="478" 
d="M485 -126h-485v58h485v-58z" />
    <glyph glyph-name="grave" unicode="`" horiz-adv-x="352" 
d="M273 554l-223 94l47 82l207 -121z" />
    <glyph glyph-name="a" unicode="a" horiz-adv-x="486" 
d="M324 187l1 54q-16 -16 -84 -29q-55 -10 -76.5 -27.5t-21.5 -49.5q0 -55 63 -55q50 0 83.5 31.5t34.5 75.5zM455 0h-121q-6 19 -8 44q-52 -57 -149 -57q-81 0 -122.5 36.5t-41.5 98.5q0 41 12 71t28.5 47t50.5 29t60 17t75 12q48 7 65.5 18.5t17.5 37.5q0 24 -22.5 37.5
t-60.5 13.5q-79 0 -89 -73h-121q3 173 216 173q113 0 161.5 -48.5t48.5 -145.5v-311z" />
    <glyph glyph-name="a" unicode="&#x430;" horiz-adv-x="486" 
d="M324 187l1 54q-16 -16 -84 -29q-55 -10 -76.5 -27.5t-21.5 -49.5q0 -55 63 -55q50 0 83.5 31.5t34.5 75.5zM455 0h-121q-6 19 -8 44q-52 -57 -149 -57q-81 0 -122.5 36.5t-41.5 98.5q0 41 12 71t28.5 47t50.5 29t60 17t75 12q48 7 65.5 18.5t17.5 37.5q0 24 -22.5 37.5
t-60.5 13.5q-79 0 -89 -73h-121q3 173 216 173q113 0 161.5 -48.5t48.5 -145.5v-311z" />
    <glyph glyph-name="b" unicode="b" horiz-adv-x="524" 
d="M259 93q49 0 80 41.5t31 107.5q0 152 -112 152q-109 0 -109 -160q0 -62 31.5 -101.5t78.5 -39.5zM151 0h-125v672h128v-244q55 77 146 77q94 0 148 -70t54 -184q0 -122 -59 -193t-154 -71q-92 0 -137 73z" />
    <glyph glyph-name="c" unicode="c" horiz-adv-x="481" 
d="M338 178h131q-10 -85 -73 -138t-153 -53q-104 0 -165 68t-61 197q0 128 61 190.5t169 62.5q96 0 156.5 -51t66.5 -138h-131q-5 38 -30.5 59.5t-62.5 21.5q-100 0 -100 -142q0 -76 27.5 -117.5t68.5 -41.5q39 0 65.5 21.5t30.5 60.5z" />
    <glyph glyph-name="c" unicode="&#x441;" horiz-adv-x="481" 
d="M338 178h131q-10 -85 -73 -138t-153 -53q-104 0 -165 68t-61 197q0 128 61 190.5t169 62.5q96 0 156.5 -51t66.5 -138h-131q-5 38 -30.5 59.5t-62.5 21.5q-100 0 -100 -142q0 -76 27.5 -117.5t68.5 -41.5q39 0 65.5 21.5t30.5 60.5z" />
    <glyph glyph-name="d" unicode="d" horiz-adv-x="523" 
d="M259 93q47 0 78.5 39.5t31.5 101.5q0 160 -109 160q-112 0 -112 -152q0 -66 31 -107.5t80 -41.5zM492 0h-125l-1 60q-45 -73 -137 -73q-95 0 -154 71t-59 193q0 114 54 184t148 70q91 0 146 -77v244h128v-672z" />
    <glyph glyph-name="e" unicode="e" 
d="M149 294h201q-1 52 -30.5 80t-70.5 28q-40 0 -68 -29t-32 -79zM484 212h-339q3 -56 32.5 -89t77.5 -33q32 0 56.5 15t31.5 40h134q-22 -75 -79.5 -116.5t-136.5 -41.5q-246 0 -246 268q0 115 63 182.5t175 67.5q231 0 231 -293z" />
    <glyph glyph-name="e" unicode="&#x435;" 
d="M149 294h201q-1 52 -30.5 80t-70.5 28q-40 0 -68 -29t-32 -79zM484 212h-339q3 -56 32.5 -89t77.5 -33q32 0 56.5 15t31.5 40h134q-22 -75 -79.5 -116.5t-136.5 -41.5q-246 0 -246 268q0 115 63 182.5t175 67.5q231 0 231 -293z" />
    <glyph glyph-name="f" unicode="f" horiz-adv-x="295" 
d="M205 0h-128v400h-73v92h73q0 180 209 180v-105q-49 0 -65 -15.5t-16 -59.5h84v-92h-84v-400z" />
    <glyph glyph-name="g" unicode="g" horiz-adv-x="530" 
d="M262 98q48 0 79.5 37.5t31.5 98.5q0 158 -111 158t-111 -150q0 -65 31 -104.5t80 -39.5zM369 -15v81q-13 -33 -49.5 -51.5t-85.5 -18.5q-113 0 -165.5 72.5t-52.5 180.5q0 113 62 184.5t153 71.5q92 0 138 -74v61h130v-497q0 -107 -69 -167.5t-176 -60.5
q-105 0 -171.5 56t-66.5 150h121q0 -44 29.5 -69t78.5 -25q53 0 88.5 29t35.5 77z" />
    <glyph glyph-name="h" unicode="h" 
d="M472 0h-131v305q0 54 -19.5 75.5t-64.5 21.5q-47 0 -74 -34t-27 -86v-282h-130v672h130v-244q14 33 55 55t90 22q77 0 124 -42t47 -115v-348z" />
    <glyph glyph-name="h" unicode="&#x4bb;" 
d="M472 0h-131v305q0 54 -19.5 75.5t-64.5 21.5q-47 0 -74 -34t-27 -86v-282h-130v672h130v-244q14 33 55 55t90 22q77 0 124 -42t47 -115v-348z" />
    <glyph glyph-name="i" unicode="i" horiz-adv-x="192" 
d="M159 0h-130v492h130v-492zM159 551h-130v121h130v-121z" />
    <glyph glyph-name="i" unicode="&#x456;" horiz-adv-x="192" 
d="M159 0h-130v492h130v-492zM159 551h-130v121h130v-121z" />
    <glyph glyph-name="j" unicode="j" horiz-adv-x="195" 
d="M26 -28v520h131v-525q0 -88 -55.5 -144t-138.5 -56q-99 0 -148.5 54t-49.5 152h122q0 -91 69 -91q70 0 70 90zM157 551h-131v121h131v-121z" />
    <glyph glyph-name="j" unicode="&#x458;" horiz-adv-x="195" 
d="M26 -28v520h131v-525q0 -88 -55.5 -144t-138.5 -56q-99 0 -148.5 54t-49.5 152h122q0 -91 69 -91q70 0 70 90zM157 551h-131v121h131v-121z" />
    <glyph glyph-name="k" unicode="k" horiz-adv-x="483" 
d="M474 0h-146l-108 221l-63 -65v-156h-131v672h131v-367l162 187h159l-165 -181z" />
    <glyph glyph-name="l" unicode="l" horiz-adv-x="185" 
d="M156 0h-130v672h130v-672z" />
    <glyph glyph-name="m" unicode="m" horiz-adv-x="754" 
d="M730 0h-127v298q0 44 -21.5 72.5t-55.5 28.5q-36 0 -59.5 -30t-23.5 -75v-294h-130v296q0 58 -17 78.5t-61 20.5q-79 0 -79 -96v-299h-130v492h122v-72q24 47 58.5 66t85.5 19q49 0 78.5 -17t58.5 -61q39 78 133 78q73 0 120.5 -47t47.5 -117v-341z" />
    <glyph glyph-name="n" unicode="n" 
d="M472 0h-131v298q0 56 -18.5 76.5t-65.5 20.5q-101 0 -101 -113v-282h-130v492h124v-72q46 85 159 85q73 0 118 -43t45 -121v-341z" />
    <glyph glyph-name="o" unicode="o" horiz-adv-x="539" 
d="M268 96q119 0 119 150q0 149 -119 149t-119 -149q0 -150 119 -150zM268 -13q-118 0 -185.5 71t-67.5 188q0 118 68.5 188.5t184.5 70.5q115 0 182.5 -70.5t67.5 -188.5q0 -117 -68 -188t-182 -71z" />
    <glyph glyph-name="o" unicode="&#x43e;" horiz-adv-x="539" 
d="M268 96q119 0 119 150q0 149 -119 149t-119 -149q0 -150 119 -150zM268 -13q-118 0 -185.5 71t-67.5 188q0 118 68.5 188.5t184.5 70.5q115 0 182.5 -70.5t67.5 -188.5q0 -117 -68 -188t-182 -71z" />
    <glyph glyph-name="o" unicode="&#x3bf;" horiz-adv-x="539" 
d="M268 96q119 0 119 150q0 149 -119 149t-119 -149q0 -150 119 -150zM268 -13q-118 0 -185.5 71t-67.5 188q0 118 68.5 188.5t184.5 70.5q115 0 182.5 -70.5t67.5 -188.5q0 -117 -68 -188t-182 -71z" />
    <glyph glyph-name="p" unicode="p" horiz-adv-x="523" 
d="M258 98q112 0 112 152q0 66 -31 107.5t-80 41.5q-47 0 -78.5 -39.5t-31.5 -101.5q0 -160 109 -160zM154 -233h-128v725h125l1 -60q45 73 137 73q95 0 154 -71t59 -193q0 -114 -54 -184t-148 -70q-91 0 -146 77v-297z" />
    <glyph glyph-name="p" unicode="&#x440;" horiz-adv-x="523" 
d="M258 98q112 0 112 152q0 66 -31 107.5t-80 41.5q-47 0 -78.5 -39.5t-31.5 -101.5q0 -160 109 -160zM154 -233h-128v725h125l1 -60q45 73 137 73q95 0 154 -71t59 -193q0 -114 -54 -184t-148 -70q-91 0 -146 77v-297z" />
    <glyph glyph-name="q" unicode="q" horiz-adv-x="513" 
d="M613 -27h122q0 -93 -53 -149.5t-134 -56.5t-133.5 57.5t-52.5 147.5v89q-55 -74 -144 -74q-94 0 -148 70t-54 184q0 122 59 193t154 71q92 0 137 -73l1 60h125v-521q0 -48 16 -68.5t48 -20.5q57 0 57 91zM260 98q109 0 109 160q0 62 -31.5 101.5t-78.5 39.5
q-49 0 -80 -41.5t-31 -107.5q0 -152 112 -152z" />
    <glyph glyph-name="r" unicode="r" horiz-adv-x="321" 
d="M156 0h-130v492h122v-59q29 45 63.5 58.5t82.5 13.5h17v-133q-18 3 -36 3q-119 0 -119 -119v-256z" />
    <glyph glyph-name="s" unicode="s" horiz-adv-x="472" 
d="M447 343h-125q-5 36 -26 50.5t-66 14.5q-77 0 -77 -41q0 -20 18.5 -32t61.5 -24q19 -6 51.5 -14t55.5 -14.5t40 -13.5q81 -33 81 -119q0 -77 -55.5 -120t-159.5 -43q-111 0 -173 47t-64 124h134q0 -34 27.5 -53.5t74.5 -19.5q38 0 62.5 12.5t24.5 38.5q0 24 -20 35.5
t-59 20.5q-121 29 -164 56q-62 39 -62 111q0 67 50 106.5t157 39.5q105 0 156.5 -40.5t56.5 -121.5z" />
    <glyph glyph-name="s" unicode="&#x455;" horiz-adv-x="472" 
d="M447 343h-125q-5 36 -26 50.5t-66 14.5q-77 0 -77 -41q0 -20 18.5 -32t61.5 -24q19 -6 51.5 -14t55.5 -14.5t40 -13.5q81 -33 81 -119q0 -77 -55.5 -120t-159.5 -43q-111 0 -173 47t-64 124h134q0 -34 27.5 -53.5t74.5 -19.5q38 0 62.5 12.5t24.5 38.5q0 24 -20 35.5
t-59 20.5q-121 29 -164 56q-62 39 -62 111q0 67 50 106.5t157 39.5q105 0 156.5 -40.5t56.5 -121.5z" />
    <glyph glyph-name="t" unicode="t" horiz-adv-x="453" 
d="M305 196v128h121v-140q0 -84 -50.5 -140.5t-148.5 -56.5q-102 0 -151.5 56t-49.5 142v440h128v-133h272v-92h-272v-202q0 -98 75 -98q76 0 76 96z" />
    <glyph glyph-name="u" unicode="u" horiz-adv-x="500" 
d="M469 0h-123v69q-50 -82 -153 -82q-74 0 -120.5 50t-46.5 131v324h130v-304q0 -92 83 -92q48 0 74.5 31t26.5 81v284h129v-492z" />
    <glyph glyph-name="v" unicode="v" horiz-adv-x="501" 
d="M315 0h-136l-176 492h145l103 -325l104 325h137z" />
    <glyph glyph-name="v" unicode="&#x3bd;" horiz-adv-x="501" 
d="M315 0h-136l-176 492h145l103 -325l104 325h137z" />
    <glyph glyph-name="w" unicode="w" horiz-adv-x="714" 
d="M565 0h-133l-78 286l-78 -286h-133l-140 492h137l80 -316l68 316h132l77 -316l75 316h134z" />
    <glyph glyph-name="x" unicode="x" horiz-adv-x="496" 
d="M488 0h-159l-86 148l-84 -148h-156l165 251l-160 241h157l83 -143l84 143h151l-163 -241z" />
    <glyph glyph-name="x" unicode="&#x445;" horiz-adv-x="496" 
d="M488 0h-159l-86 148l-84 -148h-156l165 251l-160 241h157l83 -143l84 143h151l-163 -241z" />
    <glyph glyph-name="y" unicode="y" horiz-adv-x="502" 
d="M339 -15v80q-13 -32 -49.5 -51t-83.5 -19q-78 0 -129 49t-51 129v319h130v-300q0 -92 83 -92q44 0 72 26t28 66v300h130v-505q0 -101 -64 -160.5t-162 -59.5q-106 0 -161.5 54.5t-55.5 151.5h121q0 -44 26 -69t76 -25q37 0 63.5 29.5t26.5 76.5z" />
    <glyph glyph-name="y" unicode="&#x443;" horiz-adv-x="502" 
d="M339 -15v80q-13 -32 -49.5 -51t-83.5 -19q-78 0 -129 49t-51 129v319h130v-300q0 -92 83 -92q44 0 72 26t28 66v300h130v-505q0 -101 -64 -160.5t-162 -59.5q-106 0 -161.5 54.5t-55.5 151.5h121q0 -44 26 -69t76 -25q37 0 63.5 29.5t26.5 76.5z" />
    <glyph glyph-name="z" unicode="z" horiz-adv-x="445" 
d="M433 0h-424v100l251 289h-234v103h400v-105l-251 -281h258v-106z" />
    <glyph glyph-name="braceleft" unicode="{" horiz-adv-x="334" 
d="M314 -131h-37q-103 0 -136.5 36t-33.5 122q0 12 2.5 62t2.5 59q0 58 -18 81t-64 23v86q46 0 64 23.5t18 81.5q0 9 -2.5 58t-2.5 61q0 86 33.5 122t136.5 36h37v-82h-22q-43 0 -59 -13.5t-16 -49.5q0 -30 3 -89t3 -89q0 -40 -31.5 -68t-75.5 -34q44 -6 75.5 -34t31.5 -68
q0 -30 -3 -89.5t-3 -89.5q0 -36 16 -49.5t59 -13.5h22v-82z" />
    <glyph glyph-name="bar" unicode="|" horiz-adv-x="338" 
d="M218 -125h-102v861h102v-861z" />
    <glyph glyph-name="braceright" unicode="}" horiz-adv-x="330" 
d="M47 -131h-37v82h22q43 0 59 13.5t16 49.5q0 30 -3 89.5t-3 89.5q0 40 31.5 68t75.5 34q-44 6 -75.5 34t-31.5 68q0 30 3 89t3 89q0 36 -16 49.5t-59 13.5h-22v82h37q103 0 136.5 -36t33.5 -122q0 -12 -2.5 -61t-2.5 -58q0 -58 18 -81.5t64 -23.5v-86q-46 0 -64 -23
t-18 -81q0 -9 2.5 -59t2.5 -62q0 -86 -33.5 -122t-136.5 -36z" />
    <glyph glyph-name="asciitilde" unicode="~" horiz-adv-x="555" 
d="M525 406v-101q-61 -67 -148 -67q-41 0 -111.5 29t-104.5 29q-76 0 -136 -76v101q57 67 132 67q52 0 124.5 -28.5t101.5 -28.5q86 0 142 75z" />
    <glyph glyph-name="nbspace" unicode="&#xa0;" horiz-adv-x="241" 
 />
    <glyph glyph-name="exclamdown" unicode="&#xa1;" horiz-adv-x="245" 
d="M58 664h135v-131h-135v131zM90 480h69q39 -238 39 -409q0 -51 -5 -71h-138q-4 44 -4 74q0 168 39 406z" />
    <glyph glyph-name="cent" unicode="&#xa2;" horiz-adv-x="481" 
d="M269 0h-47v70q-95 7 -150 74.5t-55 190.5q0 120 54.5 183t150.5 70v76h47v-76q87 -6 141 -56.5t60 -131.5h-131q-4 31 -23 51.5t-47 25.5v-296q29 7 47.5 28t21.5 52h131q-10 -78 -65 -130t-135 -60v-71zM222 181v297q-76 -16 -76 -140q0 -68 21 -107.5t55 -49.5z" />
    <glyph glyph-name="sterling" unicode="&#xa3;" horiz-adv-x="482" 
d="M455 0h-429v484q0 93 56 147.5t162 54.5q103 0 156.5 -45.5t53.5 -158.5v-77h-131v76q0 49 -16 70t-63 21t-63 -20.5t-16 -69.5v-133h290v-82h-290v-146h290v-121z" />
    <glyph glyph-name="currency" unicode="&#xa4;" horiz-adv-x="534" 
d="M443 96l-63 68q-53 -32 -112 -32q-61 0 -112 32l-63 -68l-72 72l68 63q-32 51 -32 112q0 59 32 112l-67 62l71 71l61 -66q52 33 114 33q61 0 113 -33l61 66l71 -71l-66 -61q33 -52 33 -113q0 -63 -33 -113l67 -62zM416 343q0 61 -43 104.5t-105 43.5q-61 0 -104 -43
t-43 -105q0 -61 42.5 -104t104.5 -43t105 43t43 104z" />
    <glyph glyph-name="yen" unicode="&#xa5;" horiz-adv-x="534" 
d="M464 80h-145v-80h-108v80h-145v76h145v61h-145v75h145v66l-194 306h117l130 -219l131 219h116l-192 -306v-66h145v-75h-145v-61h145v-76z" />
    <glyph glyph-name="brokenbar" unicode="&#xa6;" horiz-adv-x="338" 
d="M218 -125h-102v411h102v-411zM218 736v-397h-102v397h102z" />
    <glyph glyph-name="section" unicode="&#xa7;" horiz-adv-x="535" 
d="M475 492h-111q-9 85 -112 85q-100 0 -100 -68q0 -48 87 -68q109 -26 166 -49q43 -19 65.5 -51t22.5 -94q0 -65 -45 -110q37 -35 37 -112q0 -78 -60.5 -123t-150.5 -45q-243 0 -249 187h113q1 -42 34.5 -67.5t85.5 -25.5q54 0 83.5 20t29.5 55q0 30 -18 47t-68 28
q-140 30 -193.5 66t-53.5 121q0 70 46 113q-39 39 -39 109q0 73 53.5 119.5t153.5 46.5t160 -50t63 -134zM344 190q35 19 35 58q0 30 -18 47t-69 28q-43 8 -100 26q-47 -15 -47 -62t86 -68q93 -23 113 -29z" />
    <glyph glyph-name="dieresis" unicode="&#xa8;" horiz-adv-x="421" 
d="M180 579h-130v124h130v-124zM380 579h-130v124h130v-124z" />
    <glyph glyph-name="copyright" unicode="&#xa9;" horiz-adv-x="673" 
d="M333 -9q-131 0 -224.5 100.5t-93.5 241.5t93.5 241t224.5 100q132 0 225 -100t93 -241t-93 -241.5t-225 -100.5zM335 44q111 0 190 84t79 204q0 118 -79.5 203.5t-189.5 85.5q-111 0 -189.5 -85t-78.5 -204q0 -120 78 -204t190 -84zM461 369h-71q-4 18 -17 29t-31 11
q-25 0 -40 -20.5t-15 -52.5q0 -82 53 -82q19 0 33 12t15 32h72q-5 -44 -39.5 -72.5t-83.5 -28.5q-59 0 -91 35t-32 96q0 66 32.5 102.5t93.5 36.5q52 0 85 -27t36 -71z" />
    <glyph glyph-name="ordfeminine" unicode="&#xaa;" horiz-adv-x="328" 
d="M208 403l1 30q-9 -10 -35 -15t-45.5 -14t-19.5 -30q0 -30 34 -30q28 0 46 17t19 42zM280 300h-66q-4 12 -5 24q-28 -31 -82 -31q-44 0 -67 20t-23 54q0 28 8 46t28 28t37 14t51 9q27 4 36.5 10.5t9.5 20.5q0 28 -46 28q-42 0 -49 -40h-66q2 95 119 95q62 0 88.5 -27
t26.5 -80v-171z" />
    <glyph glyph-name="guillemotleft" unicode="&#xab;" horiz-adv-x="465" 
d="M388 145l-143 172l143 174l63 -68l-94 -106l94 -105zM156 145l-143 172l143 174l63 -68l-94 -106l94 -105z" />
    <glyph glyph-name="logicalnot" unicode="&#xac;" horiz-adv-x="589" 
d="M558 0h-118v374h-415v118h533v-492z" />
    <glyph glyph-name="registered" unicode="&#xae;" horiz-adv-x="454" 
d="M425 494q0 -79 -56 -135t-136 -56q-79 0 -135 55.5t-56 135.5t56 136t135 56t135.5 -56t56.5 -136zM394 494q0 67 -47 114t-114 47t-114 -47t-47 -114t47 -114t114 -47t114 47t47 114zM251 560h-47v-47h46q27 0 27 23q0 24 -26 24zM306 415h-36v45q0 13 -6 18.5t-21 5.5
h-39v-69h-36v175h89q24 0 39 -14.5t15 -36.5q0 -31 -26 -40q21 -7 21 -34v-50z" />
    <glyph glyph-name="macron" unicode="&#xaf;" horiz-adv-x="478" 
d="M431 602h-381v91h381v-91z" />
    <glyph glyph-name="degree" unicode="&#xb0;" horiz-adv-x="375" 
d="M183 355q-77 0 -114 44t-37 115t37 114.5t114 43.5t114.5 -43.5t37.5 -114.5t-37.5 -115t-114.5 -44zM183 418q42 0 62.5 27t20.5 70t-20 69.5t-63 26.5t-63 -26.5t-20 -69.5t20.5 -70t62.5 -27z" />
    <glyph glyph-name="plusminus" unicode="&#xb1;" horiz-adv-x="523" 
d="M305 107h-94v189h-188v94h188v188h94v-188h189v-94h-189v-189zM494 -26h-471v94h471v-94z" />
    <glyph glyph-name="twosuperior" unicode="&#xb2;" horiz-adv-x="262" 
d="M243 343h-226q0 50 20 86t80 79q36 26 48.5 42t12.5 37q0 43 -46 43q-48 0 -48 -59h-63q0 54 28.5 84.5t79.5 30.5q52 0 82.5 -25t30.5 -72q0 -37 -20.5 -64t-75.5 -66q-44 -32 -46 -60h143v-56z" />
    <glyph glyph-name="threesuperior" unicode="&#xb3;" horiz-adv-x="269" 
d="M107 492v45q67 0 67 46q0 51 -43 51q-19 0 -31.5 -14.5t-12.5 -40.5h-60q0 48 30 77.5t77 29.5q43 0 73 -25.5t30 -65.5q0 -51 -39 -74q49 -21 49 -82q0 -50 -32 -79t-85 -29q-51 0 -80 29t-29 80h63q0 -55 49 -55q21 0 34.5 14.5t13.5 40.5q0 29 -16.5 40.5t-57.5 11.5z
" />
    <glyph glyph-name="acute" unicode="&#xb4;" horiz-adv-x="352" 
d="M304 648l-223 -94l-31 55l207 121z" />
    <glyph glyph-name="paragraph" unicode="&#xb6;" horiz-adv-x="579" 
d="M516 -100h-108v696h-162v-696h-109v564q-58 8 -84 37.5t-26 70.5q0 50 41.5 82t123.5 32h372l-48 -91v-695z" />
    <glyph glyph-name="periodcentered" unicode="&#xb7;" horiz-adv-x="187" 
d="M162 265h-139v135h139v-135z" />
    <glyph glyph-name="cedilla" unicode="&#xb8;" horiz-adv-x="207" 
d="M50 -233v43q62 5 64 65h-64v82h115v-54q0 -126 -115 -136z" />
    <glyph glyph-name="onesuperior" unicode="&#xb9;" horiz-adv-x="178" 
d="M150 343h-65v229h-68v45q41 0 59 14t21 44h53v-332z" />
    <glyph glyph-name="ordmasculine" unicode="&#xba;" horiz-adv-x="356" 
d="M177 353q66 0 66 82t-66 82q-65 0 -65 -82t65 -82zM177 293q-64 0 -101.5 39t-37.5 103q0 65 38 104t101 39q64 0 101 -39t37 -104q0 -64 -37.5 -103t-100.5 -39z" />
    <glyph glyph-name="guillemotright" unicode="&#xbb;" horiz-adv-x="465" 
d="M308 145l-63 67l94 105l-94 106l63 68l143 -174zM76 145l-63 67l94 105l-94 106l63 68l143 -174z" />
    <glyph glyph-name="onequarter" unicode="&#xbc;" horiz-adv-x="615" 
d="M97 -20h-67l461 704h68zM152 343h-65v229h-68v45q41 0 59 14t21 44h53v-332zM498 113v117l-68 -117h68zM562 -10h-65v72h-129v57l121 203h73v-209h37v-51h-37v-72z" />
    <glyph glyph-name="onehalf" unicode="&#xbd;" horiz-adv-x="623" 
d="M93 -20h-67l461 704h68zM152 343h-65v229h-68v45q41 0 59 14t21 44h53v-332zM607 -10h-226q0 50 20 86t80 79q36 26 48.5 42t12.5 37q0 43 -46 43q-48 0 -48 -59h-63q0 54 28.5 84.5t79.5 30.5q52 0 82.5 -25t30.5 -72q0 -37 -20.5 -64t-75.5 -66q-44 -32 -46 -60h143
v-56z" />
    <glyph glyph-name="threequarters" unicode="&#xbe;" horiz-adv-x="633" 
d="M129 -20h-67l461 704h68zM515 113v117l-68 -117h68zM579 -10h-65v72h-129v57l121 203h73v-209h37v-51h-37v-72zM105 492v45q67 0 67 46q0 51 -43 51q-19 0 -31.5 -14.5t-12.5 -40.5h-60q0 48 30 77.5t77 29.5q43 0 73 -25.5t30 -65.5q0 -51 -39 -74q49 -21 49 -82
q0 -50 -32 -79t-85 -29q-51 0 -80 29t-29 80h63q0 -55 49 -55q21 0 34.5 14.5t13.5 40.5q0 29 -16.5 40.5t-57.5 11.5z" />
    <glyph glyph-name="questiondown" unicode="&#xbf;" horiz-adv-x="491" 
d="M177 664h135v-131h-135v131zM186 471h122q0 -60 -9.5 -96t-34.5 -65q-13 -15 -43.5 -37.5t-47 -44.5t-16.5 -56q0 -46 25.5 -67t65.5 -21q50 0 71 27t27 82h129q0 -98 -61.5 -156.5t-162.5 -58.5q-233 0 -233 187q0 60 23 95t78 76q42 31 54.5 59t12.5 76z" />
    <glyph glyph-name="Agrave" unicode="&#xc0;" horiz-adv-x="643" 
d="M402 251l-83 264h-1l-85 -264h169zM635 0h-151l-42 137h-245l-47 -137h-147l237 664h161zM389 726l-223 94l47 82l207 -121z" />
    <glyph glyph-name="Aacute" unicode="&#xc1;" horiz-adv-x="643" 
d="M402 251l-83 264h-1l-85 -264h169zM635 0h-151l-42 137h-245l-47 -137h-147l237 664h161zM480 820l-223 -94l-31 55l207 121z" />
    <glyph glyph-name="Acircumflex" unicode="&#xc2;" horiz-adv-x="643" 
d="M402 251l-83 264h-1l-85 -264h169zM635 0h-151l-42 137h-245l-47 -137h-147l237 664h161zM457 733l-135 118l-135 -118l-46 51l128 134h106l128 -134z" />
    <glyph glyph-name="Atilde" unicode="&#xc3;" horiz-adv-x="643" 
d="M402 251l-83 264h-1l-85 -264h169zM635 0h-151l-42 137h-245l-47 -137h-147l237 664h161zM420 873l75 -27q-30 -98 -109 -98q-26 0 -67 22.5t-61 22.5q-5 0 -11 -3t-14 -13.5t-14 -27.5l-69 37q28 88 97 88q33 0 75 -24t58 -24q11 0 23.5 11.5t16.5 35.5z" />
    <glyph glyph-name="Adieresis" unicode="&#xc4;" horiz-adv-x="643" 
d="M402 251l-83 264h-1l-85 -264h169zM635 0h-151l-42 137h-245l-47 -137h-147l237 664h161zM291 751h-130v124h130v-124zM491 751h-130v124h130v-124z" />
    <glyph glyph-name="Aring" unicode="&#xc5;" horiz-adv-x="643" 
d="M402 251l-83 264h-1l-85 -264h169zM635 0h-151l-42 137h-245l-47 -137h-147l237 664h161zM426 822q0 -96 -104 -96t-104 96t104 96t104 -96zM374 822q0 51 -52 51q-50 0 -50 -51q0 -49 50 -49q52 0 52 49z" />
    <glyph glyph-name="AE" unicode="&#xc6;" horiz-adv-x="885" 
d="M881 0h-507v137h-177l-47 -137h-147l237 664h625v-116h-353v-142h325v-117h-325v-171h369v-118zM374 251v297h-44l-97 -297h141z" />
    <glyph glyph-name="Ccedilla" unicode="&#xc7;" horiz-adv-x="613" 
d="M469 228h139q-21 -115 -96.5 -183t-189.5 -68q-136 0 -221.5 90.5t-85.5 256.5q0 168 83 265t226 97q121 0 197.5 -68t86.5 -172h-139q-14 55 -54 87.5t-90 32.5q-84 0 -126.5 -61.5t-42.5 -172.5q0 -112 41 -173t121 -61q121 0 151 130zM268 -233v43q62 5 64 65h-64v82
h115v-54q0 -126 -115 -136z" />
    <glyph glyph-name="Egrave" unicode="&#xc8;" horiz-adv-x="532" 
d="M527 0h-504v664h488v-116h-353v-142h325v-117h-325v-171h369v-118zM333 726l-223 94l47 82l207 -121z" />
    <glyph glyph-name="Egrave" unicode="&#x400;" horiz-adv-x="532" 
d="M527 0h-504v664h488v-116h-353v-142h325v-117h-325v-171h369v-118zM333 726l-223 94l47 82l207 -121z" />
    <glyph glyph-name="Eacute" unicode="&#xc9;" horiz-adv-x="532" 
d="M527 0h-504v664h488v-116h-353v-142h325v-117h-325v-171h369v-118zM424 820l-223 -94l-31 55l207 121z" />
    <glyph glyph-name="Ecircumflex" unicode="&#xca;" horiz-adv-x="532" 
d="M527 0h-504v664h488v-116h-353v-142h325v-117h-325v-171h369v-118zM412 733l-135 118l-135 -118l-46 51l128 134h106l128 -134z" />
    <glyph glyph-name="Edieresis" unicode="&#xcb;" horiz-adv-x="532" 
d="M527 0h-504v664h488v-116h-353v-142h325v-117h-325v-171h369v-118zM244 751h-130v124h130v-124zM444 751h-130v124h130v-124z" />
    <glyph glyph-name="Edieresis" unicode="&#x401;" horiz-adv-x="532" 
d="M527 0h-504v664h488v-116h-353v-142h325v-117h-325v-171h369v-118zM244 751h-130v124h130v-124zM444 751h-130v124h130v-124z" />
    <glyph glyph-name="Igrave" unicode="&#xcc;" horiz-adv-x="187" 
d="M162 0h-139v664h139v-664zM161 726l-223 94l47 82l207 -121z" />
    <glyph glyph-name="Iacute" unicode="&#xcd;" horiz-adv-x="187" 
d="M162 0h-139v664h139v-664zM252 820l-223 -94l-31 55l207 121z" />
    <glyph glyph-name="Icircumflex" unicode="&#xce;" horiz-adv-x="187" 
d="M162 0h-139v664h139v-664zM230 733l-135 118l-135 -118l-46 51l128 134h106l128 -134z" />
    <glyph glyph-name="Idieresis" unicode="&#xcf;" horiz-adv-x="187" 
d="M162 0h-139v664h139v-664zM64 751h-130v124h130v-124zM264 751h-130v124h130v-124z" />
    <glyph glyph-name="Idieresis" unicode="&#x407;" horiz-adv-x="187" 
d="M162 0h-139v664h139v-664zM64 751h-130v124h130v-124zM264 751h-130v124h130v-124z" />
    <glyph glyph-name="Idieresis" unicode="&#x3aa;" horiz-adv-x="187" 
d="M162 0h-139v664h139v-664zM64 751h-130v124h130v-124zM264 751h-130v124h130v-124z" />
    <glyph glyph-name="Eth" unicode="&#xd0;" horiz-adv-x="607" 
d="M301 0h-278v282h-23v99h23v283h257q137 0 222.5 -88t85.5 -237q0 -152 -79 -245.5t-208 -93.5zM158 113h115q90 0 131.5 56t41.5 170q0 113 -42.5 161.5t-142.5 48.5h-103v-168h107v-99h-107v-169z" />
    <glyph glyph-name="Eth" unicode="&#x110;" horiz-adv-x="607" 
d="M301 0h-278v282h-23v99h23v283h257q137 0 222.5 -88t85.5 -237q0 -152 -79 -245.5t-208 -93.5zM158 113h115q90 0 131.5 56t41.5 170q0 113 -42.5 161.5t-142.5 48.5h-103v-168h107v-99h-107v-169z" />
    <glyph glyph-name="Ntilde" unicode="&#xd1;" horiz-adv-x="591" 
d="M564 0h-128l-284 446v-446h-129v664h147l264 -427v427h130v-664zM394 873l75 -27q-30 -98 -109 -98q-26 0 -67 22.5t-61 22.5q-5 0 -11 -3t-14 -13.5t-14 -27.5l-69 37q28 88 97 88q33 0 75 -24t58 -24q11 0 23.5 11.5t16.5 35.5z" />
    <glyph glyph-name="Ograve" unicode="&#xd2;" horiz-adv-x="670" 
d="M334 96q80 0 130 57.5t50 169.5q0 117 -46.5 178.5t-133.5 61.5q-88 0 -135 -61.5t-47 -178.5q0 -227 182 -227zM334 -23q-153 0 -236 90.5t-83 258.5q0 170 83.5 265t235.5 95t234.5 -95.5t82.5 -267.5q0 -170 -81.5 -258t-235.5 -88zM402 726l-223 94l47 82l207 -121z
" />
    <glyph glyph-name="Oacute" unicode="&#xd3;" horiz-adv-x="670" 
d="M334 96q80 0 130 57.5t50 169.5q0 117 -46.5 178.5t-133.5 61.5q-88 0 -135 -61.5t-47 -178.5q0 -227 182 -227zM334 -23q-153 0 -236 90.5t-83 258.5q0 170 83.5 265t235.5 95t234.5 -95.5t82.5 -267.5q0 -170 -81.5 -258t-235.5 -88zM493 820l-223 -94l-31 55l207 121z
" />
    <glyph glyph-name="Ocircumflex" unicode="&#xd4;" horiz-adv-x="670" 
d="M334 96q80 0 130 57.5t50 169.5q0 117 -46.5 178.5t-133.5 61.5q-88 0 -135 -61.5t-47 -178.5q0 -227 182 -227zM334 -23q-153 0 -236 90.5t-83 258.5q0 170 83.5 265t235.5 95t234.5 -95.5t82.5 -267.5q0 -170 -81.5 -258t-235.5 -88zM471 733l-135 118l-135 -118
l-46 51l128 134h106l128 -134z" />
    <glyph glyph-name="Otilde" unicode="&#xd5;" horiz-adv-x="670" 
d="M334 96q80 0 130 57.5t50 169.5q0 117 -46.5 178.5t-133.5 61.5q-88 0 -135 -61.5t-47 -178.5q0 -227 182 -227zM334 -23q-153 0 -236 90.5t-83 258.5q0 170 83.5 265t235.5 95t234.5 -95.5t82.5 -267.5q0 -170 -81.5 -258t-235.5 -88zM431 871l75 -27q-30 -98 -109 -98
q-27 0 -67 22.5t-61 22.5q-5 0 -11 -3t-14 -13.5t-14 -27.5l-69 37q28 88 97 88q33 0 75 -24t58 -24q11 0 23.5 11.5t16.5 35.5z" />
    <glyph glyph-name="Odieresis" unicode="&#xd6;" horiz-adv-x="670" 
d="M334 96q80 0 130 57.5t50 169.5q0 117 -46.5 178.5t-133.5 61.5q-88 0 -135 -61.5t-47 -178.5q0 -227 182 -227zM334 -23q-153 0 -236 90.5t-83 258.5q0 170 83.5 265t235.5 95t234.5 -95.5t82.5 -267.5q0 -170 -81.5 -258t-235.5 -88zM305 751h-130v124h130v-124z
M505 751h-130v124h130v-124z" />
    <glyph glyph-name="multiply" unicode="&#xd7;" horiz-adv-x="523" 
d="M457 209l-66 -66l-134 133l-133 -133l-66 67l133 133l-133 133l66 66l133 -133l134 134l66 -67l-133 -133z" />
    <glyph glyph-name="Oslash" unicode="&#xd8;" horiz-adv-x="670" 
d="M181 -41l-70 27l24 48q-120 89 -120 292q0 170 83.5 265t235.5 95q62 0 119 -19l24 48l74 -27l-28 -56q128 -91 128 -309q0 -170 -81.5 -258t-235.5 -88q-72 0 -133 22zM461 510l-204 -401q32 -13 77 -13q80 0 130 57.5t50 169.5q0 126 -53 187zM196 156l200 397
q-32 10 -62 10q-88 0 -135 -61.5t-47 -178.5q0 -111 44 -167z" />
    <glyph glyph-name="Ugrave" unicode="&#xd9;" horiz-adv-x="586" 
d="M416 221v443h142v-443q0 -120 -70.5 -182t-202.5 -62q-124 0 -193 59.5t-69 176.5v451h141v-438q0 -62 31.5 -98t87.5 -36q133 0 133 129zM360 726l-223 94l47 82l207 -121z" />
    <glyph glyph-name="Uacute" unicode="&#xda;" horiz-adv-x="586" 
d="M416 221v443h142v-443q0 -120 -70.5 -182t-202.5 -62q-124 0 -193 59.5t-69 176.5v451h141v-438q0 -62 31.5 -98t87.5 -36q133 0 133 129zM451 820l-223 -94l-31 55l207 121z" />
    <glyph glyph-name="Ucircumflex" unicode="&#xdb;" horiz-adv-x="586" 
d="M416 221v443h142v-443q0 -120 -70.5 -182t-202.5 -62q-124 0 -193 59.5t-69 176.5v451h141v-438q0 -62 31.5 -98t87.5 -36q133 0 133 129zM429 733l-135 118l-135 -118l-46 51l128 134h106l128 -134z" />
    <glyph glyph-name="Udieresis" unicode="&#xdc;" horiz-adv-x="586" 
d="M416 221v443h142v-443q0 -120 -70.5 -182t-202.5 -62q-124 0 -193 59.5t-69 176.5v451h141v-438q0 -62 31.5 -98t87.5 -36q133 0 133 129zM262 751h-130v124h130v-124zM462 751h-130v124h130v-124z" />
    <glyph glyph-name="Yacute" unicode="&#xdd;" horiz-adv-x="602" 
d="M372 0h-139v251l-230 413h162l140 -270l129 270h160l-222 -415v-249zM466 820l-223 -94l-31 55l207 121z" />
    <glyph glyph-name="Thorn" unicode="&#xde;" horiz-adv-x="534" 
d="M162 251h132q49 0 81 27.5t32 70.5q0 42 -31 69t-82 27h-132v-194zM324 137h-162v-137h-139v664h139v-103h167q87 0 143.5 -62.5t56.5 -152.5q0 -91 -57 -150t-148 -59z" />
    <glyph glyph-name="germandbls" unicode="&#xdf;" horiz-adv-x="510" 
d="M218 -9v105q18 -2 28 -2q56 0 89.5 31.5t33.5 80.5q0 63 -37 90t-106 29v82q58 2 80 23.5t22 60.5q0 44 -24 64t-63 20q-38 0 -62.5 -21.5t-24.5 -62.5v-491h-128v498q0 83 56 132t164 49q106 0 159.5 -47t53.5 -127q0 -51 -17.5 -77t-49.5 -47q59 -27 82 -68.5t23 -99.5
q0 -105 -60 -165.5t-162 -60.5q-38 0 -57 4z" />
    <glyph glyph-name="agrave" unicode="&#xe0;" horiz-adv-x="486" 
d="M324 187l1 54q-16 -16 -84 -29q-55 -10 -76.5 -27.5t-21.5 -49.5q0 -55 63 -55q50 0 83.5 31.5t34.5 75.5zM455 0h-121q-6 19 -8 44q-52 -57 -149 -57q-81 0 -122.5 36.5t-41.5 98.5q0 41 12 71t28.5 47t50.5 29t60 17t75 12q48 7 65.5 18.5t17.5 37.5q0 24 -22.5 37.5
t-60.5 13.5q-79 0 -89 -73h-121q3 173 216 173q113 0 161.5 -48.5t48.5 -145.5v-311zM310 554l-223 94l47 82l207 -121z" />
    <glyph glyph-name="aacute" unicode="&#xe1;" horiz-adv-x="486" 
d="M324 187l1 54q-16 -16 -84 -29q-55 -10 -76.5 -27.5t-21.5 -49.5q0 -55 63 -55q50 0 83.5 31.5t34.5 75.5zM455 0h-121q-6 19 -8 44q-52 -57 -149 -57q-81 0 -122.5 36.5t-41.5 98.5q0 41 12 71t28.5 47t50.5 29t60 17t75 12q48 7 65.5 18.5t17.5 37.5q0 24 -22.5 37.5
t-60.5 13.5q-79 0 -89 -73h-121q3 173 216 173q113 0 161.5 -48.5t48.5 -145.5v-311zM401 648l-223 -94l-31 55l207 121z" />
    <glyph glyph-name="acircumflex" unicode="&#xe2;" horiz-adv-x="486" 
d="M324 187l1 54q-16 -16 -84 -29q-55 -10 -76.5 -27.5t-21.5 -49.5q0 -55 63 -55q50 0 83.5 31.5t34.5 75.5zM455 0h-121q-6 19 -8 44q-52 -57 -149 -57q-81 0 -122.5 36.5t-41.5 98.5q0 41 12 71t28.5 47t50.5 29t60 17t75 12q48 7 65.5 18.5t17.5 37.5q0 24 -22.5 37.5
t-60.5 13.5q-79 0 -89 -73h-121q3 173 216 173q113 0 161.5 -48.5t48.5 -145.5v-311zM379 561l-135 118l-135 -118l-46 51l128 134h106l128 -134z" />
    <glyph glyph-name="atilde" unicode="&#xe3;" horiz-adv-x="486" 
d="M324 187l1 54q-16 -16 -84 -29q-55 -10 -76.5 -27.5t-21.5 -49.5q0 -55 63 -55q50 0 83.5 31.5t34.5 75.5zM455 0h-121q-6 19 -8 44q-52 -57 -149 -57q-81 0 -122.5 36.5t-41.5 98.5q0 41 12 71t28.5 47t50.5 29t60 17t75 12q48 7 65.5 18.5t17.5 37.5q0 24 -22.5 37.5
t-60.5 13.5q-79 0 -89 -73h-121q3 173 216 173q113 0 161.5 -48.5t48.5 -145.5v-311zM342 701l75 -27q-30 -98 -109 -98q-26 0 -67 22.5t-61 22.5q-5 0 -11 -3t-14 -13.5t-14 -27.5l-69 37q28 88 97 88q33 0 75 -24t58 -24q11 0 23.5 11.5t16.5 35.5z" />
    <glyph glyph-name="adieresis" unicode="&#xe4;" horiz-adv-x="486" 
d="M324 187l1 54q-16 -16 -84 -29q-55 -10 -76.5 -27.5t-21.5 -49.5q0 -55 63 -55q50 0 83.5 31.5t34.5 75.5zM455 0h-121q-6 19 -8 44q-52 -57 -149 -57q-81 0 -122.5 36.5t-41.5 98.5q0 41 12 71t28.5 47t50.5 29t60 17t75 12q48 7 65.5 18.5t17.5 37.5q0 24 -22.5 37.5
t-60.5 13.5q-79 0 -89 -73h-121q3 173 216 173q113 0 161.5 -48.5t48.5 -145.5v-311zM220 579h-130v124h130v-124zM420 579h-130v124h130v-124z" />
    <glyph glyph-name="aring" unicode="&#xe5;" horiz-adv-x="486" 
d="M324 187l1 54q-16 -16 -84 -29q-55 -10 -76.5 -27.5t-21.5 -49.5q0 -55 63 -55q50 0 83.5 31.5t34.5 75.5zM455 0h-121q-6 19 -8 44q-52 -57 -149 -57q-81 0 -122.5 36.5t-41.5 98.5q0 41 12 71t28.5 47t50.5 29t60 17t75 12q48 7 65.5 18.5t17.5 37.5q0 24 -22.5 37.5
t-60.5 13.5q-79 0 -89 -73h-121q3 173 216 173q113 0 161.5 -48.5t48.5 -145.5v-311zM348 650q0 -96 -104 -96t-104 96t104 96t104 -96zM296 650q0 51 -52 51q-50 0 -50 -51q0 -49 50 -49q52 0 52 49z" />
    <glyph glyph-name="ae" unicode="&#xe6;" horiz-adv-x="813" 
d="M794 212h-339q3 -56 32.5 -89t77.5 -33q32 0 56.5 15t31.5 40h134q-22 -75 -79.5 -116.5t-136.5 -41.5q-133 0 -198 83q-72 -83 -196 -83q-81 0 -122.5 36.5t-41.5 98.5q0 41 12 71t28.5 47t50.5 29t60 17t75 12q48 7 65.5 18.5t17.5 37.5q0 24 -22.5 37.5t-60.5 13.5
q-79 0 -89 -73h-121q3 173 216 173q112 0 162 -50q63 50 156 50q231 0 231 -293zM324 187l1 54q-16 -16 -84 -29q-55 -10 -76.5 -27.5t-21.5 -49.5q0 -55 63 -55q50 0 83.5 31.5t34.5 75.5zM459 294h201q-1 52 -30.5 80t-70.5 28q-40 0 -68 -29t-32 -79z" />
    <glyph glyph-name="ccedilla" unicode="&#xe7;" horiz-adv-x="481" 
d="M338 178h131q-10 -85 -73 -138t-153 -53q-104 0 -165 68t-61 197q0 128 61 190.5t169 62.5q96 0 156.5 -51t66.5 -138h-131q-5 38 -30.5 59.5t-62.5 21.5q-100 0 -100 -142q0 -76 27.5 -117.5t68.5 -41.5q39 0 65.5 21.5t30.5 60.5zM197 -233v43q62 5 64 65h-64v82h115
v-54q0 -126 -115 -136z" />
    <glyph glyph-name="egrave" unicode="&#xe8;" 
d="M149 294h201q-1 52 -30.5 80t-70.5 28q-40 0 -68 -29t-32 -79zM484 212h-339q3 -56 32.5 -89t77.5 -33q32 0 56.5 15t31.5 40h134q-22 -75 -79.5 -116.5t-136.5 -41.5q-246 0 -246 268q0 115 63 182.5t175 67.5q231 0 231 -293zM318 554l-223 94l47 82l207 -121z" />
    <glyph glyph-name="egrave" unicode="&#x450;" 
d="M149 294h201q-1 52 -30.5 80t-70.5 28q-40 0 -68 -29t-32 -79zM484 212h-339q3 -56 32.5 -89t77.5 -33q32 0 56.5 15t31.5 40h134q-22 -75 -79.5 -116.5t-136.5 -41.5q-246 0 -246 268q0 115 63 182.5t175 67.5q231 0 231 -293zM318 554l-223 94l47 82l207 -121z" />
    <glyph glyph-name="eacute" unicode="&#xe9;" 
d="M149 294h201q-1 52 -30.5 80t-70.5 28q-40 0 -68 -29t-32 -79zM484 212h-339q3 -56 32.5 -89t77.5 -33q32 0 56.5 15t31.5 40h134q-22 -75 -79.5 -116.5t-136.5 -41.5q-246 0 -246 268q0 115 63 182.5t175 67.5q231 0 231 -293zM409 648l-223 -94l-31 55l207 121z" />
    <glyph glyph-name="ecircumflex" unicode="&#xea;" 
d="M149 294h201q-1 52 -30.5 80t-70.5 28q-40 0 -68 -29t-32 -79zM484 212h-339q3 -56 32.5 -89t77.5 -33q32 0 56.5 15t31.5 40h134q-22 -75 -79.5 -116.5t-136.5 -41.5q-246 0 -246 268q0 115 63 182.5t175 67.5q231 0 231 -293zM388 561l-135 118l-135 -118l-46 51
l128 134h106l128 -134z" />
    <glyph glyph-name="edieresis" unicode="&#xeb;" 
d="M149 294h201q-1 52 -30.5 80t-70.5 28q-40 0 -68 -29t-32 -79zM484 212h-339q3 -56 32.5 -89t77.5 -33q32 0 56.5 15t31.5 40h134q-22 -75 -79.5 -116.5t-136.5 -41.5q-246 0 -246 268q0 115 63 182.5t175 67.5q231 0 231 -293zM221 579h-130v124h130v-124zM421 579h-130
v124h130v-124z" />
    <glyph glyph-name="edieresis" unicode="&#x451;" 
d="M149 294h201q-1 52 -30.5 80t-70.5 28q-40 0 -68 -29t-32 -79zM484 212h-339q3 -56 32.5 -89t77.5 -33q32 0 56.5 15t31.5 40h134q-22 -75 -79.5 -116.5t-136.5 -41.5q-246 0 -246 268q0 115 63 182.5t175 67.5q231 0 231 -293zM221 579h-130v124h130v-124zM421 579h-130
v124h130v-124z" />
    <glyph glyph-name="igrave" unicode="&#xec;" horiz-adv-x="272" 
d="M203 554l-223 94l47 82l207 -121zM199 0h-130v492h130v-492z" />
    <glyph glyph-name="iacute" unicode="&#xed;" horiz-adv-x="272" 
d="M294 648l-223 -94l-31 55l207 121zM199 0h-130v492h130v-492z" />
    <glyph glyph-name="icircumflex" unicode="&#xee;" horiz-adv-x="272" 
d="M199 0h-130v492h130v-492zM272 561l-135 118l-135 -118l-46 51l128 134h106l128 -134z" />
    <glyph glyph-name="idieresis" unicode="&#xef;" horiz-adv-x="272" 
d="M106 579h-130v124h130v-124zM306 579h-130v124h130v-124zM199 0h-130v492h130v-492z" />
    <glyph glyph-name="idieresis" unicode="&#x457;" horiz-adv-x="272" 
d="M106 579h-130v124h130v-124zM306 579h-130v124h130v-124zM199 0h-130v492h130v-492z" />
    <glyph glyph-name="eth" unicode="&#xf0;" horiz-adv-x="519" 
d="M464 651l-62 -36q90 -111 90 -331q0 -82 -20 -142t-54 -92.5t-72.5 -47.5t-81.5 -15q-127 0 -188 69.5t-61 184.5q0 109 57 175.5t159 66.5q46 0 77 -10t55 -45q-7 70 -51 135l-83 -48l-18 28l81 47q-42 50 -95 82h139q21 -13 42 -32l68 39zM258 95q50 0 80.5 34.5
t30.5 94.5q0 71 -28 109.5t-82 38.5t-82.5 -37t-28.5 -103q0 -65 30 -101t80 -36z" />
    <glyph glyph-name="ntilde" unicode="&#xf1;" 
d="M472 0h-131v298q0 56 -18.5 76.5t-65.5 20.5q-101 0 -101 -113v-282h-130v492h124v-72q46 85 159 85q73 0 118 -43t45 -121v-341zM360 701l75 -27q-30 -98 -109 -98q-26 0 -67 22.5t-61 22.5q-5 0 -11 -3t-14 -13.5t-14 -27.5l-69 37q28 88 97 88q33 0 75 -24t58 -24
q11 0 23.5 11.5t16.5 35.5z" />
    <glyph glyph-name="ograve" unicode="&#xf2;" horiz-adv-x="539" 
d="M268 96q119 0 119 150q0 149 -119 149t-119 -149q0 -150 119 -150zM268 -13q-118 0 -185.5 71t-67.5 188q0 118 68.5 188.5t184.5 70.5q115 0 182.5 -70.5t67.5 -188.5q0 -117 -68 -188t-182 -71zM337 554l-223 94l47 82l207 -121z" />
    <glyph glyph-name="oacute" unicode="&#xf3;" horiz-adv-x="539" 
d="M268 96q119 0 119 150q0 149 -119 149t-119 -149q0 -150 119 -150zM268 -13q-118 0 -185.5 71t-67.5 188q0 118 68.5 188.5t184.5 70.5q115 0 182.5 -70.5t67.5 -188.5q0 -117 -68 -188t-182 -71zM428 648l-223 -94l-31 55l207 121z" />
    <glyph glyph-name="ocircumflex" unicode="&#xf4;" horiz-adv-x="539" 
d="M268 96q119 0 119 150q0 149 -119 149t-119 -149q0 -150 119 -150zM268 -13q-118 0 -185.5 71t-67.5 188q0 118 68.5 188.5t184.5 70.5q115 0 182.5 -70.5t67.5 -188.5q0 -117 -68 -188t-182 -71zM405 561l-135 118l-135 -118l-46 51l128 134h106l128 -134z" />
    <glyph glyph-name="otilde" unicode="&#xf5;" horiz-adv-x="539" 
d="M268 96q119 0 119 150q0 149 -119 149t-119 -149q0 -150 119 -150zM268 -13q-118 0 -185.5 71t-67.5 188q0 118 68.5 188.5t184.5 70.5q115 0 182.5 -70.5t67.5 -188.5q0 -117 -68 -188t-182 -71zM368 701l75 -27q-30 -98 -109 -98q-26 0 -67 22.5t-61 22.5q-5 0 -11 -3
t-14 -13.5t-14 -27.5l-69 37q28 88 97 88q33 0 75 -24t58 -24q11 0 23.5 11.5t16.5 35.5z" />
    <glyph glyph-name="odieresis" unicode="&#xf6;" horiz-adv-x="539" 
d="M268 96q119 0 119 150q0 149 -119 149t-119 -149q0 -150 119 -150zM268 -13q-118 0 -185.5 71t-67.5 188q0 118 68.5 188.5t184.5 70.5q115 0 182.5 -70.5t67.5 -188.5q0 -117 -68 -188t-182 -71zM239 579h-130v124h130v-124zM439 579h-130v124h130v-124z" />
    <glyph glyph-name="divide" unicode="&#xf7;" horiz-adv-x="523" 
d="M494 296h-471v94h471v-94zM328 490h-139v135h139v-135zM328 63h-139v135h139v-135z" />
    <glyph glyph-name="oslash" unicode="&#xf8;" horiz-adv-x="539" 
d="M165 -57l-59 26l23 52q-55 32 -84.5 90.5t-29.5 134.5q0 118 68.5 188.5t184.5 70.5q38 0 76 -10l23 50l63 -26l-23 -50q111 -67 111 -223q0 -117 -68 -188t-182 -71q-45 0 -79 10zM356 359l-120 -260q15 -3 32 -3q119 0 119 150q0 74 -31 113zM180 132l117 260
q-27 3 -29 3q-119 0 -119 -149q0 -77 31 -114z" />
    <glyph glyph-name="ugrave" unicode="&#xf9;" horiz-adv-x="500" 
d="M469 0h-123v69q-50 -82 -153 -82q-74 0 -120.5 50t-46.5 131v324h130v-304q0 -92 83 -92q48 0 74.5 31t26.5 81v284h129v-492zM317 554l-223 94l47 82l207 -121z" />
    <glyph glyph-name="uacute" unicode="&#xfa;" horiz-adv-x="500" 
d="M469 0h-123v69q-50 -82 -153 -82q-74 0 -120.5 50t-46.5 131v324h130v-304q0 -92 83 -92q48 0 74.5 31t26.5 81v284h129v-492zM408 648l-223 -94l-31 55l207 121z" />
    <glyph glyph-name="ucircumflex" unicode="&#xfb;" horiz-adv-x="500" 
d="M469 0h-123v69q-50 -82 -153 -82q-74 0 -120.5 50t-46.5 131v324h130v-304q0 -92 83 -92q48 0 74.5 31t26.5 81v284h129v-492zM386 561l-135 118l-135 -118l-46 51l128 134h106l128 -134z" />
    <glyph glyph-name="udieresis" unicode="&#xfc;" horiz-adv-x="500" 
d="M469 0h-123v69q-50 -82 -153 -82q-74 0 -120.5 50t-46.5 131v324h130v-304q0 -92 83 -92q48 0 74.5 31t26.5 81v284h129v-492zM227 579h-130v124h130v-124zM427 579h-130v124h130v-124z" />
    <glyph glyph-name="yacute" unicode="&#xfd;" horiz-adv-x="502" 
d="M339 -15v80q-13 -32 -49.5 -51t-83.5 -19q-78 0 -129 49t-51 129v319h130v-300q0 -92 83 -92q44 0 72 26t28 66v300h130v-505q0 -101 -64 -160.5t-162 -59.5q-106 0 -161.5 54.5t-55.5 151.5h121q0 -44 26 -69t76 -25q37 0 63.5 29.5t26.5 76.5zM409 648l-223 -94l-31 55
l207 121z" />
    <glyph glyph-name="thorn" unicode="&#xfe;" horiz-adv-x="523" 
d="M258 93q49 0 80 41.5t31 107.5q0 152 -112 152q-109 0 -109 -160q0 -62 31 -101.5t79 -39.5zM154 -233h-128v905h128v-241q20 39 51.5 56.5t83.5 17.5q103 0 158.5 -76t55.5 -187q0 -114 -54 -184.5t-149 -70.5q-105 0 -146 75v-295z" />
    <glyph glyph-name="ydieresis" unicode="&#xff;" horiz-adv-x="502" 
d="M339 -15v80q-13 -32 -49.5 -51t-83.5 -19q-78 0 -129 49t-51 129v319h130v-300q0 -92 83 -92q44 0 72 26t28 66v300h130v-505q0 -101 -64 -160.5t-162 -59.5q-106 0 -161.5 54.5t-55.5 151.5h121q0 -44 26 -69t76 -25q37 0 63.5 29.5t26.5 76.5zM220 579h-130v124h130
v-124zM420 579h-130v124h130v-124z" />
    <glyph glyph-name="Amacron" unicode="&#x100;" horiz-adv-x="643" 
d="M402 251l-83 264h-1l-85 -264h169zM635 0h-151l-42 137h-245l-47 -137h-147l237 664h161zM513 774h-381v91h381v-91z" />
    <glyph glyph-name="amacron" unicode="&#x101;" horiz-adv-x="486" 
d="M324 187l1 54q-16 -16 -84 -29q-55 -10 -76.5 -27.5t-21.5 -49.5q0 -55 63 -55q50 0 83.5 31.5t34.5 75.5zM455 0h-121q-6 19 -8 44q-52 -57 -149 -57q-81 0 -122.5 36.5t-41.5 98.5q0 41 12 71t28.5 47t50.5 29t60 17t75 12q48 7 65.5 18.5t17.5 37.5q0 24 -22.5 37.5
t-60.5 13.5q-79 0 -89 -73h-121q3 173 216 173q113 0 161.5 -48.5t48.5 -145.5v-311zM435 602h-381v91h381v-91z" />
    <glyph glyph-name="Abreve" unicode="&#x102;" horiz-adv-x="643" 
d="M402 251l-83 264h-1l-85 -264h169zM635 0h-151l-42 137h-245l-47 -137h-147l237 664h161zM403 918h82q0 -79 -47.5 -122.5t-114.5 -43.5t-114.5 43.5t-47.5 122.5h82q2 -41 22.5 -64t57.5 -23t57.5 23t22.5 64z" />
    <glyph glyph-name="abreve" unicode="&#x103;" horiz-adv-x="486" 
d="M324 187l1 54q-16 -16 -84 -29q-55 -10 -76.5 -27.5t-21.5 -49.5q0 -55 63 -55q50 0 83.5 31.5t34.5 75.5zM455 0h-121q-6 19 -8 44q-52 -57 -149 -57q-81 0 -122.5 36.5t-41.5 98.5q0 41 12 71t28.5 47t50.5 29t60 17t75 12q48 7 65.5 18.5t17.5 37.5q0 24 -22.5 37.5
t-60.5 13.5q-79 0 -89 -73h-121q3 173 216 173q113 0 161.5 -48.5t48.5 -145.5v-311zM324 746h82q0 -79 -47.5 -122.5t-114.5 -43.5t-114.5 43.5t-47.5 122.5h82q2 -41 22.5 -64t57.5 -23t57.5 23t22.5 64z" />
    <glyph glyph-name="Aogonek" unicode="&#x104;" horiz-adv-x="643" 
d="M635 -117v-90q-33 -26 -105 -26q-53 0 -81.5 22.5t-28.5 62.5q0 47 45.5 85t126.5 63h-108l-42 137h-245l-47 -137h-147l237 664h161l234 -664q-72 -32 -92.5 -50.5t-20.5 -41.5q0 -33 64 -33q25 0 49 8zM402 251l-83 264h-1l-85 -264h169z" />
    <glyph glyph-name="aogonek" unicode="&#x105;" horiz-adv-x="486" 
d="M455 -117v-90q-33 -26 -105 -26q-53 0 -81.5 22.5t-28.5 62.5q0 47 45.5 85t126.5 63h-78q-6 19 -8 44q-52 -57 -149 -57q-81 0 -122.5 36.5t-41.5 98.5q0 41 12 71t28.5 47t50.5 29t60 17t75 12q48 7 65.5 18.5t17.5 37.5q0 24 -22.5 37.5t-60.5 13.5q-79 0 -89 -73
h-121q3 173 216 173q113 0 161.5 -48.5t48.5 -145.5v-311q-72 -32 -92.5 -50.5t-20.5 -41.5q0 -33 64 -33q25 0 49 8zM324 187l1 54q-16 -16 -84 -29q-55 -10 -76.5 -27.5t-21.5 -49.5q0 -55 63 -55q50 0 83.5 31.5t34.5 75.5z" />
    <glyph glyph-name="Cacute" unicode="&#x106;" horiz-adv-x="613" 
d="M469 228h139q-21 -115 -96.5 -183t-189.5 -68q-136 0 -221.5 90.5t-85.5 256.5q0 168 83 265t226 97q121 0 197.5 -68t86.5 -172h-139q-14 55 -54 87.5t-90 32.5q-84 0 -126.5 -61.5t-42.5 -172.5q0 -112 41 -173t121 -61q121 0 151 130zM464 820l-223 -94l-31 55
l207 121z" />
    <glyph glyph-name="cacute" unicode="&#x107;" horiz-adv-x="481" 
d="M338 178h131q-10 -85 -73 -138t-153 -53q-104 0 -165 68t-61 197q0 128 61 190.5t169 62.5q96 0 156.5 -51t66.5 -138h-131q-5 38 -30.5 59.5t-62.5 21.5q-100 0 -100 -142q0 -76 27.5 -117.5t68.5 -41.5q39 0 65.5 21.5t30.5 60.5zM398 648l-223 -94l-31 55l207 121z
" />
    <glyph glyph-name="Cdotaccent" unicode="&#x10a;" horiz-adv-x="613" 
d="M469 228h139q-21 -115 -96.5 -183t-189.5 -68q-136 0 -221.5 90.5t-85.5 256.5q0 168 83 265t226 97q121 0 197.5 -68t86.5 -172h-139q-14 55 -54 87.5t-90 32.5q-84 0 -126.5 -61.5t-42.5 -172.5q0 -112 41 -173t121 -61q121 0 151 130zM391 751h-130v124h130v-124z" />
    <glyph glyph-name="cdotaccent" unicode="&#x10b;" horiz-adv-x="481" 
d="M338 178h131q-10 -85 -73 -138t-153 -53q-104 0 -165 68t-61 197q0 128 61 190.5t169 62.5q96 0 156.5 -51t66.5 -138h-131q-5 38 -30.5 59.5t-62.5 21.5q-100 0 -100 -142q0 -76 27.5 -117.5t68.5 -41.5q39 0 65.5 21.5t30.5 60.5zM317 579h-130v124h130v-124z" />
    <glyph glyph-name="Ccaron" unicode="&#x10c;" horiz-adv-x="613" 
d="M469 228h139q-21 -115 -96.5 -183t-189.5 -68q-136 0 -221.5 90.5t-85.5 256.5q0 168 83 265t226 97q121 0 197.5 -68t86.5 -172h-139q-14 55 -54 87.5t-90 32.5q-84 0 -126.5 -61.5t-42.5 -172.5q0 -112 41 -173t121 -61q121 0 151 130zM371 733h-106l-128 134l46 51
l135 -118l135 118l46 -51z" />
    <glyph glyph-name="ccaron" unicode="&#x10d;" horiz-adv-x="481" 
d="M338 178h131q-10 -85 -73 -138t-153 -53q-104 0 -165 68t-61 197q0 128 61 190.5t169 62.5q96 0 156.5 -51t66.5 -138h-131q-5 38 -30.5 59.5t-62.5 21.5q-100 0 -100 -142q0 -76 27.5 -117.5t68.5 -41.5q39 0 65.5 21.5t30.5 60.5zM297 561h-106l-128 134l46 51
l135 -118l135 118l46 -51z" />
    <glyph glyph-name="Dcaron" unicode="&#x10e;" horiz-adv-x="607" 
d="M158 113h115q90 0 131.5 56t41.5 170q0 113 -42.5 161.5t-142.5 48.5h-103v-436zM301 0h-278v664h257q137 0 222.5 -88t85.5 -237q0 -152 -79 -245.5t-208 -93.5zM320 733h-106l-128 134l46 51l135 -118l135 118l46 -51z" />
    <glyph glyph-name="dcaron" unicode="&#x10f;" horiz-adv-x="654" 
d="M259 93q47 0 78.5 39.5t31.5 101.5q0 160 -109 160q-112 0 -112 -152q0 -66 31 -107.5t80 -41.5zM492 0h-125l-1 60q-45 -73 -137 -73q-95 0 -154 71t-59 193q0 114 54 184t148 70q91 0 146 -77v244h128v-672zM519 400v50q76 19 77 106h-77v135h138v-102
q0 -86 -30.5 -129.5t-107.5 -59.5z" />
    <glyph glyph-name="dcroat" unicode="&#x111;" horiz-adv-x="523" 
d="M493 0h-121l-2 81q-18 -48 -56.5 -71t-81.5 -23q-95 0 -154 71t-59 193q0 114 54 184t148 70q116 0 147 -95v125h-162v84h162v53h125v-53h29v-84h-29v-535zM258 90q53 0 84 38.5t31 115.5q0 73 -30 112.5t-85 39.5q-111 0 -111 -152q0 -78 29.5 -116t81.5 -38z" />
    <glyph glyph-name="Emacron" unicode="&#x112;" horiz-adv-x="532" 
d="M527 0h-504v664h488v-116h-353v-142h325v-117h-325v-171h369v-118zM457 774h-381v91h381v-91z" />
    <glyph glyph-name="emacron" unicode="&#x113;" 
d="M149 294h201q-1 52 -30.5 80t-70.5 28q-40 0 -68 -29t-32 -79zM484 212h-339q3 -56 32.5 -89t77.5 -33q32 0 56.5 15t31.5 40h134q-22 -75 -79.5 -116.5t-136.5 -41.5q-246 0 -246 268q0 115 63 182.5t175 67.5q231 0 231 -293zM443 602h-381v91h381v-91z" />
    <glyph glyph-name="Ebreve" unicode="&#x114;" horiz-adv-x="532" 
d="M527 0h-504v664h488v-116h-353v-142h325v-117h-325v-171h369v-118zM356 918h82q0 -79 -47.5 -122.5t-114.5 -43.5t-114.5 43.5t-47.5 122.5h82q2 -41 22.5 -64t57.5 -23t57.5 23t22.5 64z" />
    <glyph glyph-name="ebreve" unicode="&#x115;" 
d="M149 294h201q-1 52 -30.5 80t-70.5 28q-40 0 -68 -29t-32 -79zM484 212h-339q3 -56 32.5 -89t77.5 -33q32 0 56.5 15t31.5 40h134q-22 -75 -79.5 -116.5t-136.5 -41.5q-246 0 -246 268q0 115 63 182.5t175 67.5q231 0 231 -293zM332 746h82q0 -79 -47.5 -122.5
t-114.5 -43.5t-114.5 43.5t-47.5 122.5h82q2 -41 22.5 -64t57.5 -23t57.5 23t22.5 64z" />
    <glyph glyph-name="Edotaccent" unicode="&#x116;" horiz-adv-x="532" 
d="M527 0h-504v664h488v-116h-353v-142h325v-117h-325v-171h369v-118zM343 751h-130v124h130v-124z" />
    <glyph glyph-name="edotaccent" unicode="&#x117;" 
d="M149 294h201q-1 52 -30.5 80t-70.5 28q-40 0 -68 -29t-32 -79zM484 212h-339q3 -56 32.5 -89t77.5 -33q32 0 56.5 15t31.5 40h134q-22 -75 -79.5 -116.5t-136.5 -41.5q-246 0 -246 268q0 115 63 182.5t175 67.5q231 0 231 -293zM321 579h-130v124h130v-124z" />
    <glyph glyph-name="Eogonek" unicode="&#x118;" horiz-adv-x="532" 
d="M527 -117v-90q-33 -26 -105 -26q-53 0 -81.5 22.5t-28.5 62.5q0 47 45.5 85t126.5 63h-461v664h488v-116h-353v-142h325v-117h-325v-171h369v-118q-72 -32 -92.5 -50.5t-20.5 -41.5q0 -33 64 -33q25 0 49 8z" />
    <glyph glyph-name="eogonek" unicode="&#x119;" 
d="M343 -117v-90q-33 -26 -105 -26q-53 0 -81.5 22.5t-28.5 62.5q0 83 134 135h-1q-246 0 -246 268q0 115 63 182.5t175 67.5q231 0 231 -293h-339q3 -56 32.5 -89t77.5 -33q32 0 56.5 15t31.5 40h134q-33 -110 -134 -145q-72 -32 -92.5 -50.5t-20.5 -41.5q0 -33 64 -33
q25 0 49 8zM149 294h201q-1 52 -30.5 80t-70.5 28q-40 0 -68 -29t-32 -79z" />
    <glyph glyph-name="Ecaron" unicode="&#x11a;" horiz-adv-x="532" 
d="M527 0h-504v664h488v-116h-353v-142h325v-117h-325v-171h369v-118zM320 733h-106l-128 134l46 51l135 -118l135 118l46 -51z" />
    <glyph glyph-name="ecaron" unicode="&#x11b;" 
d="M149 294h201q-1 52 -30.5 80t-70.5 28q-40 0 -68 -29t-32 -79zM484 212h-339q3 -56 32.5 -89t77.5 -33q32 0 56.5 15t31.5 40h134q-22 -75 -79.5 -116.5t-136.5 -41.5q-246 0 -246 268q0 115 63 182.5t175 67.5q231 0 231 -293zM306 561h-106l-128 134l46 51l135 -118
l135 118l46 -51z" />
    <glyph glyph-name="Gbreve" unicode="&#x11e;" horiz-adv-x="658" 
d="M633 0h-115l-3 66q-24 -42 -77 -65.5t-122 -23.5q-133 0 -217 105.5t-84 250.5q0 154 86 253.5t241 99.5q119 0 201 -64t89 -163h-140q-5 46 -49 79t-101 33q-85 0 -135 -64t-50 -180q0 -58 18.5 -109t61.5 -87.5t104 -36.5q68 0 115 44.5t47 107.5h-147v111h277v-357z
M418 918h82q0 -79 -47.5 -122.5t-114.5 -43.5t-114.5 43.5t-47.5 122.5h82q2 -41 22.5 -64t57.5 -23t57.5 23t22.5 64z" />
    <glyph glyph-name="gbreve" unicode="&#x11f;" horiz-adv-x="530" 
d="M262 98q48 0 79.5 37.5t31.5 98.5q0 158 -111 158t-111 -150q0 -65 31 -104.5t80 -39.5zM369 -15v81q-13 -33 -49.5 -51.5t-85.5 -18.5q-113 0 -165.5 72.5t-52.5 180.5q0 113 62 184.5t153 71.5q92 0 138 -74v61h130v-497q0 -107 -69 -167.5t-176 -60.5
q-105 0 -171.5 56t-66.5 150h121q0 -44 29.5 -69t78.5 -25q53 0 88.5 29t35.5 77zM344 746h82q0 -79 -47.5 -122.5t-114.5 -43.5t-114.5 43.5t-47.5 122.5h82q2 -41 22.5 -64t57.5 -23t57.5 23t22.5 64z" />
    <glyph glyph-name="Gdotaccent" unicode="&#x120;" horiz-adv-x="658" 
d="M633 0h-115l-3 66q-24 -42 -77 -65.5t-122 -23.5q-133 0 -217 105.5t-84 250.5q0 154 86 253.5t241 99.5q119 0 201 -64t89 -163h-140q-5 46 -49 79t-101 33q-85 0 -135 -64t-50 -180q0 -58 18.5 -109t61.5 -87.5t104 -36.5q68 0 115 44.5t47 107.5h-147v111h277v-357z
M412 751h-130v124h130v-124z" />
    <glyph glyph-name="gdotaccent" unicode="&#x121;" horiz-adv-x="530" 
d="M262 98q48 0 79.5 37.5t31.5 98.5q0 158 -111 158t-111 -150q0 -65 31 -104.5t80 -39.5zM369 -15v81q-13 -33 -49.5 -51.5t-85.5 -18.5q-113 0 -165.5 72.5t-52.5 180.5q0 113 62 184.5t153 71.5q92 0 138 -74v61h130v-497q0 -107 -69 -167.5t-176 -60.5
q-105 0 -171.5 56t-66.5 150h121q0 -44 29.5 -69t78.5 -25q53 0 88.5 29t35.5 77zM325 579h-130v124h130v-124z" />
    <glyph glyph-name="Gcommaaccent" unicode="&#x122;" horiz-adv-x="658" 
d="M633 0h-115l-3 66q-24 -42 -77 -65.5t-122 -23.5q-133 0 -217 105.5t-84 250.5q0 154 86 253.5t241 99.5q119 0 201 -64t89 -163h-140q-5 46 -49 79t-101 33q-85 0 -135 -64t-50 -180q0 -58 18.5 -109t61.5 -87.5t104 -36.5q68 0 115 44.5t47 107.5h-147v111h277v-357z
M275 -233v43q62 5 64 65h-64v82h115v-54q0 -126 -115 -136z" />
    <glyph glyph-name="gcommaaccent" unicode="&#x123;" horiz-adv-x="530" 
d="M262 98q48 0 79.5 37.5t31.5 98.5q0 158 -111 158t-111 -150q0 -65 31 -104.5t80 -39.5zM369 -15v81q-13 -33 -49.5 -51.5t-85.5 -18.5q-113 0 -165.5 72.5t-52.5 180.5q0 113 62 184.5t153 71.5q92 0 138 -74v61h130v-497q0 -107 -69 -167.5t-176 -60.5
q-105 0 -171.5 56t-66.5 150h121q0 -44 29.5 -69t78.5 -25q53 0 88.5 29t35.5 77zM318 742v-43q-62 -5 -64 -65h64v-82h-115v54q0 126 115 136z" />
    <glyph glyph-name="Hbar" unicode="&#x126;" horiz-adv-x="587" 
d="M561 0h-140v298h-259v-298h-139v664h139v-80h259v80h140v-664zM162 414h259v79h-259v-79z" />
    <glyph glyph-name="hbar" unicode="&#x127;" 
d="M321 538h-165v-110q14 33 55 55t90 22q77 0 124 -42t47 -115v-348h-131v305q0 54 -19.5 75.5t-64.5 21.5q-47 0 -74 -34t-27 -86v-282h-130v538h-26v91h26v43h130v-43h165v-91z" />
    <glyph glyph-name="hbar" unicode="&#x45b;" 
d="M321 538h-165v-110q14 33 55 55t90 22q77 0 124 -42t47 -115v-348h-131v305q0 54 -19.5 75.5t-64.5 21.5q-47 0 -74 -34t-27 -86v-282h-130v538h-26v91h26v43h130v-43h165v-91z" />
    <glyph glyph-name="Itilde" unicode="&#x128;" horiz-adv-x="187" 
d="M162 0h-139v664h139v-664zM192 873l75 -27q-30 -98 -109 -98q-26 0 -67 22.5t-61 22.5q-5 0 -11 -3t-14 -13.5t-14 -27.5l-69 37q28 88 97 88q33 0 75 -24t58 -24q11 0 23.5 11.5t16.5 35.5z" />
    <glyph glyph-name="itilde" unicode="&#x129;" horiz-adv-x="272" 
d="M235 701l75 -27q-30 -98 -109 -98q-27 0 -67 22.5t-61 22.5q-5 0 -11 -3t-14 -13.5t-14 -27.5l-69 37q28 88 97 88q33 0 75 -24t58 -24q11 0 23.5 11.5t16.5 35.5zM199 0h-130v492h130v-492z" />
    <glyph glyph-name="Imacron" unicode="&#x12a;" horiz-adv-x="187" 
d="M162 0h-139v664h139v-664zM286 774h-381v91h381v-91z" />
    <glyph glyph-name="imacron" unicode="&#x12b;" horiz-adv-x="272" 
d="M328 602h-381v91h381v-91zM199 0h-130v492h130v-492z" />
    <glyph glyph-name="Ibreve" unicode="&#x12c;" horiz-adv-x="187" 
d="M162 0h-139v664h139v-664zM175 918h82q0 -79 -47.5 -122.5t-114.5 -43.5t-114.5 43.5t-47.5 122.5h82q2 -41 22.5 -64t57.5 -23t57.5 23t22.5 64z" />
    <glyph glyph-name="ibreve" unicode="&#x12d;" horiz-adv-x="272" 
d="M217 746h82q0 -79 -47.5 -122.5t-114.5 -43.5t-114.5 43.5t-47.5 122.5h82q2 -41 22.5 -64t57.5 -23t57.5 23t22.5 64zM199 0h-130v492h130v-492z" />
    <glyph glyph-name="Iogonek" unicode="&#x12e;" horiz-adv-x="187" 
d="M162 -117v-90q-33 -26 -105 -26q-53 0 -81.5 22.5t-28.5 62.5q0 47 45.5 85t126.5 63h-96v664h139v-664q-72 -32 -92.5 -50.5t-20.5 -41.5q0 -33 64 -33q25 0 49 8z" />
    <glyph glyph-name="iogonek" unicode="&#x12f;" horiz-adv-x="192" 
d="M159 -117v-90q-33 -26 -105 -26q-53 0 -81.5 22.5t-28.5 62.5q0 47 45.5 85t126.5 63h-87v492h130v-492q-72 -32 -92.5 -50.5t-20.5 -41.5q0 -33 64 -33q25 0 49 8zM159 551h-130v121h130v-121z" />
    <glyph glyph-name="Idotaccent" unicode="&#x130;" horiz-adv-x="187" 
d="M162 0h-139v664h139v-664zM164 751h-130v124h130v-124z" />
    <glyph glyph-name="dotlessi" unicode="&#x131;" horiz-adv-x="192" 
d="M159 0h-130v492h130v-492z" />
    <glyph glyph-name="IJ" unicode="&#x132;" horiz-adv-x="641" 
d="M162 0h-139v664h139v-664zM475 192v472h139v-485q0 -93 -56.5 -147.5t-161.5 -54.5q-97 0 -151 52.5t-54 153.5v68h126v-61q0 -51 18.5 -75.5t60.5 -24.5q47 0 63 22.5t16 79.5z" />
    <glyph glyph-name="ij" unicode="&#x133;" horiz-adv-x="389" 
d="M159 0h-130v492h130v-492zM159 551h-130v121h130v-121zM220 -28v520h131v-525q0 -88 -55.5 -144t-138.5 -56q-99 0 -148.5 54t-49.5 152h122q0 -91 69 -91q70 0 70 90zM351 551h-131v121h131v-121z" />
    <glyph glyph-name="Kcommaaccent" unicode="&#x136;" horiz-adv-x="604" 
d="M600 0h-169l-197 299l-74 -73v-226h-137v664h137v-270l254 270h180l-262 -262zM257 -233v43q62 5 64 65h-64v82h115v-54q0 -126 -115 -136z" />
    <glyph glyph-name="kcommaaccent" unicode="&#x137;" horiz-adv-x="483" 
d="M474 0h-146l-108 221l-63 -65v-156h-131v672h131v-367l162 187h159l-165 -181zM188 -233v43q62 5 64 65h-64v82h115v-54q0 -126 -115 -136z" />
    <glyph glyph-name="Lacute" unicode="&#x139;" horiz-adv-x="501" 
d="M491 0h-468v664h139v-543h329v-121zM259 820l-223 -94l-31 55l207 121z" />
    <glyph glyph-name="lacute" unicode="&#x13a;" horiz-adv-x="185" 
d="M156 0h-130v672h130v-672zM251 820l-223 -94l-31 55l207 121z" />
    <glyph glyph-name="Lcommaaccent" unicode="&#x13b;" horiz-adv-x="501" 
d="M491 0h-468v664h139v-543h329v-121zM211 -233v43q62 5 64 65h-64v82h115v-54q0 -126 -115 -136z" />
    <glyph glyph-name="lcommaaccent" unicode="&#x13c;" horiz-adv-x="185" 
d="M156 0h-130v672h130v-672zM39 -233v43q62 5 64 65h-64v82h115v-54q0 -126 -115 -136z" />
    <glyph glyph-name="Lcaron" unicode="&#x13d;" horiz-adv-x="501" 
d="M491 0h-468v664h139v-543h329v-121zM198 400v50q76 19 77 106h-77v135h138v-102q0 -86 -30.5 -129.5t-107.5 -59.5z" />
    <glyph glyph-name="lcaron" unicode="&#x13e;" horiz-adv-x="320" 
d="M156 0h-130v672h130v-672zM182 398v50q76 19 77 106h-77v135h138v-102q0 -86 -30.5 -129.5t-107.5 -59.5z" />
    <glyph glyph-name="Lslash" unicode="&#x141;" horiz-adv-x="501" 
d="M491 0h-468v664h139v-287l141 63v-89l-141 -63v-167h329v-121z" />
    <glyph glyph-name="lslash" unicode="&#x142;" horiz-adv-x="261" 
d="M192 0h-130v266l-62 -27v88l62 27v318h130v-261l63 29v-89l-63 -28v-323z" />
    <glyph glyph-name="Nacute" unicode="&#x143;" horiz-adv-x="591" 
d="M564 0h-128l-284 446v-446h-129v664h147l264 -427v427h130v-664zM453 820l-223 -94l-31 55l207 121z" />
    <glyph glyph-name="nacute" unicode="&#x144;" 
d="M472 0h-131v298q0 56 -18.5 76.5t-65.5 20.5q-101 0 -101 -113v-282h-130v492h124v-72q46 85 159 85q73 0 118 -43t45 -121v-341zM409 648l-223 -94l-31 55l207 121z" />
    <glyph glyph-name="Ncommaaccent" unicode="&#x145;" horiz-adv-x="591" 
d="M564 0h-128l-284 446v-446h-129v664h147l264 -427v427h130v-664zM249 -233v43q62 5 64 65h-64v82h115v-54q0 -126 -115 -136z" />
    <glyph glyph-name="ncommaaccent" unicode="&#x146;" 
d="M472 0h-131v298q0 56 -18.5 76.5t-65.5 20.5q-101 0 -101 -113v-282h-130v492h124v-72q46 85 159 85q73 0 118 -43t45 -121v-341zM201 -233v43q62 5 64 65h-64v82h115v-54q0 -126 -115 -136z" />
    <glyph glyph-name="Ncaron" unicode="&#x147;" horiz-adv-x="591" 
d="M564 0h-128l-284 446v-446h-129v664h147l264 -427v427h130v-664zM357 733h-106l-128 134l46 51l135 -118l135 118l46 -51z" />
    <glyph glyph-name="ncaron" unicode="&#x148;" 
d="M472 0h-131v298q0 56 -18.5 76.5t-65.5 20.5q-101 0 -101 -113v-282h-130v492h124v-72q46 85 159 85q73 0 118 -43t45 -121v-341zM324 561h-106l-128 134l46 51l135 -118l135 118l46 -51z" />
    <glyph glyph-name="Eng" unicode="&#x14a;" horiz-adv-x="591" 
d="M434 -28v31l-282 443v-446h-129v664h147l264 -427v427h130v-697q0 -88 -55.5 -144t-138.5 -56q-5 0 -12.5 0.5t-11.5 0.5v116q10 -2 17 -2q71 0 71 90z" />
    <glyph glyph-name="eng" unicode="&#x14b;" 
d="M341 -28v337q-1 49 -20 67.5t-64 18.5q-101 0 -101 -113v-282h-130v492h124v-72q46 85 159 85q73 0 118 -43t45 -121v-374q0 -88 -55.5 -144t-138.5 -56q-4 0 -11.5 0.5t-10.5 0.5v115q2 0 7 -0.5t8 -0.5q70 0 70 90z" />
    <glyph glyph-name="Omacron" unicode="&#x14c;" horiz-adv-x="670" 
d="M334 96q80 0 130 57.5t50 169.5q0 117 -46.5 178.5t-133.5 61.5q-88 0 -135 -61.5t-47 -178.5q0 -227 182 -227zM334 -23q-153 0 -236 90.5t-83 258.5q0 170 83.5 265t235.5 95t234.5 -95.5t82.5 -267.5q0 -170 -81.5 -258t-235.5 -88zM527 774h-381v91h381v-91z" />
    <glyph glyph-name="omacron" unicode="&#x14d;" horiz-adv-x="539" 
d="M268 96q119 0 119 150q0 149 -119 149t-119 -149q0 -150 119 -150zM268 -13q-118 0 -185.5 71t-67.5 188q0 118 68.5 188.5t184.5 70.5q115 0 182.5 -70.5t67.5 -188.5q0 -117 -68 -188t-182 -71zM461 602h-381v91h381v-91z" />
    <glyph glyph-name="Obreve" unicode="&#x14e;" horiz-adv-x="670" 
d="M334 96q80 0 130 57.5t50 169.5q0 117 -46.5 178.5t-133.5 61.5q-88 0 -135 -61.5t-47 -178.5q0 -227 182 -227zM334 -23q-153 0 -236 90.5t-83 258.5q0 170 83.5 265t235.5 95t234.5 -95.5t82.5 -267.5q0 -170 -81.5 -258t-235.5 -88zM416 918h82q0 -79 -47.5 -122.5
t-114.5 -43.5t-114.5 43.5t-47.5 122.5h82q2 -41 22.5 -64t57.5 -23t57.5 23t22.5 64z" />
    <glyph glyph-name="obreve" unicode="&#x14f;" horiz-adv-x="539" 
d="M268 96q119 0 119 150q0 149 -119 149t-119 -149q0 -150 119 -150zM268 -13q-118 0 -185.5 71t-67.5 188q0 118 68.5 188.5t184.5 70.5q115 0 182.5 -70.5t67.5 -188.5q0 -117 -68 -188t-182 -71zM351 746h82q0 -79 -47.5 -122.5t-114.5 -43.5t-114.5 43.5t-47.5 122.5
h82q2 -41 22.5 -64t57.5 -23t57.5 23t22.5 64z" />
    <glyph glyph-name="Ohungarumlaut" unicode="&#x150;" horiz-adv-x="670" 
d="M334 96q80 0 130 57.5t50 169.5q0 117 -46.5 178.5t-133.5 61.5q-88 0 -135 -61.5t-47 -178.5q0 -227 182 -227zM334 -23q-153 0 -236 90.5t-83 258.5q0 170 83.5 265t235.5 95t234.5 -95.5t82.5 -267.5q0 -170 -81.5 -258t-235.5 -88zM261 741l-37 33l136 147l44 -37z
M531 881l-150 -140l-37 33l142 144z" />
    <glyph glyph-name="ohungarumlaut" unicode="&#x151;" horiz-adv-x="539" 
d="M268 96q119 0 119 150q0 149 -119 149t-119 -149q0 -150 119 -150zM268 -13q-118 0 -185.5 71t-67.5 188q0 118 68.5 188.5t184.5 70.5q115 0 182.5 -70.5t67.5 -188.5q0 -117 -68 -188t-182 -71zM188 569l-37 33l136 147l44 -37zM458 709l-150 -140l-37 33l142 144z" />
    <glyph glyph-name="OE" unicode="&#x152;" horiz-adv-x="964" 
d="M1021 0h-505v24q-74 -47 -174 -47q-157 0 -242 98.5t-85 273.5q0 149 88.5 243t231.5 94q99 0 181 -55v33h488v-116h-353v-142h325v-117h-325v-171h370v-118zM345 96q75 0 122 62.5t47 161.5q0 243 -184 243q-81 0 -129.5 -62.5t-48.5 -160.5q0 -104 54 -174t139 -70z
" />
    <glyph glyph-name="oe" unicode="&#x153;" horiz-adv-x="867" 
d="M846 212h-339q3 -56 32.5 -89t77.5 -33q32 0 56.5 15t31.5 40h134q-22 -75 -79.5 -116.5t-136.5 -41.5q-120 0 -181 63q-66 -63 -174 -63q-118 0 -185.5 71t-67.5 188q0 118 68.5 188.5t184.5 70.5q108 0 175 -64q64 64 172 64q231 0 231 -293zM268 96q119 0 119 150
q0 149 -119 149t-119 -149q0 -150 119 -150zM511 294h201q-1 52 -30.5 80t-70.5 28q-40 0 -68 -29t-32 -79z" />
    <glyph glyph-name="Racute" unicode="&#x154;" horiz-adv-x="578" 
d="M337 549h-179v-177h174q102 0 102 88q0 89 -97 89zM546 0h-136v171q0 49 -22.5 69t-81.5 20h-148v-260h-135v664h337q91 0 147.5 -54t56.5 -138q0 -54 -26 -95.5t-73 -58.5q45 -14 63 -43t18 -87v-188zM447 820l-223 -94l-31 55l207 121z" />
    <glyph glyph-name="racute" unicode="&#x155;" horiz-adv-x="321" 
d="M156 0h-130v492h122v-59q29 45 63.5 58.5t82.5 13.5h17v-133q-18 3 -36 3q-119 0 -119 -119v-256zM329 648l-223 -94l-31 55l207 121z" />
    <glyph glyph-name="Rcommaaccent" unicode="&#x156;" horiz-adv-x="578" 
d="M337 549h-179v-177h174q102 0 102 88q0 89 -97 89zM546 0h-136v171q0 49 -22.5 69t-81.5 20h-148v-260h-135v664h337q91 0 147.5 -54t56.5 -138q0 -54 -26 -95.5t-73 -58.5q45 -14 63 -43t18 -87v-188zM235 -233v43q62 5 64 65h-64v82h115v-54q0 -126 -115 -136z" />
    <glyph glyph-name="rcommaaccent" unicode="&#x157;" horiz-adv-x="321" 
d="M156 0h-130v492h122v-59q29 45 63.5 58.5t82.5 13.5h17v-133q-18 3 -36 3q-119 0 -119 -119v-256zM40 -233v43q62 5 64 65h-64v82h115v-54q0 -126 -115 -136z" />
    <glyph glyph-name="Rcaron" unicode="&#x158;" horiz-adv-x="578" 
d="M337 549h-179v-177h174q102 0 102 88q0 89 -97 89zM546 0h-136v171q0 49 -22.5 69t-81.5 20h-148v-260h-135v664h337q91 0 147.5 -54t56.5 -138q0 -54 -26 -95.5t-73 -58.5q45 -14 63 -43t18 -87v-188zM325 733h-106l-128 134l46 51l135 -118l135 118l46 -51z" />
    <glyph glyph-name="rcaron" unicode="&#x159;" horiz-adv-x="321" 
d="M156 0h-130v492h122v-59q29 45 63.5 58.5t82.5 13.5h17v-133q-18 3 -36 3q-119 0 -119 -119v-256zM215 561h-106l-128 134l46 51l135 -118l135 118l46 -51z" />
    <glyph glyph-name="Sacute" unicode="&#x15a;" horiz-adv-x="563" 
d="M531 468h-132q-10 101 -132 101q-119 0 -119 -78q0 -32 24 -51.5t79 -32.5q146 -35 197 -58q49 -22 76.5 -59t27.5 -102q0 -106 -71.5 -158.5t-193.5 -52.5q-127 0 -203 56.5t-78 165.5h134q1 -51 41 -80.5t107 -29.5q61 0 95 25t34 69q0 31 -22 51t-81 33
q-133 29 -182 51q-111 50 -111 164q0 92 62.5 148t180.5 56q123 0 193 -60t74 -158zM439 820l-223 -94l-31 55l207 121z" />
    <glyph glyph-name="sacute" unicode="&#x15b;" horiz-adv-x="472" 
d="M447 343h-125q-5 36 -26 50.5t-66 14.5q-77 0 -77 -41q0 -20 18.5 -32t61.5 -24q19 -6 51.5 -14t55.5 -14.5t40 -13.5q81 -33 81 -119q0 -77 -55.5 -120t-159.5 -43q-111 0 -173 47t-64 124h134q0 -34 27.5 -53.5t74.5 -19.5q38 0 62.5 12.5t24.5 38.5q0 24 -20 35.5
t-59 20.5q-121 29 -164 56q-62 39 -62 111q0 67 50 106.5t157 39.5q105 0 156.5 -40.5t56.5 -121.5zM394 648l-223 -94l-31 55l207 121z" />
    <glyph glyph-name="Scedilla" unicode="&#x15e;" horiz-adv-x="563" 
d="M531 468h-132q-10 101 -132 101q-119 0 -119 -78q0 -32 24 -51.5t79 -32.5q146 -35 197 -58q49 -22 76.5 -59t27.5 -102q0 -106 -71.5 -158.5t-193.5 -52.5q-127 0 -203 56.5t-78 165.5h134q1 -51 41 -80.5t107 -29.5q61 0 95 25t34 69q0 31 -22 51t-81 33
q-133 29 -182 51q-111 50 -111 164q0 92 62.5 148t180.5 56q123 0 193 -60t74 -158zM228 -233v43q62 5 64 65h-64v82h115v-54q0 -126 -115 -136z" />
    <glyph glyph-name="Scedilla" unicode="&#x218;" horiz-adv-x="563" 
d="M531 468h-132q-10 101 -132 101q-119 0 -119 -78q0 -32 24 -51.5t79 -32.5q146 -35 197 -58q49 -22 76.5 -59t27.5 -102q0 -106 -71.5 -158.5t-193.5 -52.5q-127 0 -203 56.5t-78 165.5h134q1 -51 41 -80.5t107 -29.5q61 0 95 25t34 69q0 31 -22 51t-81 33
q-133 29 -182 51q-111 50 -111 164q0 92 62.5 148t180.5 56q123 0 193 -60t74 -158zM228 -233v43q62 5 64 65h-64v82h115v-54q0 -126 -115 -136z" />
    <glyph glyph-name="scedilla" unicode="&#x15f;" horiz-adv-x="472" 
d="M447 343h-125q-5 36 -26 50.5t-66 14.5q-77 0 -77 -41q0 -20 18.5 -32t61.5 -24q19 -6 51.5 -14t55.5 -14.5t40 -13.5q81 -33 81 -119q0 -77 -55.5 -120t-159.5 -43q-111 0 -173 47t-64 124h134q0 -34 27.5 -53.5t74.5 -19.5q38 0 62.5 12.5t24.5 38.5q0 24 -20 35.5
t-59 20.5q-121 29 -164 56q-62 39 -62 111q0 67 50 106.5t157 39.5q105 0 156.5 -40.5t56.5 -121.5zM193 -233v43q62 5 64 65h-64v82h115v-54q0 -126 -115 -136z" />
    <glyph glyph-name="scedilla" unicode="&#x219;" horiz-adv-x="472" 
d="M447 343h-125q-5 36 -26 50.5t-66 14.5q-77 0 -77 -41q0 -20 18.5 -32t61.5 -24q19 -6 51.5 -14t55.5 -14.5t40 -13.5q81 -33 81 -119q0 -77 -55.5 -120t-159.5 -43q-111 0 -173 47t-64 124h134q0 -34 27.5 -53.5t74.5 -19.5q38 0 62.5 12.5t24.5 38.5q0 24 -20 35.5
t-59 20.5q-121 29 -164 56q-62 39 -62 111q0 67 50 106.5t157 39.5q105 0 156.5 -40.5t56.5 -121.5zM193 -233v43q62 5 64 65h-64v82h115v-54q0 -126 -115 -136z" />
    <glyph glyph-name="Scaron" unicode="&#x160;" horiz-adv-x="563" 
d="M531 468h-132q-10 101 -132 101q-119 0 -119 -78q0 -32 24 -51.5t79 -32.5q146 -35 197 -58q49 -22 76.5 -59t27.5 -102q0 -106 -71.5 -158.5t-193.5 -52.5q-127 0 -203 56.5t-78 165.5h134q1 -51 41 -80.5t107 -29.5q61 0 95 25t34 69q0 31 -22 51t-81 33
q-133 29 -182 51q-111 50 -111 164q0 92 62.5 148t180.5 56q123 0 193 -60t74 -158zM329 733h-106l-128 134l46 51l135 -118l135 118l46 -51z" />
    <glyph glyph-name="scaron" unicode="&#x161;" horiz-adv-x="472" 
d="M447 343h-125q-5 36 -26 50.5t-66 14.5q-77 0 -77 -41q0 -20 18.5 -32t61.5 -24q19 -6 51.5 -14t55.5 -14.5t40 -13.5q81 -33 81 -119q0 -77 -55.5 -120t-159.5 -43q-111 0 -173 47t-64 124h134q0 -34 27.5 -53.5t74.5 -19.5q38 0 62.5 12.5t24.5 38.5q0 24 -20 35.5
t-59 20.5q-121 29 -164 56q-62 39 -62 111q0 67 50 106.5t157 39.5q105 0 156.5 -40.5t56.5 -121.5zM291 561h-106l-128 134l46 51l135 -118l135 118l46 -51z" />
    <glyph glyph-name="Tcommaaccent" unicode="&#x162;" horiz-adv-x="554" 
d="M343 0h-139v548h-200v116h540v-116h-201v-548zM223 -233v43q62 5 64 65h-64v82h115v-54q0 -126 -115 -136z" />
    <glyph glyph-name="Tcommaaccent" unicode="&#x21a;" horiz-adv-x="554" 
d="M343 0h-139v548h-200v116h540v-116h-201v-548zM223 -233v43q62 5 64 65h-64v82h115v-54q0 -126 -115 -136z" />
    <glyph glyph-name="tcommaaccent" unicode="&#x163;" horiz-adv-x="453" 
d="M305 196v128h121v-140q0 -84 -50.5 -140.5t-148.5 -56.5q-102 0 -151.5 56t-49.5 142v440h128v-133h272v-92h-272v-202q0 -98 75 -98q76 0 76 96zM173 -233v43q62 5 64 65h-64v82h115v-54q0 -126 -115 -136z" />
    <glyph glyph-name="tcommaaccent" unicode="&#x21b;" horiz-adv-x="453" 
d="M305 196v128h121v-140q0 -84 -50.5 -140.5t-148.5 -56.5q-102 0 -151.5 56t-49.5 142v440h128v-133h272v-92h-272v-202q0 -98 75 -98q76 0 76 96zM173 -233v43q62 5 64 65h-64v82h115v-54q0 -126 -115 -136z" />
    <glyph glyph-name="Tcaron" unicode="&#x164;" horiz-adv-x="554" 
d="M343 0h-139v548h-200v116h540v-116h-201v-548zM331 733h-106l-128 134l46 51l135 -118l135 118l46 -51z" />
    <glyph glyph-name="tcaron" unicode="&#x165;" horiz-adv-x="580" 
d="M305 196v128h121v-140q0 -84 -50.5 -140.5t-148.5 -56.5q-102 0 -151.5 56t-49.5 142v440h128v-133h272v-92h-272v-202q0 -98 75 -98q76 0 76 96zM443 400v50q76 19 77 106h-77v135h138v-102q0 -86 -30.5 -129.5t-107.5 -59.5z" />
    <glyph glyph-name="Tbar" unicode="&#x166;" horiz-adv-x="554" 
d="M343 0h-139v248h-94v101h94v199h-200v116h540v-116h-201v-199h95v-101h-95v-248z" />
    <glyph glyph-name="tbar" unicode="&#x167;" horiz-adv-x="453" 
d="M419 261h-265v-63q0 -98 75 -98q76 0 76 96v18h121v-30q0 -84 -50.5 -140.5t-148.5 -56.5q-102 0 -151.5 56t-49.5 142v440h128v-133h272v-92h-272v-52h265v-87z" />
    <glyph glyph-name="Utilde" unicode="&#x168;" horiz-adv-x="586" 
d="M416 221v443h142v-443q0 -120 -70.5 -182t-202.5 -62q-124 0 -193 59.5t-69 176.5v451h141v-438q0 -62 31.5 -98t87.5 -36q133 0 133 129zM392 873l75 -27q-30 -98 -109 -98q-26 0 -66.5 22.5t-61.5 22.5q-5 0 -11 -3t-14 -13.5t-14 -27.5l-69 37q28 88 97 88
q33 0 75 -24t58 -24q11 0 23.5 11.5t16.5 35.5z" />
    <glyph glyph-name="utilde" unicode="&#x169;" horiz-adv-x="500" 
d="M469 0h-123v69q-50 -82 -153 -82q-74 0 -120.5 50t-46.5 131v324h130v-304q0 -92 83 -92q48 0 74.5 31t26.5 81v284h129v-492zM357 701l75 -27q-30 -98 -109 -98q-27 0 -67 22.5t-61 22.5q-5 0 -11 -3t-14 -13.5t-14 -27.5l-69 37q28 88 97 88q33 0 75 -24t58 -24
q11 0 23.5 11.5t16.5 35.5z" />
    <glyph glyph-name="Umacron" unicode="&#x16a;" horiz-adv-x="586" 
d="M416 221v443h142v-443q0 -120 -70.5 -182t-202.5 -62q-124 0 -193 59.5t-69 176.5v451h141v-438q0 -62 31.5 -98t87.5 -36q133 0 133 129zM485 774h-381v91h381v-91z" />
    <glyph glyph-name="umacron" unicode="&#x16b;" horiz-adv-x="500" 
d="M469 0h-123v69q-50 -82 -153 -82q-74 0 -120.5 50t-46.5 131v324h130v-304q0 -92 83 -92q48 0 74.5 31t26.5 81v284h129v-492zM442 602h-381v91h381v-91z" />
    <glyph glyph-name="Ubreve" unicode="&#x16c;" horiz-adv-x="586" 
d="M416 221v443h142v-443q0 -120 -70.5 -182t-202.5 -62q-124 0 -193 59.5t-69 176.5v451h141v-438q0 -62 31.5 -98t87.5 -36q133 0 133 129zM374 918h82q0 -79 -47.5 -122.5t-114.5 -43.5t-114.5 43.5t-47.5 122.5h82q2 -41 22.5 -64t57.5 -23t57.5 23t22.5 64z" />
    <glyph glyph-name="ubreve" unicode="&#x16d;" horiz-adv-x="500" 
d="M469 0h-123v69q-50 -82 -153 -82q-74 0 -120.5 50t-46.5 131v324h130v-304q0 -92 83 -92q48 0 74.5 31t26.5 81v284h129v-492zM331 746h82q0 -79 -47.5 -122.5t-114.5 -43.5t-114.5 43.5t-47.5 122.5h82q2 -41 22.5 -64t57.5 -23t57.5 23t22.5 64z" />
    <glyph glyph-name="Uring" unicode="&#x16e;" horiz-adv-x="586" 
d="M416 221v443h142v-443q0 -120 -70.5 -182t-202.5 -62q-124 0 -193 59.5t-69 176.5v451h141v-438q0 -62 31.5 -98t87.5 -36q133 0 133 129zM398 822q0 -96 -104 -96t-104 96t104 96t104 -96zM346 822q0 51 -52 51q-50 0 -50 -51q0 -49 50 -49q52 0 52 49z" />
    <glyph glyph-name="uring" unicode="&#x16f;" horiz-adv-x="500" 
d="M469 0h-123v69q-50 -82 -153 -82q-74 0 -120.5 50t-46.5 131v324h130v-304q0 -92 83 -92q48 0 74.5 31t26.5 81v284h129v-492zM355 650q0 -96 -104 -96t-104 96t104 96t104 -96zM303 650q0 51 -52 51q-50 0 -50 -51q0 -49 50 -49q52 0 52 49z" />
    <glyph glyph-name="Uhungarumlaut" unicode="&#x170;" horiz-adv-x="586" 
d="M416 221v443h142v-443q0 -120 -70.5 -182t-202.5 -62q-124 0 -193 59.5t-69 176.5v451h141v-438q0 -62 31.5 -98t87.5 -36q133 0 133 129zM211 741l-37 33l136 147l44 -37zM481 881l-150 -140l-37 33l142 144z" />
    <glyph glyph-name="uhungarumlaut" unicode="&#x171;" horiz-adv-x="500" 
d="M469 0h-123v69q-50 -82 -153 -82q-74 0 -120.5 50t-46.5 131v324h130v-304q0 -92 83 -92q48 0 74.5 31t26.5 81v284h129v-492zM168 569l-37 33l136 147l44 -37zM438 709l-150 -140l-37 33l142 144z" />
    <glyph glyph-name="Uogonek" unicode="&#x172;" horiz-adv-x="586" 
d="M422 -117v-90q-33 -26 -105 -26q-53 0 -81.5 22.5t-28.5 62.5q0 75 113 127q-22 -2 -35 -2q-124 0 -193 59.5t-69 176.5v451h141v-438q0 -62 31.5 -98t87.5 -36q133 0 133 129v443h142v-443q0 -169 -139 -222q-70 -32 -90 -50t-20 -41q0 -33 64 -33q25 0 49 8z" />
    <glyph glyph-name="uogonek" unicode="&#x173;" horiz-adv-x="500" 
d="M469 -117v-90q-33 -26 -105 -26q-53 0 -81.5 22.5t-28.5 62.5q0 47 45.5 85t126.5 63h-80v69q-50 -82 -153 -82q-74 0 -120.5 50t-46.5 131v324h130v-304q0 -92 83 -92q48 0 74.5 31t26.5 81v284h129v-492q-72 -32 -92.5 -50.5t-20.5 -41.5q0 -33 64 -33q25 0 49 8z" />
    <glyph glyph-name="Wcircumflex" unicode="&#x174;" horiz-adv-x="856" 
d="M663 0h-134l-103 432l-105 -432h-130l-188 664h148l109 -430l92 430h146l101 -430l108 430h142zM564 733l-135 118l-135 -118l-46 51l128 134h106l128 -134z" />
    <glyph glyph-name="wcircumflex" unicode="&#x175;" horiz-adv-x="714" 
d="M565 0h-133l-78 286l-78 -286h-133l-140 492h137l80 -316l68 316h132l77 -316l75 316h134zM493 561l-135 118l-135 -118l-46 51l128 134h106l128 -134z" />
    <glyph glyph-name="Ycircumflex" unicode="&#x176;" horiz-adv-x="602" 
d="M372 0h-139v251l-230 413h162l140 -270l129 270h160l-222 -415v-249zM445 733l-135 118l-135 -118l-46 51l128 134h106l128 -134z" />
    <glyph glyph-name="ycircumflex" unicode="&#x177;" horiz-adv-x="502" 
d="M339 -15v80q-13 -32 -49.5 -51t-83.5 -19q-78 0 -129 49t-51 129v319h130v-300q0 -92 83 -92q44 0 72 26t28 66v300h130v-505q0 -101 -64 -160.5t-162 -59.5q-106 0 -161.5 54.5t-55.5 151.5h121q0 -44 26 -69t76 -25q37 0 63.5 29.5t26.5 76.5zM387 561l-135 118
l-135 -118l-46 51l128 134h106l128 -134z" />
    <glyph glyph-name="Ydieresis" unicode="&#x178;" horiz-adv-x="602" 
d="M372 0h-139v251l-230 413h162l140 -270l129 270h160l-222 -415v-249zM270 751h-130v124h130v-124zM470 751h-130v124h130v-124z" />
    <glyph glyph-name="Ydieresis" unicode="&#x3ab;" horiz-adv-x="602" 
d="M372 0h-139v251l-230 413h162l140 -270l129 270h160l-222 -415v-249zM270 751h-130v124h130v-124zM470 751h-130v124h130v-124z" />
    <glyph glyph-name="Zacute" unicode="&#x179;" horiz-adv-x="532" 
d="M523 0h-519v118l345 430h-335v116h509v-109l-347 -437h347v-118zM424 820l-223 -94l-31 55l207 121z" />
    <glyph glyph-name="zacute" unicode="&#x17a;" horiz-adv-x="445" 
d="M433 0h-424v100l251 289h-234v103h400v-105l-251 -281h258v-106zM381 648l-223 -94l-31 55l207 121z" />
    <glyph glyph-name="Zdotaccent" unicode="&#x17b;" horiz-adv-x="532" 
d="M523 0h-519v118l345 430h-335v116h509v-109l-347 -437h347v-118zM337 751h-130v124h130v-124z" />
    <glyph glyph-name="zdotaccent" unicode="&#x17c;" horiz-adv-x="445" 
d="M433 0h-424v100l251 289h-234v103h400v-105l-251 -281h258v-106zM293 579h-130v124h130v-124z" />
    <glyph glyph-name="Zcaron" unicode="&#x17d;" horiz-adv-x="532" 
d="M523 0h-519v118l345 430h-335v116h509v-109l-347 -437h347v-118zM321 733h-106l-128 134l46 51l135 -118l135 118l46 -51z" />
    <glyph glyph-name="zcaron" unicode="&#x17e;" horiz-adv-x="445" 
d="M433 0h-424v100l251 289h-234v103h400v-105l-251 -281h258v-106zM277 561h-106l-128 134l46 51l135 -118l135 118l46 -51z" />
    <glyph glyph-name="uni018E" unicode="&#x18e;" horiz-adv-x="532" 
d="M505 0h-502v115h371v175h-327v115h327v146h-355v113h486v-664z" />
    <glyph glyph-name="uni018F" unicode="&#x18f;" horiz-adv-x="670" 
d="M338 -23q-164 0 -238.5 99t-74.5 272q0 20 1 30h492q-7 93 -53 140.5t-126 47.5q-122 0 -162 -117h-141q27 114 103 175.5t197 61.5q152 0 234 -95.5t82 -266.5t-81 -259t-233 -88zM336 93q79 0 127.5 46.5t54.5 140.5h-365q9 -95 57 -141t126 -46z" />
    <glyph glyph-name="uni018F" unicode="&#x4d8;" horiz-adv-x="670" 
d="M338 -23q-164 0 -238.5 99t-74.5 272q0 20 1 30h492q-7 93 -53 140.5t-126 47.5q-122 0 -162 -117h-141q27 114 103 175.5t197 61.5q152 0 234 -95.5t82 -266.5t-81 -259t-233 -88zM336 93q79 0 127.5 46.5t54.5 140.5h-365q9 -95 57 -141t126 -46z" />
    <glyph glyph-name="florin" unicode="&#x192;" horiz-adv-x="538" 
d="M78 -173h-56v112h72q54 0 65 80l50 345h-70v101h84l4 24q27 183 226 183h57v-112h-73q-54 0 -65 -80l-2 -15h87v-101h-102l-51 -354q-27 -183 -226 -183z" />
    <glyph glyph-name="uni0194" unicode="&#x194;" horiz-adv-x="593" 
d="M296 -233q-78 0 -114 31t-36 106q0 34 16.5 88t71.5 185l-228 487h145l145 -342l145 342h144l-228 -486q56 -131 72 -185t16 -88q0 -76 -35.5 -107t-113.5 -31zM296 46q-51 -109 -51 -155q0 -56 51 -56q50 0 50 56q0 50 -50 155z" />
    <glyph glyph-name="uni019D" unicode="&#x19d;" horiz-adv-x="591" 
d="M566 0h-126l-288 452v-485q0 -88 -55.5 -144t-139.5 -56q-20 0 -38 3v119q12 -9 34 -9q73 0 73 92v692h144l269 -433v433h127v-664z" />
    <glyph glyph-name="Ohorn" unicode="&#x1a0;" horiz-adv-x="769" 
d="M682 702h70q21 -24 21 -78q0 -107 -92 -107q-35 0 -74 15q44 -85 44 -209q0 -170 -81.5 -258t-235.5 -88q-153 0 -236 90.5t-83 258.5q0 170 83.5 265t235.5 95q126 0 206 -68q41 -35 103 -35q48 0 48 63q0 34 -9 56zM334 96q80 0 130 57.5t50 169.5q0 117 -46.5 178.5
t-133.5 61.5q-88 0 -135 -61.5t-47 -178.5q0 -227 182 -227z" />
    <glyph glyph-name="ohorn" unicode="&#x1a1;" horiz-adv-x="651" 
d="M564 543h70q21 -24 21 -78q0 -44 -19.5 -75.5t-60.5 -31.5q-49 0 -83 14q26 -55 26 -126q0 -117 -68 -188t-182 -71q-118 0 -185.5 71t-67.5 188q0 118 68.5 188.5t184.5 70.5q91 0 154 -46q48 -35 103 -35q48 0 48 63q0 34 -9 56zM268 96q119 0 119 150q0 149 -119 149
t-119 -149q0 -150 119 -150z" />
    <glyph glyph-name="Uhorn" unicode="&#x1af;" horiz-adv-x="748" 
d="M416 221v443h142v-73q24 -8 50 -8q28 0 40.5 14.5t12.5 48.5t-9 56h70q21 -24 21 -79q0 -53 -25.5 -80t-68.5 -27q-44 0 -91 26v-321q0 -119 -70.5 -181.5t-200.5 -62.5q-126 0 -195 59t-69 177v451h141v-438q0 -63 31.5 -98.5t94.5 -35.5q60 0 93 32.5t33 96.5z" />
    <glyph glyph-name="uhorn" unicode="&#x1b0;" horiz-adv-x="638" 
d="M469 0h-123v69q-49 -82 -150 -82q-77 0 -123.5 50t-46.5 131v324h130v-304q0 -92 82 -92q49 0 75.5 30.5t26.5 81.5v284h129v-64q19 -4 38 -4q52 0 52 62q0 35 -9 57h70q21 -24 21 -79q0 -53 -25 -79.5t-68 -26.5q-37 0 -79 18v-376z" />
    <glyph glyph-name="uni01DD" unicode="&#x1dd;" 
d="M354 198h-201q1 -52 30.5 -80t70.5 -28q40 0 68 29t32 79zM19 280h339q-3 56 -32.5 89t-77.5 33q-32 0 -56.5 -15t-31.5 -40h-134q22 75 79.5 116.5t136.5 41.5q246 0 246 -268q0 -115 -63 -182.5t-175 -67.5q-231 0 -231 293z" />
    <glyph glyph-name="uni01DD" unicode="&#x4d9;" 
d="M354 198h-201q1 -52 30.5 -80t70.5 -28q40 0 68 29t32 79zM19 280h339q-3 56 -32.5 89t-77.5 33q-32 0 -56.5 -15t-31.5 -40h-134q22 75 79.5 116.5t136.5 41.5q246 0 246 -268q0 -115 -63 -182.5t-175 -67.5q-231 0 -231 293z" />
    <glyph glyph-name="uni01E6" unicode="&#x1e6;" horiz-adv-x="658" 
d="M633 0h-115l-3 66q-24 -42 -77 -65.5t-122 -23.5q-133 0 -217 105.5t-84 250.5q0 154 86 253.5t241 99.5q119 0 201 -64t89 -163h-140q-5 46 -49 79t-101 33q-85 0 -135 -64t-50 -180q0 -58 18.5 -109t61.5 -87.5t104 -36.5q68 0 115 44.5t47 107.5h-147v111h277v-357z
M383 733h-106l-128 134l46 51l135 -118l135 118l46 -51z" />
    <glyph glyph-name="uni01E7" unicode="&#x1e7;" horiz-adv-x="530" 
d="M262 98q48 0 79.5 37.5t31.5 98.5q0 158 -111 158t-111 -150q0 -65 31 -104.5t80 -39.5zM369 -15v81q-13 -33 -49.5 -51.5t-85.5 -18.5q-113 0 -165.5 72.5t-52.5 180.5q0 113 62 184.5t153 71.5q92 0 138 -74v61h130v-497q0 -107 -69 -167.5t-176 -60.5
q-105 0 -171.5 56t-66.5 150h121q0 -44 29.5 -69t78.5 -25q53 0 88.5 29t35.5 77zM312 561h-106l-128 134l46 51l135 -118l135 118l46 -51z" />
    <glyph glyph-name="uni01F4" unicode="&#x1f4;" horiz-adv-x="658" 
d="M633 0h-115l-3 66q-24 -42 -77 -65.5t-122 -23.5q-133 0 -217 105.5t-84 250.5q0 154 86 253.5t241 99.5q119 0 201 -64t89 -163h-140q-5 46 -49 79t-101 33q-85 0 -135 -64t-50 -180q0 -58 18.5 -109t61.5 -87.5t104 -36.5q68 0 115 44.5t47 107.5h-147v111h277v-357z
M487 820l-223 -94l-31 55l207 121z" />
    <glyph glyph-name="uni01F5" unicode="&#x1f5;" horiz-adv-x="530" 
d="M262 98q48 0 79.5 37.5t31.5 98.5q0 158 -111 158t-111 -150q0 -65 31 -104.5t80 -39.5zM369 -15v81q-13 -33 -49.5 -51.5t-85.5 -18.5q-113 0 -165.5 72.5t-52.5 180.5q0 113 62 184.5t153 71.5q92 0 138 -74v61h130v-497q0 -107 -69 -167.5t-176 -60.5
q-105 0 -171.5 56t-66.5 150h121q0 -44 29.5 -69t78.5 -25q53 0 88.5 29t35.5 77zM415 648l-223 -94l-31 55l207 121z" />
    <glyph glyph-name="uni01F8" unicode="&#x1f8;" horiz-adv-x="591" 
d="M564 0h-128l-284 446v-446h-129v664h147l264 -427v427h130v-664zM362 726l-223 94l47 82l207 -121z" />
    <glyph glyph-name="uni01F9" unicode="&#x1f9;" 
d="M472 0h-131v298q0 56 -18.5 76.5t-65.5 20.5q-101 0 -101 -113v-282h-130v492h124v-72q46 85 159 85q73 0 118 -43t45 -121v-341zM318 554l-223 94l47 82l207 -121z" />
    <glyph glyph-name="dotlessj" unicode="&#x237;" horiz-adv-x="195" 
d="M36 -28v520h131v-525q0 -88 -55.5 -144t-138.5 -56q-99 0 -148.5 54t-49.5 152h122q0 -91 69 -91q70 0 70 90z" />
    <glyph glyph-name="uni0241" unicode="&#x241;" horiz-adv-x="491" 
d="M313 0h-136v197q0 125 82 181q3 2 20 13t25 17.5t19.5 19.5t17 29.5t5.5 36.5q0 46 -28.5 67t-71.5 21q-99 0 -104 -111h-123q0 102 57.5 158.5t174.5 56.5q108 0 166 -48.5t58 -142.5q0 -57 -20.5 -86.5t-72.5 -68.5q-42 -33 -55.5 -60t-13.5 -83v-197z" />
    <glyph glyph-name="uni0242" unicode="&#x242;" horiz-adv-x="491" 
d="M309 0h-127v78q0 58 19 93.5t60 64.5q49 34 65 51.5t16 44.5q0 67 -88 67q-55 0 -80 -23.5t-25 -57.5h-128q0 89 56.5 138t172.5 49q107 0 164 -42.5t57 -126.5q0 -34 -12 -58t-27.5 -37.5t-52.5 -38.5q-43 -30 -56.5 -52t-13.5 -72v-78z" />
    <glyph glyph-name="uni024C" unicode="&#x24c;" horiz-adv-x="700" 
d="M668 0h-136v171q0 49 -22.5 69t-81.5 20h-148v-260h-135v260h-145v112h145v292h337q91 0 147.5 -54t56.5 -138q0 -54 -26 -95.5t-73 -58.5q45 -14 63 -43t18 -87v-188zM459 549h-179v-177h174q102 0 102 88q0 89 -97 89z" />
    <glyph glyph-name="uni024D" unicode="&#x24d;" horiz-adv-x="390" 
d="M226 0h-130v173h-96v91h96v228h122v-59q29 45 63.5 58.5t82.5 13.5h17v-133q-18 3 -36 3q-116 0 -119 -111h155v-91h-155v-173z" />
    <glyph glyph-name="uni0263" unicode="&#x263;" horiz-adv-x="501" 
d="M250 -233q-73 0 -111.5 28t-38.5 96q0 24 15.5 67t74.5 173l-184 361h138l105 -232l106 232h139l-186 -362q60 -129 75.5 -172t15.5 -67q0 -68 -38 -96t-111 -28zM250 13l-1 1q-42 -85 -42 -124q0 -45 42 -45q44 0 44 40q0 23 -15 67t-28 61z" />
    <glyph glyph-name="uni0272" unicode="&#x272;" 
d="M156 282v-315q0 -88 -55 -144t-137 -56q-13 0 -31 2v116q10 -5 25 -5q20 0 33 8t20 18t10.5 32t4 37.5t0.5 47.5v469h124v-72q46 85 155 85q77 0 122 -42.5t45 -121.5v-341h-131v298q0 55 -18 76t-62 21q-54 0 -79.5 -27.5t-25.5 -85.5z" />
    <glyph glyph-name="circumflex" unicode="&#x2c6;" horiz-adv-x="460" 
d="M366 561l-135 118l-135 -118l-46 51l128 134h106l128 -134z" />
    <glyph glyph-name="caron" unicode="&#x2c7;" horiz-adv-x="459" 
d="M284 561h-106l-128 134l46 51l135 -118l135 118l46 -51z" />
    <glyph glyph-name="uni02C9" unicode="&#x2c9;" horiz-adv-x="478" 
d="M431 602h-381v91h381v-91z" />
    <glyph glyph-name="breve" unicode="&#x2d8;" horiz-adv-x="422" 
d="M292 746h82q0 -79 -47.5 -122.5t-114.5 -43.5t-114.5 43.5t-47.5 122.5h82q2 -41 22.5 -64t57.5 -23t57.5 23t22.5 64z" />
    <glyph glyph-name="dotaccent" unicode="&#x2d9;" horiz-adv-x="220" 
d="M180 579h-130v124h130v-124z" />
    <glyph glyph-name="ring" unicode="&#x2da;" horiz-adv-x="306" 
d="M258 650q0 -96 -104 -96t-104 96t104 96t104 -96zM206 650q0 51 -52 51q-50 0 -50 -51q0 -49 50 -49q52 0 52 49z" />
    <glyph glyph-name="ogonek" unicode="&#x2db;" horiz-adv-x="313" 
d="M265 -117v-90q-33 -26 -105 -26q-53 0 -81.5 22.5t-28.5 62.5q0 47 45.5 85t126.5 63h43q-72 -32 -92.5 -50.5t-20.5 -41.5q0 -33 64 -33q25 0 49 8z" />
    <glyph glyph-name="tilde" unicode="&#x2dc;" horiz-adv-x="443" 
d="M320 701l75 -27q-30 -98 -109 -98q-26 0 -67 22.5t-61 22.5q-5 0 -11 -3t-14 -13.5t-14 -27.5l-69 37q28 88 97 88q33 0 75 -24t58 -24q11 0 23.5 11.5t16.5 35.5z" />
    <glyph glyph-name="hungarumlaut" unicode="&#x2dd;" horiz-adv-x="397" 
d="M87 569l-37 33l136 147l44 -37zM357 709l-150 -140l-37 33l142 144z" />
    <glyph glyph-name="gravecomb" unicode="&#x300;" horiz-adv-x="0" 
d="M-183 554l-223 94l47 82l207 -121z" />
    <glyph glyph-name="acutecomb" unicode="&#x301;" horiz-adv-x="0" 
d="M-92 648l-223 -94l-31 55l207 121z" />
    <glyph glyph-name="uni0302" unicode="&#x302;" horiz-adv-x="0" 
d="M-114 561l-135 118l-135 -118l-46 51l128 134h106l128 -134z" />
    <glyph glyph-name="tildecomb" unicode="&#x303;" horiz-adv-x="370" 
d="M264 746l51 -14q-15 -61 -78 -61q-18 0 -53.5 10t-46.5 10q-16 0 -28 -32l-49 20q17 63 70 63q25 0 58 -11.5t48 -11.5q23 0 28 27zM322 584l-34 -30l-102 70l-101 -70l-35 30l96 80h80z" />
    <glyph glyph-name="uni0304" unicode="&#x304;" horiz-adv-x="0" 
d="M-59 602h-381v91h381v-91z" />
    <glyph glyph-name="uni0306" unicode="&#x306;" horiz-adv-x="0" 
d="M-170 746h82q0 -79 -47.5 -122.5t-114.5 -43.5t-114.5 43.5t-47.5 122.5h82q2 -41 22.5 -64t57.5 -23t57.5 23t22.5 64z" />
    <glyph glyph-name="uni0307" unicode="&#x307;" horiz-adv-x="0" 
d="M-181 579h-130v124h130v-124z" />
    <glyph glyph-name="uni0308" unicode="&#x308;" horiz-adv-x="0" 
d="M-281 579h-130v124h130v-124zM-81 579h-130v124h130v-124z" />
    <glyph glyph-name="hookabovecomb" unicode="&#x309;" horiz-adv-x="243" 
d="M135 581h-50q0 38 25 53q23 13 23 30t-24 17q-20 0 -41 -15l-18 55q29 25 70 25q34 0 54 -16.5t20 -44.5q0 -24 -15 -40t-29.5 -30.5t-14.5 -33.5z" />
    <glyph glyph-name="uni030A" unicode="&#x30a;" horiz-adv-x="0" 
d="M-146 650q0 -96 -104 -96t-104 96t104 96t104 -96zM-198 650q0 51 -52 51q-50 0 -50 -51q0 -49 50 -49q52 0 52 49z" />
    <glyph glyph-name="uni030B" unicode="&#x30b;" horiz-adv-x="0" 
d="M-338 569l-37 33l136 147l44 -37zM-68 709l-150 -140l-37 33l142 144z" />
    <glyph glyph-name="uni030C" unicode="&#x30c;" horiz-adv-x="0" 
d="M-196 561h-106l-128 134l46 51l135 -118l135 118l46 -51z" />
    <glyph glyph-name="uni0313" unicode="&#x313;" horiz-adv-x="0" 
d="M-198 742v-43q-62 -5 -64 -65h64v-82h-115v54q0 126 115 136z" />
    <glyph glyph-name="uni031B" unicode="&#x31b;" horiz-adv-x="151" 
d="M-31 381v49q23 -8 48 -8q54 0 54 61q0 30 -10 60h68q22 -24 22 -79q0 -53 -26 -80t-69 -27q-42 0 -87 24z" />
    <glyph glyph-name="dotbelowcomb" unicode="&#x323;" horiz-adv-x="220" 
d="M180 -206h-130v124h130v-124z" />
    <glyph glyph-name="uni0326" unicode="&#x326;" horiz-adv-x="0" 
d="M-304 -233v43q62 5 64 65h-64v82h115v-54q0 -126 -115 -136z" />
    <glyph glyph-name="uni0328" unicode="&#x328;" horiz-adv-x="0" 
d="M-143 -117v-90q-33 -26 -105 -26q-53 0 -81.5 22.5t-28.5 62.5q0 47 45.5 85t126.5 63h43q-72 -32 -92.5 -50.5t-20.5 -41.5q0 -33 64 -33q25 0 49 8z" />
    <glyph glyph-name="uni032D" unicode="&#x32d;" horiz-adv-x="0" 
d="M-115 -227l-135 118l-135 -118l-46 51l128 134h106l128 -134z" />
    <glyph glyph-name="tonos" unicode="&#x384;" horiz-adv-x="150" 
d="M104 414h-81q2 168 4 250h117z" />
    <glyph glyph-name="dieresistonos" unicode="&#x385;" horiz-adv-x="0" 
d="M-211 544h-81q2 168 4 250h117zM-30 579h-130v124h130v-124zM-314 579h-130v124h130v-124z" />
    <glyph glyph-name="Alphatonos" unicode="&#x386;" horiz-adv-x="672" 
d="M431 251l-83 264h-1l-85 -264h169zM664 0h-151l-42 137h-245l-47 -137h-147l237 664h161zM104 414h-81q2 168 4 250h117z" />
    <glyph glyph-name="anoteleia" unicode="&#x387;" horiz-adv-x="187" 
d="M162 357h-139v135h139v-135z" />
    <glyph glyph-name="Epsilontonos" unicode="&#x388;" horiz-adv-x="681" 
d="M677 0h-504v664h488v-116h-353v-142h325v-117h-325v-171h369v-118zM104 414h-81q2 168 4 250h117z" />
    <glyph glyph-name="Etatonos" unicode="&#x389;" horiz-adv-x="737" 
d="M711 0h-140v298h-259v-298h-139v664h139v-250h259v250h140v-664zM104 414h-81q2 168 4 250h117z" />
    <glyph glyph-name="Iotatonos" unicode="&#x38a;" horiz-adv-x="337" 
d="M312 0h-139v664h139v-664zM104 414h-81q2 168 4 250h117z" />
    <glyph glyph-name="Omicrontonos" unicode="&#x38c;" horiz-adv-x="776" 
d="M440 96q80 0 130 57.5t50 169.5q0 117 -46.5 178.5t-133.5 61.5q-88 0 -135 -61.5t-47 -178.5q0 -227 182 -227zM440 -23q-153 0 -236 90.5t-83 258.5q0 170 83.5 265t235.5 95t234.5 -95.5t82.5 -267.5q0 -170 -81.5 -258t-235.5 -88zM104 414h-81q2 168 4 250h117z" />
    <glyph glyph-name="Upsilontonos" unicode="&#x38e;" horiz-adv-x="750" 
d="M520 0h-139v251l-230 413h162l140 -270l129 270h160l-222 -415v-249zM104 414h-81q2 168 4 250h117z" />
    <glyph glyph-name="Omegatonos" unicode="&#x38f;" horiz-adv-x="767" 
d="M738 0h-239v100q101 96 101 293q0 182 -161 182q-160 0 -160 -182q0 -184 100 -293v-100h-239v110h99q-47 36 -79 113t-32 171q0 139 77.5 215.5t233.5 76.5q157 0 234 -76t77 -216q0 -94 -32 -171t-79 -113h99v-110zM104 414h-81q2 168 4 250h117z" />
    <glyph glyph-name="iotadieresistonos" unicode="&#x390;" horiz-adv-x="397" 
d="M124 143v349h124v-333q0 -57 54 -57h29v-102h-64q-143 0 -143 143zM222 544h-81q2 168 4 250h117zM404 579h-130v124h130v-124zM120 579h-130v124h130v-124z" />
    <glyph glyph-name="uni0413" unicode="&#x393;" horiz-adv-x="501" 
d="M22 664h467v-113h-331v-551h-136v664z" />
    <glyph glyph-name="uni0413" unicode="&#x413;" horiz-adv-x="501" 
d="M22 664h467v-113h-331v-551h-136v664z" />
    <glyph glyph-name="Delta" unicode="&#x394;" horiz-adv-x="643" 
d="M635 0h-632l237 664h161zM318 515l-131 -401h260l-128 401h-1z" />
    <glyph glyph-name="Theta" unicode="&#x398;" horiz-adv-x="670" 
d="M332 94q89 0 142 57t53 177q0 114 -49.5 176t-141.5 62q-93 0 -143 -62t-50 -179t49.5 -174t139.5 -57zM338 -23q-155 0 -237.5 90.5t-82.5 258.5q0 170 83 265t235 95t234 -95.5t82 -267.5q0 -170 -81 -258t-233 -88zM200 290v101h271v-101h-271z" />
    <glyph glyph-name="Lambda" unicode="&#x39b;" horiz-adv-x="593" 
d="M233 664h131l225 -664h-148l-145 466l-144 -466h-144z" />
    <glyph glyph-name="Xi" unicode="&#x39e;" horiz-adv-x="532" 
d="M485 290h-438v115h438v-115zM513 551h-494v113h494v-113zM528 0h-525v115h525v-115z" />
    <glyph glyph-name="uni041F" unicode="&#x3a0;" horiz-adv-x="587" 
d="M563 0h-137v551h-264v-551h-136v664h537v-664z" />
    <glyph glyph-name="uni041F" unicode="&#x41f;" horiz-adv-x="587" 
d="M563 0h-137v551h-264v-551h-136v664h537v-664z" />
    <glyph glyph-name="Sigma" unicode="&#x3a3;" horiz-adv-x="532" 
d="M189 335l-183 223v106h506v-113h-342l178 -214l-179 -222h357v-115h-519v115z" />
    <glyph glyph-name="uni0424" unicode="&#x3a6;" horiz-adv-x="712" 
d="M422 0h-131v94q-136 11 -207 71.5t-71 165.5q0 106 72 169.5t206 75.5v88h131v-88q133 -13 204.5 -76t71.5 -169t-71 -166.5t-205 -71.5v-93zM142 332q0 -129 149 -153v309q-149 -25 -149 -156zM569 331q0 131 -147 157v-309q147 24 147 152z" />
    <glyph glyph-name="uni0424" unicode="&#x424;" horiz-adv-x="712" 
d="M422 0h-131v94q-136 11 -207 71.5t-71 165.5q0 106 72 169.5t206 75.5v88h131v-88q133 -13 204.5 -76t71.5 -169t-71 -166.5t-205 -71.5v-93zM142 332q0 -129 149 -153v309q-149 -25 -149 -156zM569 331q0 131 -147 157v-309q147 24 147 152z" />
    <glyph glyph-name="Psi" unicode="&#x3a8;" horiz-adv-x="658" 
d="M393 0h-129v165q-134 9 -189 63.5t-55 161.5v274h134v-261q0 -110 110 -129v390h129v-390q58 10 83.5 42.5t25.5 87.5v260h136v-272q0 -106 -56.5 -161.5t-188.5 -65.5v-165z" />
    <glyph glyph-name="Omega" unicode="&#x3a9;" horiz-adv-x="651" 
d="M622 0h-239v100q101 96 101 293q0 182 -161 182q-160 0 -160 -182q0 -184 100 -293v-100h-239v110h99q-47 36 -79 113t-32 171q0 139 77.5 215.5t233.5 76.5q157 0 234 -76t77 -216q0 -94 -32 -171t-79 -113h99v-110z" />
    <glyph glyph-name="alphatonos" unicode="&#x3ac;" horiz-adv-x="583" 
d="M379 81q-54 -94 -156 -94q-96 0 -150 69.5t-54 183.5q0 122 59 193.5t149 71.5q105 0 143 -95v82h123v-335q0 -55 53 -55h30v-102h-64q-108 0 -133 81zM257 95q56 0 86 39t30 113q0 77 -31 115.5t-84 38.5q-111 0 -111 -154q0 -152 110 -152zM315 544h-81q2 168 4 250
h117z" />
    <glyph glyph-name="epsilontonos" unicode="&#x3ad;" horiz-adv-x="469" 
d="M273 217h-45q-47 0 -69 -15.5t-22 -50.5q0 -73 94 -73q52 0 75.5 21.5t25.5 64.5h128q-6 -78 -62 -127.5t-168 -49.5q-101 0 -160.5 42t-59.5 114q0 50 29.5 81t74.5 40q-41 11 -64.5 38.5t-23.5 68.5q0 61 52 97.5t152 36.5q210 0 226 -166h-128q0 41 -22 60t-72 19
q-86 0 -86 -57q0 -60 83 -60h42v-84zM274 544h-81q2 168 4 250h117z" />
    <glyph glyph-name="etatonos" unicode="&#x3ae;" 
d="M472 -233h-131v531q0 56 -18.5 76.5t-65.5 20.5q-101 0 -101 -113v-282h-130v492h124v-72q46 85 159 85q73 0 118 -43t45 -121v-574zM294 544h-81q2 168 4 250h117z" />
    <glyph glyph-name="iotatonos" unicode="&#x3af;" horiz-adv-x="243" 
d="M29 143v349h124v-333q0 -57 54 -57h29v-102h-64q-143 0 -143 143zM124 544h-81q2 168 4 250h117z" />
    <glyph glyph-name="upsilondieresistonos" unicode="&#x3b0;" horiz-adv-x="497" 
d="M279 544h-81q2 168 4 250h117zM249 -13q-111 0 -165.5 41t-54.5 135v329h127v-309q0 -49 21.5 -70.5t72.5 -21.5t73 21.5t22 70.5v309h124v-329q0 -94 -55 -135t-165 -41zM460 579h-130v124h130v-124zM176 579h-130v124h130v-124z" />
    <glyph glyph-name="alpha" unicode="&#x3b1;" horiz-adv-x="583" 
d="M379 81q-54 -94 -156 -94q-96 0 -150 69.5t-54 183.5q0 122 59 193.5t149 71.5q105 0 143 -95v82h123v-335q0 -55 53 -55h30v-102h-64q-108 0 -133 81zM257 95q56 0 86 39t30 113q0 77 -31 115.5t-84 38.5q-111 0 -111 -154q0 -152 110 -152z" />
    <glyph glyph-name="beta" unicode="&#x3b2;" horiz-adv-x="510" 
d="M281 -12q-72 0 -127 30v-251h-125v731q0 181 218 181q214 0 214 -166q0 -101 -85 -132q123 -37 123 -180q0 -98 -60 -155.5t-158 -57.5zM154 492v-368q44 -32 104 -32q59 0 87.5 31t28.5 84q0 120 -136 120h-9v80h8q96 0 96 83q0 45 -24 66.5t-64 21.5q-42 0 -66.5 -21.5
t-24.5 -64.5z" />
    <glyph glyph-name="uni04AF" unicode="&#x3b3;" horiz-adv-x="501" 
d="M312 -233h-124v228l-182 497h142l105 -329l107 329h134l-182 -497v-228z" />
    <glyph glyph-name="uni04AF" unicode="&#x4af;" horiz-adv-x="501" 
d="M312 -233h-124v228l-182 497h142l105 -329l107 329h134l-182 -497v-228z" />
    <glyph glyph-name="delta" unicode="&#x3b4;" horiz-adv-x="539" 
d="M18 240q0 141 111 202q-59 39 -59 106q0 131 212 131q94 0 151 -16v-96q-50 22 -145 22q-107 0 -107 -42q0 -35 60 -50q71 -18 102 -28t63 -27q55 -29 84 -75t29 -123q0 -118 -67 -187.5t-182 -69.5q-116 0 -184 70.5t-68 182.5zM348 341q-30 24 -120 56
q-84 -39 -84 -154q0 -73 33.5 -111.5t92.5 -38.5t90 37t31 106q0 70 -43 105z" />
    <glyph glyph-name="epsilon" unicode="&#x3b5;" horiz-adv-x="469" 
d="M273 217h-45q-47 0 -69 -15.5t-22 -50.5q0 -73 94 -73q52 0 75.5 21.5t25.5 64.5h128q-6 -78 -62 -127.5t-168 -49.5q-101 0 -160.5 42t-59.5 114q0 50 29.5 81t74.5 40q-41 11 -64.5 38.5t-23.5 68.5q0 61 52 97.5t152 36.5q210 0 226 -166h-128q0 41 -22 60t-72 19
q-86 0 -86 -57q0 -60 83 -60h42v-84z" />
    <glyph glyph-name="zeta" unicode="&#x3b6;" horiz-adv-x="481" 
d="M443 569l-194 -170q-63 -55 -83 -93t-20 -81q0 -66 29.5 -93.5t87.5 -27.5h25q66 0 96.5 -27.5t30.5 -88.5v-221h-127v187q0 26 -9.5 36t-35.5 10h-30q-89 0 -141 57.5t-52 147.5q0 70 35 131.5t109 125.5l127 110h-233v100h385v-103z" />
    <glyph glyph-name="eta" unicode="&#x3b7;" 
d="M472 -233h-131v531q0 56 -18.5 76.5t-65.5 20.5q-101 0 -101 -113v-282h-130v492h124v-72q46 85 159 85q73 0 118 -43t45 -121v-574z" />
    <glyph glyph-name="theta" unicode="&#x3b8;" horiz-adv-x="548" 
d="M275 -15q-135 0 -193.5 84t-58.5 265q0 182 58.5 265.5t193.5 83.5q134 0 191.5 -83.5t57.5 -264.5q0 -182 -57.5 -266t-191.5 -84zM275 92q61 0 90 44t34 147h-247q5 -104 32.5 -147.5t90.5 -43.5zM275 575q-63 0 -91 -42t-32 -146h247q-5 102 -34 145t-90 43z" />
    <glyph glyph-name="iota" unicode="&#x3b9;" horiz-adv-x="243" 
d="M29 143v349h124v-333q0 -57 54 -57h29v-102h-64q-143 0 -143 143z" />
    <glyph glyph-name="uni043A" unicode="&#x3ba;" horiz-adv-x="483" 
d="M474 0h-146l-108 221l-63 -65v-156h-131v492h131v-187l162 187h159l-165 -181z" />
    <glyph glyph-name="uni043A" unicode="&#x43a;" horiz-adv-x="483" 
d="M474 0h-146l-108 221l-63 -65v-156h-131v492h131v-187l162 187h159l-165 -181z" />
    <glyph glyph-name="lambda" unicode="&#x3bb;" horiz-adv-x="534" 
d="M80 672h41q79 0 118 -27t61 -89l142 -399q11 -31 26.5 -43t45.5 -12h12v-102h-70q-54 0 -86.5 28t-52.5 88l-66 202l-111 -318h-134l194 475l-13 40q-11 32 -27 43.5t-53 11.5h-27v102z" />
    <glyph glyph-name="mu" unicode="&#x3bc;" horiz-adv-x="500" 
d="M469 0h-123v69q-50 -82 -153 -82q-15 0 -37 4v-224h-130v725h130v-304q0 -92 83 -92q48 0 74.5 31t26.5 81v284h129v-492z" />
    <glyph glyph-name="xi" unicode="&#x3be;" horiz-adv-x="481" 
d="M282 420v-84h-44q-49 0 -71 -26t-22 -81q0 -126 115 -126h28q67 0 97 -26.5t30 -87.5v-222h-127v187q0 26 -9.5 36t-35.5 10h-31q-88 0 -140 58t-52 157q0 75 29 116t75 53q-85 34 -85 132q0 161 205 161q110 0 163.5 -45.5t60.5 -120.5h-127q0 79 -91 79q-46 0 -68 -20
t-22 -63q0 -87 81 -87h41z" />
    <glyph glyph-name="pi" unicode="&#x3c0;" horiz-adv-x="576" 
d="M356 143v248h-150v-391h-126v391h-73v101h561v-101h-87v-232q0 -57 53 -57h30v-102h-64q-144 0 -144 143z" />
    <glyph glyph-name="rho" unicode="&#x3c1;" horiz-adv-x="523" 
d="M29 -233v480q0 130 66.5 194t172.5 64q112 0 173.5 -69t61.5 -193q0 -116 -53.5 -186t-147.5 -70q-114 0 -149 92v-312h-124zM149 248q0 -73 30 -113t86 -40q109 0 109 152q0 154 -110 154q-54 0 -84.5 -39.5t-30.5 -113.5z" />
    <glyph glyph-name="sigma1" unicode="&#x3c2;" horiz-adv-x="481" 
d="M243 0h-31q-87 0 -139.5 63t-52.5 185q0 130 60.5 193.5t165.5 63.5q99 0 159.5 -51t65.5 -138h-128q-5 39 -31 61t-66 22q-101 0 -101 -151q0 -77 28.5 -111t95.5 -34h15q69 0 100 -26.5t31 -87.5v-222h-127v187q0 26 -9.5 36t-35.5 10z" />
    <glyph glyph-name="sigma" unicode="&#x3c3;" horiz-adv-x="580" 
d="M572 402h-135q74 -53 74 -169q0 -109 -66 -177.5t-179 -68.5q-114 0 -181 70t-67 184q0 115 68 183t184 68h302v-90zM270 91q121 0 121 149q0 150 -119 150q-123 0 -123 -150q0 -149 121 -149z" />
    <glyph glyph-name="tau" unicode="&#x3c4;" horiz-adv-x="479" 
d="M471 402h-173v-242q0 -58 53 -58h30v-102h-64q-144 0 -144 143v259h-166v90h464v-90z" />
    <glyph glyph-name="upsilon" unicode="&#x3c5;" horiz-adv-x="497" 
d="M249 -13q-111 0 -165.5 41t-54.5 135v329h127v-309q0 -49 21.5 -70.5t72.5 -21.5t73 21.5t22 70.5v309h124v-329q0 -94 -55 -135t-165 -41z" />
    <glyph glyph-name="uni0444" unicode="&#x3c6;" horiz-adv-x="719" 
d="M421 -233h-124v224q-140 10 -210.5 77.5t-70.5 177.5t71 177t210 78v171h124v-171q139 -11 210 -78t71 -177t-71 -177.5t-210 -77.5v-224zM144 247q0 -140 153 -155v306q-80 -7 -116.5 -44.5t-36.5 -106.5zM575 247q0 69 -37 106.5t-117 44.5v-306q154 16 154 155z" />
    <glyph glyph-name="uni0444" unicode="&#x444;" horiz-adv-x="719" 
d="M421 -233h-124v224q-140 10 -210.5 77.5t-70.5 177.5t71 177t210 78v171h124v-171q139 -11 210 -78t71 -177t-71 -177.5t-210 -77.5v-224zM144 247q0 -140 153 -155v306q-80 -7 -116.5 -44.5t-36.5 -106.5zM575 247q0 69 -37 106.5t-117 44.5v-306q154 16 154 155z" />
    <glyph glyph-name="chi" unicode="&#x3c7;" horiz-adv-x="496" 
d="M490 -233h-144l-101 252l-99 -252h-140l166 370l-161 355h143l96 -244l98 244h137l-164 -355z" />
    <glyph glyph-name="psi" unicode="&#x3c8;" horiz-adv-x="658" 
d="M267 88v584h123v-584q62 1 88 22.5t26 67.5v314h124v-324q0 -91 -54.5 -135t-183.5 -44v-222h-123v222q-129 0 -183.5 44t-54.5 135v324h124v-314q0 -90 114 -90z" />
    <glyph glyph-name="omega" unicode="&#x3c9;" horiz-adv-x="704" 
d="M398 344v-90q0 -84 18.5 -122.5t58.5 -38.5q80 0 80 163q0 73 -13.5 123t-43.5 113h128q59 -87 59 -233q0 -129 -48 -200.5t-142 -71.5q-104 0 -144 94q-42 -94 -143 -94q-94 0 -142 70.5t-48 200.5q0 147 59 234h128q-30 -63 -43.5 -113t-13.5 -124q0 -85 19.5 -123.5
t60.5 -38.5q40 0 58.5 38t18.5 123v90h93z" />
    <glyph glyph-name="iotadieresis" unicode="&#x3ca;" horiz-adv-x="301" 
d="M72 143v349h124v-333q0 -57 54 -57h29v-102h-64q-143 0 -143 143zM302 579h-130v124h130v-124zM123 579h-130v124h130v-124z" />
    <glyph glyph-name="upsilondieresis" unicode="&#x3cb;" horiz-adv-x="497" 
d="M249 -13q-111 0 -165.5 41t-54.5 135v329h127v-309q0 -49 21.5 -70.5t72.5 -21.5t73 21.5t22 70.5v309h124v-329q0 -94 -55 -135t-165 -41zM218 579h-130v124h130v-124zM418 579h-130v124h130v-124z" />
    <glyph glyph-name="omicrontonos" unicode="&#x3cc;" horiz-adv-x="539" 
d="M268 96q119 0 119 150q0 149 -119 149t-119 -149q0 -150 119 -150zM268 -13q-118 0 -185.5 71t-67.5 188q0 118 68.5 188.5t184.5 70.5q115 0 182.5 -70.5t67.5 -188.5q0 -117 -68 -188t-182 -71zM307 544h-81q2 168 4 250h117z" />
    <glyph glyph-name="upsilontonos" unicode="&#x3cd;" horiz-adv-x="497" 
d="M286 544h-81q2 168 4 250h117zM249 -13q-111 0 -165.5 41t-54.5 135v329h127v-309q0 -49 21.5 -70.5t72.5 -21.5t73 21.5t22 70.5v309h124v-329q0 -94 -55 -135t-165 -41z" />
    <glyph glyph-name="omegatonos" unicode="&#x3ce;" horiz-adv-x="704" 
d="M398 344v-90q0 -84 18.5 -122.5t58.5 -38.5q80 0 80 163q0 73 -13.5 123t-43.5 113h128q59 -87 59 -233q0 -129 -48 -200.5t-142 -71.5q-104 0 -144 94q-42 -94 -143 -94q-94 0 -142 70.5t-48 200.5q0 147 59 234h128q-30 -63 -43.5 -113t-13.5 -124q0 -85 19.5 -123.5
t60.5 -38.5q40 0 58.5 38t18.5 123v90h93zM389 544h-81q2 168 4 250h117z" />
    <glyph glyph-name="uni0402" unicode="&#x402;" horiz-adv-x="754" 
d="M595 13v147q0 95 -23 126.5t-93 31.5q-79 0 -134 -26v-282h-136v541h-201v113h555v-113h-218v-151q77 31 179 31q103 0 155.5 -46t52.5 -169v-203q0 -119 -70.5 -182.5t-197.5 -63.5q-221 0 -247 190h128q6 -40 39.5 -59.5t80.5 -19.5q62 0 96 34.5t34 100.5z" />
    <glyph glyph-name="uni0403" unicode="&#x403;" horiz-adv-x="501" 
d="M418 820l-223 -94l-31 55l207 121zM22 664h467v-113h-331v-551h-136v664z" />
    <glyph glyph-name="uni0404" unicode="&#x404;" horiz-adv-x="613" 
d="M469 228h139q-21 -115 -96.5 -183t-189.5 -68q-136 0 -221.5 90.5t-85.5 256.5q0 168 83 265t226 97q121 0 197.5 -68t86.5 -172h-139q-14 55 -54 87.5t-90 32.5q-139 0 -164 -162h219v-114h-223q16 -192 161 -192q121 0 151 130z" />
    <glyph glyph-name="uni0409" unicode="&#x409;" horiz-adv-x="974" 
d="M602 419h135q110 0 172 -52t62 -156q0 -100 -57 -155.5t-158 -55.5h-290v551h-180l-9 -157q-6 -103 -17 -171t-28 -113.5t-46 -68.5t-64 -32t-90 -9h-24v118h16q48 0 71.5 18t39.5 80t23 189l14 259h430v-245zM746 311h-144v-199h144q48 0 76.5 27.5t28.5 72.5
q0 44 -28 71.5t-77 27.5z" />
    <glyph glyph-name="uni040A" unicode="&#x40a;" horiz-adv-x="853" 
d="M505 419h129q101 0 158 -54.5t57 -154.5t-57 -155t-158 -55h-265v310h-208v-310h-135v664h135v-241h208v241h136v-245zM625 311h-120v-199h120q47 0 76 28t29 72t-28.5 71.5t-76.5 27.5z" />
    <glyph glyph-name="uni040B" unicode="&#x40b;" horiz-adv-x="754" 
d="M8 551v113h555v-113h-218v-151q77 31 179 31q103 0 155.5 -46t52.5 -169v-216h-137v213q0 60 -29.5 82.5t-87.5 22.5q-78 0 -133 -26v-292h-136v551h-201z" />
    <glyph glyph-name="uni040C" unicode="&#x40c;" horiz-adv-x="604" 
d="M600 0h-169l-197 299l-74 -73v-226h-137v664h137v-270l254 270h180l-262 -262zM460 820l-223 -94l-31 55l207 121z" />
    <glyph glyph-name="uni040D" unicode="&#x40d;" horiz-adv-x="587" 
d="M360 726l-223 94l47 82l207 -121zM156 0h-130v664h132v-433l260 433h145v-664h-131v452z" />
    <glyph glyph-name="uni040E" unicode="&#x40e;" horiz-adv-x="575" 
d="M368 918h82q0 -79 -47.5 -122.5t-114.5 -43.5t-114.5 43.5t-47.5 122.5h82q2 -41 22.5 -64t57.5 -23t57.5 23t22.5 64zM548 219q0 -119 -69.5 -180.5t-197.5 -61.5q-246 0 -247 237h123q1 -64 34.5 -95.5t92.5 -31.5q61 0 95 33t34 99v115q-22 -41 -70 -63.5t-110 -22.5
q-97 0 -152 60.5t-55 183.5v172h137v-171q0 -66 33 -98.5t87 -32.5q59 0 94.5 35.5t35.5 94.5v172h135v-445z" />
    <glyph glyph-name="uni040F" unicode="&#x40f;" horiz-adv-x="577" 
d="M343 -169h-99v169h-218v664h136v-546h264v546h137v-664h-220v-169z" />
    <glyph glyph-name="uni0411" unicode="&#x411;" horiz-adv-x="534" 
d="M161 419h154q101 0 158 -54.5t57 -154.5t-57 -155t-158 -55h-289v664h387v-119h-252v-126zM306 311h-145v-199h145q48 0 76.5 27.5t28.5 72.5q0 44 -28 71.5t-77 27.5z" />
    <glyph glyph-name="uni0414" unicode="&#x414;" horiz-adv-x="713" 
d="M111 -169h-100v287h43q41 0 63.5 20t38 82.5t21.5 184.5l14 259h430v-546h81v-287h-100v169h-491v-169zM485 551h-180l-7 -146q-10 -202 -54 -287h241v433z" />
    <glyph glyph-name="uni0416" unicode="&#x416;" horiz-adv-x="888" 
d="M880 0h-165l-206 273v-273h-130v273l-206 -273h-166l279 338l-266 326h161l198 -246v246h130v-246l198 246h161l-267 -326z" />
    <glyph glyph-name="uni0417" unicode="&#x417;" horiz-adv-x="564" 
d="M292 291h-67v115h62q56 0 87.5 24.5t31.5 64.5q0 78 -123 78q-70 0 -102 -26.5t-32 -84.5h-131q0 104 64 164t202 60q126 0 191 -49.5t65 -132.5q0 -56 -28.5 -94.5t-81.5 -52.5q59 -11 95 -54.5t36 -112.5q0 -99 -74 -156t-205 -57q-140 0 -208 65t-68 173h134
q4 -62 38 -92.5t108 -30.5q138 0 138 106q0 52 -32.5 72.5t-99.5 20.5z" />
    <glyph glyph-name="uni0418" unicode="&#x418;" horiz-adv-x="587" 
d="M156 0h-130v664h132v-433l260 433h145v-664h-131v452z" />
    <glyph glyph-name="uni0419" unicode="&#x419;" horiz-adv-x="587" 
d="M374 918h82q0 -79 -47.5 -122.5t-114.5 -43.5t-114.5 43.5t-47.5 122.5h82q2 -41 22.5 -64t57.5 -23t57.5 23t22.5 64zM156 0h-130v664h132v-433l260 433h145v-664h-131v452z" />
    <glyph glyph-name="uni041B" unicode="&#x41b;" horiz-adv-x="628" 
d="M603 0h-137v551h-179l-8 -146q-6 -106 -17.5 -176.5t-28.5 -117t-46.5 -70t-64.5 -32.5t-89 -9h-25v118h16q49 0 73 19t38.5 79.5t22.5 188.5l15 259h430v-664z" />
    <glyph glyph-name="uni0423" unicode="&#x423;" horiz-adv-x="575" 
d="M548 219q0 -119 -69.5 -180.5t-197.5 -61.5q-246 0 -247 237h123q1 -64 34.5 -95.5t92.5 -31.5q61 0 95 33t34 99v115q-22 -41 -70 -63.5t-110 -22.5q-97 0 -152 60.5t-55 183.5v172h137v-171q0 -66 33 -98.5t87 -32.5q59 0 94.5 35.5t35.5 94.5v172h135v-445z" />
    <glyph glyph-name="uni0426" unicode="&#x426;" horiz-adv-x="654" 
d="M643 -169h-99v169h-518v664h136v-546h264v546h137v-546h80v-287z" />
    <glyph glyph-name="uni0427" unicode="&#x427;" horiz-adv-x="570" 
d="M544 0h-135v264q-75 -32 -179 -32q-103 0 -155.5 46.5t-52.5 168.5v217h137v-214q0 -60 28.5 -82.5t87.5 -22.5q80 0 134 27v292h135v-664z" />
    <glyph glyph-name="uni0428" unicode="&#x428;" horiz-adv-x="820" 
d="M793 0h-767v664h136v-546h180v546h136v-546h180v546h135v-664z" />
    <glyph glyph-name="uni0429" unicode="&#x429;" horiz-adv-x="885" 
d="M875 -169h-100v169h-749v664h136v-546h180v546h136v-546h180v546h135v-546h82v-287z" />
    <glyph glyph-name="uni042A" unicode="&#x42a;" horiz-adv-x="718" 
d="M345 419h135q111 0 172.5 -52t61.5 -156q0 -101 -57.5 -156t-157.5 -55h-289v551h-202v113h337v-245zM490 311h-145v-199h145q48 0 76.5 27.5t28.5 72.5q0 44 -28 71.5t-77 27.5z" />
    <glyph glyph-name="uni042B" unicode="&#x42b;" horiz-adv-x="721" 
d="M696 0h-139v664h139v-664zM306 311h-145v-199h145q48 0 76.5 27.5t28.5 72.5q0 44 -28 71.5t-77 27.5zM161 419h154q101 0 158 -54.5t57 -154.5t-57 -155t-158 -55h-289v664h135v-245z" />
    <glyph glyph-name="uni042C" unicode="&#x42c;" horiz-adv-x="534" 
d="M306 311h-145v-199h145q48 0 76.5 27.5t28.5 72.5q0 44 -28 71.5t-77 27.5zM161 419h154q101 0 158 -54.5t57 -154.5t-57 -155t-158 -55h-289v664h135v-245z" />
    <glyph glyph-name="uni042D" unicode="&#x42d;" horiz-adv-x="613" 
d="M5 228h139q30 -130 151 -130q145 0 161 192h-223v114h219q-25 162 -164 162q-50 0 -90 -32.5t-54 -87.5h-139q10 104 86.5 172t197.5 68q143 0 226 -97t83 -265q0 -166 -85.5 -256.5t-221.5 -90.5q-114 0 -189.5 68t-96.5 183z" />
    <glyph glyph-name="uni042E" unicode="&#x42e;" horiz-adv-x="858" 
d="M162 0h-139v664h139v-271h44q16 139 97.5 216t217.5 77q152 0 234.5 -95.5t82.5 -267.5q0 -170 -81.5 -258t-235.5 -88q-143 0 -225.5 79.5t-92.5 227.5h-41v-284zM521 96q80 0 130 57.5t50 169.5q0 117 -46.5 178.5t-133.5 61.5q-88 0 -135 -61.5t-47 -178.5
q0 -227 182 -227z" />
    <glyph glyph-name="uni042F" unicode="&#x42f;" horiz-adv-x="578" 
d="M416 260h-98l-153 -260h-158l169 265q-76 13 -118 63.5t-42 133.5q0 97 57 149.5t158 52.5h320v-664h-135v260zM244 365h172v186h-172q-49 0 -76.5 -24.5t-27.5 -67.5t28 -68.5t76 -25.5z" />
    <glyph glyph-name="uni0431" unicode="&#x431;" horiz-adv-x="539" 
d="M269 -13q-118 0 -184.5 72.5t-66.5 200.5v83q0 179 53 253t180 74h56q38 0 57.5 14t25.5 57h77q-9 -79 -52.5 -127t-114.5 -48h-64q-53 0 -79.5 -41.5t-26.5 -111.5q51 74 167 74q104 0 163 -65.5t59 -177.5q0 -120 -67 -188.5t-183 -68.5zM267 93q124 0 124 153
q0 151 -123 151q-124 0 -124 -152t123 -152z" />
    <glyph glyph-name="uni0432" unicode="&#x432;" horiz-adv-x="504" 
d="M300 0h-271v492h293q82 0 120 -33t38 -86q0 -42 -21.5 -69.5t-58.5 -37.5q41 -9 68 -40t27 -85q0 -66 -47 -103.5t-148 -37.5zM153 92h128q85 0 85 67q0 66 -77 66h-136v-133zM153 293h131q68 0 68 55q0 56 -71 56h-128v-111z" />
    <glyph glyph-name="uni0433" unicode="&#x433;" horiz-adv-x="350" 
d="M157 0h-127v492h313v-104h-186v-388z" />
    <glyph glyph-name="uni0434" unicode="&#x434;" horiz-adv-x="588" 
d="M105 -149h-94v253h21q36 0 55 14t31 58t17 131l11 185h355v-388h76v-253h-94v149h-378v-149zM374 388h-135l-5 -88q-8 -142 -39 -196h179v284z" />
    <glyph glyph-name="uni0436" unicode="&#x436;" horiz-adv-x="685" 
d="M402 492v-188l121 188h148l-178 -241l185 -251h-153l-123 184v-184h-120v184l-123 -184h-153l185 251l-178 241h148l121 -188v188h120z" />
    <glyph glyph-name="uni0437" unicode="&#x437;" horiz-adv-x="469" 
d="M241 217h-45v84h42q83 0 83 60q0 57 -86 57q-50 0 -72 -19t-22 -60h-128q16 166 226 166q100 0 152 -36.5t52 -97.5q0 -41 -23.5 -68.5t-64.5 -38.5q45 -9 74.5 -40t29.5 -81q0 -72 -59.5 -114t-160.5 -42q-112 0 -168 49.5t-62 127.5h128q2 -43 25.5 -64.5t75.5 -21.5
q94 0 94 73q0 35 -22 50.5t-69 15.5z" />
    <glyph glyph-name="uni0438" unicode="&#x438;" horiz-adv-x="510" 
d="M154 0h-125v492h128v-320l188 320h135v-492h-127v334z" />
    <glyph glyph-name="uni0439" unicode="&#x439;" horiz-adv-x="510" 
d="M336 746h82q0 -79 -47.5 -122.5t-114.5 -43.5t-114.5 43.5t-47.5 122.5h82q2 -41 22.5 -64t57.5 -23t57.5 23t22.5 64zM154 0h-125v492h128v-320l188 320h135v-492h-127v334z" />
    <glyph glyph-name="uni043B" unicode="&#x43b;" horiz-adv-x="530" 
d="M501 0h-127v388h-135l-5 -88q-6 -97 -18 -155.5t-37.5 -91t-58.5 -43t-89 -10.5h-20v104h13q39 0 59 13t33.5 56.5t18.5 133.5l11 185h355v-492z" />
    <glyph glyph-name="uni043C" unicode="&#x43c;" horiz-adv-x="626" 
d="M597 0h-116v341l-106 -341h-125l-105 339v-339h-116v492h181l105 -350l105 350h177v-492z" />
    <glyph glyph-name="uni043D" unicode="&#x43d;" horiz-adv-x="510" 
d="M156 0h-127v492h127v-188h198v188h127v-492h-127v201h-198v-201z" />
    <glyph glyph-name="uni043F" unicode="&#x43f;" horiz-adv-x="510" 
d="M156 0h-127v492h452v-492h-127v388h-198v-388z" />
    <glyph glyph-name="uni0442" unicode="&#x442;" horiz-adv-x="479" 
d="M303 0h-127v388h-169v104h464v-104h-168v-388z" />
    <glyph glyph-name="uni0446" unicode="&#x446;" horiz-adv-x="568" 
d="M29 0v492h127v-389h197v389h127v-389h77v-252h-94v149h-434z" />
    <glyph glyph-name="uni0447" unicode="&#x447;" horiz-adv-x="502" 
d="M472 0h-127v194q-65 -25 -150 -25q-87 0 -130.5 37t-43.5 135v151h127v-149q0 -44 22 -61t68 -17q64 0 107 20v207h127v-492z" />
    <glyph glyph-name="uni0448" unicode="&#x448;" horiz-adv-x="747" 
d="M718 0h-689v492h127v-388h156v388h123v-388h156v388h127v-492z" />
    <glyph glyph-name="uni0449" unicode="&#x449;" horiz-adv-x="805" 
d="M794 -149h-94v149h-671v492h127v-388h156v388h123v-388h156v388h127v-388h76v-253z" />
    <glyph glyph-name="uni044A" unicode="&#x44a;" horiz-adv-x="677" 
d="M319 492v-157h145q199 0 199 -166q0 -169 -195 -169h-276v388h-185v104h312zM475 242h-156v-145h156q36 0 56 18.5t20 53.5t-20 54t-56 19z" />
    <glyph glyph-name="uni044B" unicode="&#x44b;" horiz-adv-x="705" 
d="M29 492h127v-157h164q85 0 132.5 -43t47.5 -123q0 -81 -47.5 -125t-132.5 -44h-291v492zM312 242h-156v-145h156q36 0 56 18.5t20 53.5q0 73 -76 73zM672 0h-130v492h130v-492z" />
    <glyph glyph-name="uni044C" unicode="&#x44c;" horiz-adv-x="513" 
d="M29 492h127v-157h164q85 0 132.5 -43t47.5 -123q0 -81 -47.5 -125t-132.5 -44h-291v492zM312 242h-156v-145h156q36 0 56 18.5t20 53.5q0 73 -76 73z" />
    <glyph glyph-name="uni044D" unicode="&#x44d;" horiz-adv-x="488" 
d="M342 215h-150v74h149q-7 58 -30 86.5t-75 28.5q-87 0 -96 -72h-129q14 90 79 131.5t148 41.5q103 0 166.5 -63.5t63.5 -193.5q0 -126 -61.5 -193.5t-169.5 -67.5q-85 0 -149.5 43t-77.5 130h128q0 -31 30 -52t69 -21q43 0 72 30.5t33 97.5z" />
    <glyph glyph-name="uni044E" unicode="&#x44e;" horiz-adv-x="731" 
d="M159 0h-130v492h130v-195h52q14 96 80 152t168 56q116 0 183.5 -70t67.5 -188t-67.5 -189t-183.5 -71q-104 0 -169.5 57.5t-79.5 154.5h-51v-199zM460 96q119 0 119 150q0 149 -119 149t-119 -149q0 -150 119 -150z" />
    <glyph glyph-name="uni044F" unicode="&#x44f;" horiz-adv-x="493" 
d="M464 0h-127v166h-90l-107 -166h-134l123 176q-112 30 -112 151q0 79 47.5 122t131.5 43h268v-492zM205 262h132v133h-132q-36 0 -56.5 -17t-20.5 -49q0 -33 20.5 -50t56.5 -17z" />
    <glyph glyph-name="uni0452" unicode="&#x452;" 
d="M472 348v-381q0 -88 -54.5 -144t-137.5 -56q-13 0 -31 2v116q10 -5 25 -5q38 0 52.5 24t14.5 69v332q0 52 -18.5 74.5t-58.5 22.5q-54 0 -81 -33.5t-27 -86.5v-282h-130v538h-26v91h26v43h130v-43h165v-91h-165v-110q15 34 55.5 55.5t92.5 21.5q74 0 121 -42.5t47 -114.5
z" />
    <glyph glyph-name="uni0453" unicode="&#x453;" horiz-adv-x="350" 
d="M343 648l-223 -94l-31 55l207 121zM157 0h-127v492h313v-104h-186v-388z" />
    <glyph glyph-name="uni0454" unicode="&#x454;" horiz-adv-x="488" 
d="M296 215h-150q4 -67 33 -97.5t72 -30.5q39 0 69 21t30 52h128q-13 -87 -77.5 -130t-149.5 -43q-108 0 -169.5 67.5t-61.5 193.5q0 130 63.5 193.5t166.5 63.5q83 0 148 -41.5t79 -131.5h-129q-9 72 -96 72q-52 0 -75 -28.5t-30 -86.5h149v-74z" />
    <glyph glyph-name="uni0459" unicode="&#x459;" horiz-adv-x="858" 
d="M665 0h-292v388h-135l-4 -72q-8 -138 -28.5 -204.5t-58.5 -89t-116 -22.5h-21v103h14q36 0 56.5 16t34.5 63.5t20 137.5l11 172h354v-157h150q92 0 143 -41t51 -125q0 -81 -47.5 -125t-131.5 -44zM656 242h-156v-145h156q36 0 56.5 18.5t20.5 53.5q0 36 -20.5 54.5
t-56.5 18.5z" />
    <glyph glyph-name="uni045A" unicode="&#x45a;" horiz-adv-x="771" 
d="M156 0h-127v492h127v-157h165v157h127v-157h117q193 0 193 -167q0 -168 -193 -168h-244v242h-165v-242zM570 242h-122v-145h122q36 0 56 18.5t20 53.5t-20 54t-56 19z" />
    <glyph glyph-name="uni045C" unicode="&#x45c;" horiz-adv-x="483" 
d="M399 648l-223 -94l-31 55l207 121zM474 0h-146l-108 221l-63 -65v-156h-131v492h131v-187l162 187h159l-165 -181z" />
    <glyph glyph-name="uni045D" unicode="&#x45d;" horiz-adv-x="510" 
d="M322 554l-223 94l47 82l207 -121zM154 0h-125v492h128v-320l188 320h135v-492h-127v334z" />
    <glyph glyph-name="uni045E" unicode="&#x45e;" horiz-adv-x="502" 
d="M339 -15v80q-13 -32 -49.5 -51t-83.5 -19q-78 0 -129 49t-51 129v319h130v-300q0 -92 83 -92q44 0 72 26t28 66v300h130v-505q0 -101 -64 -160.5t-162 -59.5q-106 0 -161.5 54.5t-55.5 151.5h121q0 -44 26 -69t76 -25q37 0 63.5 29.5t26.5 76.5zM332 746h82
q0 -79 -47.5 -122.5t-114.5 -43.5t-114.5 43.5t-47.5 122.5h82q2 -41 22.5 -64t57.5 -23t57.5 23t22.5 64z" />
    <glyph glyph-name="uni045F" unicode="&#x45f;" horiz-adv-x="510" 
d="M29 0v492h127v-389h197v389h127v-492h-179v-149h-94v149h-178z" />
    <glyph glyph-name="uni0490" unicode="&#x490;" horiz-adv-x="501" 
d="M22 664h367v169h100v-282h-331v-551h-136v664z" />
    <glyph glyph-name="uni0491" unicode="&#x491;" horiz-adv-x="350" 
d="M342 388h-186v-388h-127v492h219v149h94v-253z" />
    <glyph glyph-name="uni0492" unicode="&#x492;" horiz-adv-x="556" 
d="M381 278h-168v-278h-135v278h-75v84h75v302h466v-113h-331v-189h168v-84z" />
    <glyph glyph-name="uni0493" unicode="&#x493;" horiz-adv-x="395" 
d="M202 0h-127v175h-75v84h75v233h313v-104h-186v-129h176v-84h-176v-175z" />
    <glyph glyph-name="uni0496" unicode="&#x496;" horiz-adv-x="951" 
d="M940 -169h-99v169h-126l-206 273v-273h-130v273l-206 -273h-166l279 338l-266 326h161l198 -246v246h130v-246l198 246h161l-267 -326l181 -220h158v-287z" />
    <glyph glyph-name="uni0497" unicode="&#x497;" horiz-adv-x="747" 
d="M402 492v-188l121 188h148l-178 -241l108 -147h135v-253h-94v149h-117l-123 184v-184h-120v184l-123 -184h-153l185 251l-178 241h148l121 -188v188h120z" />
    <glyph glyph-name="uni0498" unicode="&#x498;" horiz-adv-x="564" 
d="M292 291h-67v115h62q56 0 87.5 24.5t31.5 64.5q0 78 -123 78q-70 0 -102 -26.5t-32 -84.5h-131q0 104 64 164t202 60q126 0 191 -49.5t65 -132.5q0 -56 -28.5 -94.5t-81.5 -52.5q59 -11 95 -54.5t36 -112.5q0 -99 -73.5 -155.5t-203.5 -57.5q110 -50 110 -125
q0 -40 -28.5 -62.5t-80.5 -22.5q-70 0 -105 26v84q28 -10 53 -10q10 0 15 5q52 3 52 32q0 21 -15 37.5t-61 39.5q-111 13 -164.5 75.5t-53.5 158.5h134q4 -62 38 -92.5t108 -30.5q138 0 138 106q0 52 -32.5 72.5t-99.5 20.5z" />
    <glyph glyph-name="uni0499" unicode="&#x499;" horiz-adv-x="469" 
d="M241 217h-45v84h42q83 0 83 60q0 57 -86 57q-50 0 -72 -19t-22 -60h-128q16 166 226 166q100 0 152 -36.5t52 -97.5q0 -41 -23.5 -68.5t-64.5 -38.5q45 -9 74.5 -40t29.5 -81q0 -72 -59.5 -114t-160.5 -42q135 -52 135 -135q0 -40 -28.5 -62.5t-80.5 -22.5q-71 0 -104 26
v84q22 -10 53 -10q66 0 66 36q0 24 -19 43t-80 46q-83 12 -125 58.5t-47 113.5h128q2 -43 25.5 -64.5t75.5 -21.5q94 0 94 73q0 35 -22 50.5t-69 15.5z" />
    <glyph glyph-name="uni049A" unicode="&#x49a;" horiz-adv-x="672" 
d="M661 -169h-99v169h-131l-197 299l-74 -73v-226h-137v664h137v-270l254 270h180l-262 -262l189 -284h140v-287z" />
    <glyph glyph-name="uni049B" unicode="&#x49b;" horiz-adv-x="543" 
d="M533 -149h-94v149h-111l-108 221l-63 -65v-156h-131v492h131v-187l162 187h159l-165 -181l107 -207h113v-253z" />
    <glyph glyph-name="uni04A0" unicode="&#x4a0;" horiz-adv-x="788" 
d="M785 0h-165l-199 301l-78 -76v-225h-133v551h-202v113h335v-274l260 274h175l-262 -262z" />
    <glyph glyph-name="uni04A1" unicode="&#x4a1;" horiz-adv-x="646" 
d="M639 0h-143l-110 223l-66 -67v-156h-128v388h-185v104h313v-190l167 190h156l-167 -181z" />
    <glyph glyph-name="uni04A2" unicode="&#x4a2;" horiz-adv-x="654" 
d="M643 -169h-99v169h-118v300h-264v-300h-136v664h136v-251h264v251h137v-546h80v-287z" />
    <glyph glyph-name="uni04A3" unicode="&#x4a3;" horiz-adv-x="568" 
d="M557 -149h-94v149h-109v201h-198v-201h-127v492h127v-188h198v188h127v-388h76v-253z" />
    <glyph glyph-name="uni04AA" unicode="&#x4aa;" horiz-adv-x="613" 
d="M469 228h139q-21 -115 -97.5 -183t-192.5 -68q111 -51 111 -127q0 -39 -29 -61t-85 -22q-68 0 -99 26v84q22 -10 55 -10q64 0 64 40q0 19 -18 36.5t-66 40.5q-109 23 -172.5 110.5t-63.5 232.5q0 166 83 262.5t226 96.5q121 0 197.5 -68t86.5 -172h-139q-15 56 -53.5 88
t-96.5 32q-79 0 -121 -62t-42 -174q0 -111 41.5 -171.5t121.5 -60.5q59 0 97.5 33.5t52.5 96.5z" />
    <glyph glyph-name="uni04AB" unicode="&#x4ab;" horiz-adv-x="481" 
d="M338 178h131q-10 -83 -70 -135t-146 -56q136 -52 136 -137q0 -39 -29.5 -61t-85.5 -22q-68 0 -99 26v84q23 -10 55 -10q64 0 64 40q0 20 -20.5 39t-77.5 45q-83 14 -131 81t-48 180q0 128 61 190.5t169 62.5q96 0 156.5 -51t66.5 -138h-131q-5 38 -30.5 59.5t-62.5 21.5
q-100 0 -100 -142q0 -76 27.5 -117.5t68.5 -41.5q39 0 65.5 21.5t30.5 60.5z" />
    <glyph glyph-name="uni04B2" unicode="&#x4b2;" horiz-adv-x="669" 
d="M658 -169h-99v169h-132l-127 228l-134 -228h-162l215 339l-203 325h164l120 -215l121 215h161l-202 -319l142 -227h136v-287z" />
    <glyph glyph-name="uni04B3" unicode="&#x4b3;" horiz-adv-x="556" 
d="M546 -149h-94v149h-123l-86 148l-84 -148h-156l165 251l-160 241h157l83 -143l84 143h151l-163 -241l98 -147h128v-253z" />
    <glyph glyph-name="uni04B6" unicode="&#x4b6;" horiz-adv-x="636" 
d="M625 -169h-99v169h-117v264q-75 -32 -179 -32q-103 0 -155.5 46.5t-52.5 168.5v217h137v-214q0 -60 28.5 -82.5t87.5 -22.5q80 0 134 27v292h135v-546h81v-287z" />
    <glyph glyph-name="uni04B7" unicode="&#x4b7;" horiz-adv-x="560" 
d="M549 -149h-94v149h-110v194q-65 -25 -150 -25q-87 0 -130.5 37t-43.5 135v151h127v-149q0 -44 22 -61t68 -17q64 0 107 20v207h127v-388h77v-253z" />
    <glyph glyph-name="uni04BA" unicode="&#x4ba;" horiz-adv-x="570" 
d="M26 664h135v-264q75 32 179 32q103 0 155.5 -46.5t52.5 -168.5v-217h-137v214q0 60 -28.5 82.5t-87.5 22.5q-80 0 -134 -27v-292h-135v664z" />
    <glyph glyph-name="uni04C3" unicode="&#x4c3;" horiz-adv-x="604" 
d="M583 -49q0 -81 -49.5 -132.5t-138.5 -51.5q-90 0 -140 55t-50 151h119q2 -93 71 -93q32 0 49.5 17.5t17.5 50.5q0 28 -14 57t-49 76l-163 220l-77 -76v-225h-133v664h133v-275l259 275h176l-262 -262l180 -264q71 -105 71 -187z" />
    <glyph glyph-name="uni04C4" unicode="&#x4c4;" horiz-adv-x="483" 
d="M313 311l112 -216q40 -77 40 -152q0 -83 -50 -129.5t-131 -46.5q-85 0 -132.5 50.5t-49.5 140.5h109q3 -82 63 -82q30 0 46.5 19.5t16.5 52.5q0 37 -32 104l-82 171l-66 -67v-156h-128v492h128v-190l168 190h155z" />
    <glyph glyph-name="uni04C7" unicode="&#x4c7;" horiz-adv-x="587" 
d="M426 -28v328h-264v-300h-136v664h136v-251h264v251h137v-697q0 -89 -58 -144.5t-150 -55.5q-90 0 -141 55t-51 151h119q1 -46 17.5 -69.5t54.5 -23.5q72 0 72 92z" />
    <glyph glyph-name="uni04C8" unicode="&#x4c8;" horiz-adv-x="510" 
d="M156 0h-127v492h127v-188h197v188h127v-531q0 -87 -53.5 -140.5t-142.5 -53.5q-87 0 -135 53.5t-48 145.5h119q1 -43 15.5 -64.5t50.5 -21.5q67 0 67 86v234h-197v-200z" />
    <glyph glyph-name="uni04E8" unicode="&#x4e8;" horiz-adv-x="670" 
d="M334 -23q-153 0 -236 90.5t-83 258.5q0 170 83.5 265t235.5 95t234.5 -95.5t82.5 -267.5q0 -170 -81.5 -258t-235.5 -88zM334 96q71 0 119.5 46t57.5 137h-357q17 -183 180 -183zM334 563q-150 0 -177 -169h351q-26 169 -174 169z" />
    <glyph glyph-name="uni04E9" unicode="&#x4e9;" horiz-adv-x="539" 
d="M268 -13q-118 0 -185.5 71t-67.5 188q0 118 68.5 188.5t184.5 70.5q115 0 182.5 -70.5t67.5 -188.5q0 -117 -68 -188t-182 -71zM268 96q100 0 116 106h-232q15 -106 116 -106zM268 395q-98 0 -116 -102h231q-17 102 -115 102z" />
    <glyph glyph-name="uni04EE" unicode="&#x4ee;" horiz-adv-x="575" 
d="M479 774h-381v91h381v-91zM548 219q0 -119 -69.5 -180.5t-197.5 -61.5q-246 0 -247 237h123q1 -64 34.5 -95.5t92.5 -31.5q61 0 95 33t34 99v115q-22 -41 -70 -63.5t-110 -22.5q-97 0 -152 60.5t-55 183.5v172h137v-171q0 -66 33 -98.5t87 -32.5q59 0 94.5 35.5
t35.5 94.5v172h135v-445z" />
    <glyph glyph-name="uni04EF" unicode="&#x4ef;" horiz-adv-x="502" 
d="M339 -15v80q-13 -32 -49.5 -51t-83.5 -19q-78 0 -129 49t-51 129v319h130v-300q0 -92 83 -92q44 0 72 26t28 66v300h130v-505q0 -101 -64 -160.5t-162 -59.5q-106 0 -161.5 54.5t-55.5 151.5h121q0 -44 26 -69t76 -25q37 0 63.5 29.5t26.5 76.5zM443 602h-381v91h381v-91
z" />
    <glyph glyph-name="uni0512" unicode="&#x512;" horiz-adv-x="628" 
d="M466 -28v579h-179l-8 -146q-6 -106 -17.5 -176.5t-28.5 -117t-46.5 -70t-64.5 -32.5t-89 -9h-25v118h16q49 0 73 19t38.5 79.5t22.5 188.5l15 259h430v-697q0 -89 -59.5 -144.5t-152.5 -55.5q-90 0 -139 55t-49 151h119q1 -46 17 -69.5t55 -23.5q72 0 72 92z" />
    <glyph glyph-name="uni0513" unicode="&#x513;" horiz-adv-x="530" 
d="M374 -34v422h-135l-5 -88q-6 -97 -18 -155.5t-37.5 -91t-58.5 -43t-89 -10.5h-20v104h13q39 0 59 13t33.5 56.5t18.5 133.5l11 185h355v-532q0 -87 -53.5 -140t-142.5 -53q-88 0 -135.5 53t-47.5 146h119q0 -86 65 -86q68 0 68 86z" />
    <glyph glyph-name="uni058F" unicode="&#x58f;" horiz-adv-x="488" 
d="M483 126h-54v-126h-136v126h-188v84h188v72h-188v84h188v114q0 96 -82 96q-81 0 -81 -96v-67h-123v68q0 206 206 206q105 0 160.5 -53t55.5 -149v-119h54v-84h-54v-72h54v-84z" />
    <glyph glyph-name="uni1E0C" unicode="&#x1e0c;" horiz-adv-x="607" 
d="M158 113h115q90 0 131.5 56t41.5 170q0 113 -42.5 161.5t-142.5 48.5h-103v-436zM301 0h-278v664h257q137 0 222.5 -88t85.5 -237q0 -152 -79 -245.5t-208 -93.5zM351 -206h-130v124h130v-124z" />
    <glyph glyph-name="uni1E0D" unicode="&#x1e0d;" horiz-adv-x="523" 
d="M259 93q47 0 78.5 39.5t31.5 101.5q0 160 -109 160q-112 0 -112 -152q0 -66 31 -107.5t80 -41.5zM492 0h-125l-1 60q-45 -73 -137 -73q-95 0 -154 71t-59 193q0 114 54 184t148 70q91 0 146 -77v244h128v-672zM321 -206h-130v124h130v-124z" />
    <glyph glyph-name="uni1E12" unicode="&#x1e12;" horiz-adv-x="607" 
d="M158 113h115q90 0 131.5 56t41.5 170q0 113 -42.5 161.5t-142.5 48.5h-103v-436zM301 0h-278v664h257q137 0 222.5 -88t85.5 -237q0 -152 -79 -245.5t-208 -93.5zM417 -227l-135 118l-135 -118l-46 51l128 134h106l128 -134z" />
    <glyph glyph-name="uni1E13" unicode="&#x1e13;" horiz-adv-x="523" 
d="M259 93q47 0 78.5 39.5t31.5 101.5q0 160 -109 160q-112 0 -112 -152q0 -66 31 -107.5t80 -41.5zM492 0h-125l-1 60q-45 -73 -137 -73q-95 0 -154 71t-59 193q0 114 54 184t148 70q91 0 146 -77v244h128v-672zM388 -227l-135 118l-135 -118l-46 51l128 134h106l128 -134z
" />
    <glyph glyph-name="uni1E24" unicode="&#x1e24;" horiz-adv-x="587" 
d="M561 0h-140v298h-259v-298h-139v664h139v-250h259v250h140v-664zM363 -206h-130v124h130v-124z" />
    <glyph glyph-name="uni1E25" unicode="&#x1e25;" 
d="M472 0h-131v305q0 54 -19.5 75.5t-64.5 21.5q-47 0 -74 -34t-27 -86v-282h-130v672h130v-244q14 33 55 55t90 22q77 0 124 -42t47 -115v-348zM321 -206h-130v124h130v-124z" />
    <glyph glyph-name="uni1E3C" unicode="&#x1e3c;" horiz-adv-x="501" 
d="M491 0h-468v664h139v-543h329v-121zM397 -227l-135 118l-135 -118l-46 51l128 134h106l128 -134z" />
    <glyph glyph-name="uni1E3D" unicode="&#x1e3d;" horiz-adv-x="237" 
d="M182 0h-130v672h130v-672zM255 -227l-135 118l-135 -118l-46 51l128 134h106l128 -134z" />
    <glyph glyph-name="uni1E44" unicode="&#x1e44;" horiz-adv-x="591" 
d="M564 0h-128l-284 446v-446h-129v664h147l264 -427v427h130v-664zM365 751h-130v124h130v-124z" />
    <glyph glyph-name="uni1E45" unicode="&#x1e45;" 
d="M472 0h-131v298q0 56 -18.5 76.5t-65.5 20.5q-101 0 -101 -113v-282h-130v492h124v-72q46 85 159 85q73 0 118 -43t45 -121v-341zM322 579h-130v124h130v-124z" />
    <glyph glyph-name="uni1E4A" unicode="&#x1e4a;" horiz-adv-x="591" 
d="M564 0h-128l-284 446v-446h-129v664h147l264 -427v427h130v-664zM432 -227l-135 118l-135 -118l-46 51l128 134h106l128 -134z" />
    <glyph glyph-name="uni1E4B" unicode="&#x1e4b;" 
d="M472 0h-131v298q0 56 -18.5 76.5t-65.5 20.5q-101 0 -101 -113v-282h-130v492h124v-72q46 85 159 85q73 0 118 -43t45 -121v-341zM388 -227l-135 118l-135 -118l-46 51l128 134h106l128 -134z" />
    <glyph glyph-name="uni1E5A" unicode="&#x1e5a;" horiz-adv-x="578" 
d="M337 549h-179v-177h174q102 0 102 88q0 89 -97 89zM546 0h-136v171q0 49 -22.5 69t-81.5 20h-148v-260h-135v664h337q91 0 147.5 -54t56.5 -138q0 -54 -26 -95.5t-73 -58.5q45 -14 63 -43t18 -87v-188zM359 -206h-130v124h130v-124z" />
    <glyph glyph-name="uni1E5B" unicode="&#x1e5b;" horiz-adv-x="321" 
d="M156 0h-130v492h122v-59q29 45 63.5 58.5t82.5 13.5h17v-133q-18 3 -36 3q-119 0 -119 -119v-256zM163 -206h-130v124h130v-124z" />
    <glyph glyph-name="uni1E62" unicode="&#x1e62;" horiz-adv-x="563" 
d="M531 468h-132q-10 101 -132 101q-119 0 -119 -78q0 -32 24 -51.5t79 -32.5q146 -35 197 -58q49 -22 76.5 -59t27.5 -102q0 -106 -71.5 -158.5t-193.5 -52.5q-127 0 -203 56.5t-78 165.5h134q1 -51 41 -80.5t107 -29.5q61 0 95 25t34 69q0 31 -22 51t-81 33
q-133 29 -182 51q-111 50 -111 164q0 92 62.5 148t180.5 56q123 0 193 -60t74 -158zM351 -206h-130v124h130v-124z" />
    <glyph glyph-name="uni1E63" unicode="&#x1e63;" horiz-adv-x="472" 
d="M447 343h-125q-5 36 -26 50.5t-66 14.5q-77 0 -77 -41q0 -20 18.5 -32t61.5 -24q19 -6 51.5 -14t55.5 -14.5t40 -13.5q81 -33 81 -119q0 -77 -55.5 -120t-159.5 -43q-111 0 -173 47t-64 124h134q0 -34 27.5 -53.5t74.5 -19.5q38 0 62.5 12.5t24.5 38.5q0 24 -20 35.5
t-59 20.5q-121 29 -164 56q-62 39 -62 111q0 67 50 106.5t157 39.5q105 0 156.5 -40.5t56.5 -121.5zM306 -206h-130v124h130v-124z" />
    <glyph glyph-name="uni1E6C" unicode="&#x1e6c;" horiz-adv-x="554" 
d="M343 0h-139v548h-200v116h540v-116h-201v-548zM347 -206h-130v124h130v-124z" />
    <glyph glyph-name="uni1E6D" unicode="&#x1e6d;" horiz-adv-x="453" 
d="M305 196v128h121v-140q0 -84 -50.5 -140.5t-148.5 -56.5q-102 0 -151.5 56t-49.5 142v440h128v-133h272v-92h-272v-202q0 -98 75 -98q76 0 76 96zM296 -206h-130v124h130v-124z" />
    <glyph glyph-name="Wgrave" unicode="&#x1e80;" horiz-adv-x="856" 
d="M663 0h-134l-103 432l-105 -432h-130l-188 664h148l109 -430l92 430h146l101 -430l108 430h142zM495 726l-223 94l47 82l207 -121z" />
    <glyph glyph-name="wgrave" unicode="&#x1e81;" horiz-adv-x="714" 
d="M565 0h-133l-78 286l-78 -286h-133l-140 492h137l80 -316l68 316h132l77 -316l75 316h134zM424 554l-223 94l47 82l207 -121z" />
    <glyph glyph-name="Wacute" unicode="&#x1e82;" horiz-adv-x="856" 
d="M663 0h-134l-103 432l-105 -432h-130l-188 664h148l109 -430l92 430h146l101 -430l108 430h142zM586 820l-223 -94l-31 55l207 121z" />
    <glyph glyph-name="wacute" unicode="&#x1e83;" horiz-adv-x="714" 
d="M565 0h-133l-78 286l-78 -286h-133l-140 492h137l80 -316l68 316h132l77 -316l75 316h134zM515 648l-223 -94l-31 55l207 121z" />
    <glyph glyph-name="Wdieresis" unicode="&#x1e84;" horiz-adv-x="856" 
d="M663 0h-134l-103 432l-105 -432h-130l-188 664h148l109 -430l92 430h146l101 -430l108 430h142zM397 751h-130v124h130v-124zM597 751h-130v124h130v-124z" />
    <glyph glyph-name="wdieresis" unicode="&#x1e85;" horiz-adv-x="714" 
d="M565 0h-133l-78 286l-78 -286h-133l-140 492h137l80 -316l68 316h132l77 -316l75 316h134zM326 579h-130v124h130v-124zM526 579h-130v124h130v-124z" />
    <glyph glyph-name="uni1E92" unicode="&#x1e92;" horiz-adv-x="532" 
d="M523 0h-519v118l345 430h-335v116h509v-109l-347 -437h347v-118zM336 -206h-130v124h130v-124z" />
    <glyph glyph-name="uni1E93" unicode="&#x1e93;" horiz-adv-x="445" 
d="M433 0h-424v100l251 289h-234v103h400v-105l-251 -281h258v-106zM292 -206h-130v124h130v-124z" />
    <glyph glyph-name="uni1E9E" unicode="&#x1e9e;" horiz-adv-x="603" 
d="M297 664h246v-106l-129 -134q89 -13 136.5 -68t47.5 -142q0 -105 -66 -166t-173 -61q-69 0 -118 19v106q39 -18 93 -18q60 0 96 31.5t36 88.5t-35.5 88.5t-89.5 31.5q-38 0 -72 -17v95l134 148h-106q-79 0 -105.5 -42.5t-26.5 -138.5v-379h-139v430q0 113 70 173.5
t201 60.5z" />
    <glyph glyph-name="uni1EA0" unicode="&#x1ea0;" horiz-adv-x="643" 
d="M402 251l-83 264h-1l-85 -264h169zM635 0h-151l-42 137h-245l-47 -137h-147l237 664h161zM391 -206h-130v124h130v-124z" />
    <glyph glyph-name="uni1EA1" unicode="&#x1ea1;" horiz-adv-x="486" 
d="M324 187l1 54q-16 -16 -84 -29q-55 -10 -76.5 -27.5t-21.5 -49.5q0 -55 63 -55q50 0 83.5 31.5t34.5 75.5zM455 0h-121q-6 19 -8 44q-52 -57 -149 -57q-81 0 -122.5 36.5t-41.5 98.5q0 41 12 71t28.5 47t50.5 29t60 17t75 12q48 7 65.5 18.5t17.5 37.5q0 24 -22.5 37.5
t-60.5 13.5q-79 0 -89 -73h-121q3 173 216 173q113 0 161.5 -48.5t48.5 -145.5v-311zM312 -206h-130v124h130v-124z" />
    <glyph glyph-name="uni1EA2" unicode="&#x1ea2;" horiz-adv-x="643" 
d="M402 251l-83 264h-1l-85 -264h169zM635 0h-151l-42 137h-245l-47 -137h-147l237 664h161zM344 753h-50q0 38 25 53q23 13 23 30t-24 17q-20 0 -41 -15l-18 55q29 25 70 25q34 0 54 -16.5t20 -44.5q0 -19 -9 -33.5t-20.5 -22t-20.5 -20t-9 -28.5z" />
    <glyph glyph-name="uni1EA3" unicode="&#x1ea3;" horiz-adv-x="486" 
d="M324 187l1 54q-16 -16 -84 -29q-55 -10 -76.5 -27.5t-21.5 -49.5q0 -55 63 -55q50 0 83.5 31.5t34.5 75.5zM455 0h-121q-6 19 -8 44q-52 -57 -149 -57q-81 0 -122.5 36.5t-41.5 98.5q0 41 12 71t28.5 47t50.5 29t60 17t75 12q48 7 65.5 18.5t17.5 37.5q0 24 -22.5 37.5
t-60.5 13.5q-79 0 -89 -73h-121q3 173 216 173q113 0 161.5 -48.5t48.5 -145.5v-311zM271 581h-50q0 38 25 53q23 13 23 30t-24 17q-20 0 -41 -15l-18 55q29 25 70 25q34 0 54 -16.5t20 -44.5q0 -24 -15 -40t-29.5 -30.5t-14.5 -33.5z" />
    <glyph glyph-name="uni1EA4" unicode="&#x1ea4;" horiz-adv-x="643" 
d="M402 251l-83 264h-1l-85 -264h169zM635 0h-151l-42 137h-245l-47 -137h-147l237 664h161zM437 743l-116 101l-116 -101l-39 44l110 115h91l110 -115zM690 834l-185 -78l-25 46l171 100z" />
    <glyph glyph-name="uni1EA5" unicode="&#x1ea5;" horiz-adv-x="486" 
d="M324 187l1 54q-16 -16 -84 -29q-55 -10 -76.5 -27.5t-21.5 -49.5q0 -55 63 -55q50 0 83.5 31.5t34.5 75.5zM455 0h-121q-6 19 -8 44q-52 -57 -149 -57q-81 0 -122.5 36.5t-41.5 98.5q0 41 12 71t28.5 47t50.5 29t60 17t75 12q48 7 65.5 18.5t17.5 37.5q0 24 -22.5 37.5
t-60.5 13.5q-79 0 -89 -73h-121q3 173 216 173q113 0 161.5 -48.5t48.5 -145.5v-311zM363 571l-116 101l-116 -101l-39 44l110 115h91l110 -115zM616 662l-185 -78l-25 46l171 100z" />
    <glyph glyph-name="uni1EA6" unicode="&#x1ea6;" horiz-adv-x="643" 
d="M402 251l-83 264h-1l-85 -264h169zM635 0h-151l-42 137h-245l-47 -137h-147l237 664h161zM448 743l-116 101l-116 -101l-40 44l110 115h91l110 -115zM652 756l-185 78l39 68l171 -100z" />
    <glyph glyph-name="uni1EA7" unicode="&#x1ea7;" horiz-adv-x="486" 
d="M324 187l1 54q-16 -16 -84 -29q-55 -10 -76.5 -27.5t-21.5 -49.5q0 -55 63 -55q50 0 83.5 31.5t34.5 75.5zM455 0h-121q-6 19 -8 44q-52 -57 -149 -57q-81 0 -122.5 36.5t-41.5 98.5q0 41 12 71t28.5 47t50.5 29t60 17t75 12q48 7 65.5 18.5t17.5 37.5q0 24 -22.5 37.5
t-60.5 13.5q-79 0 -89 -73h-121q3 173 216 173q113 0 161.5 -48.5t48.5 -145.5v-311zM362 571l-116 101l-116 -101l-40 44l110 115h91l110 -115zM566 584l-185 78l39 68l171 -100z" />
    <glyph glyph-name="uni1EA8" unicode="&#x1ea8;" horiz-adv-x="643" 
d="M402 251l-83 264h-1l-85 -264h169zM635 0h-151l-42 137h-245l-47 -137h-147l237 664h161zM554 753h-50q0 38 25 53q23 13 23 30t-24 17q-20 0 -41 -15l-18 55q29 25 70 25q34 0 54 -16.5t20 -44.5q0 -19 -9 -33.5t-20.5 -22t-20.5 -20t-9 -28.5zM444 743l-116 101
l-116 -101l-40 44l110 115h91l110 -115z" />
    <glyph glyph-name="uni1EA9" unicode="&#x1ea9;" horiz-adv-x="486" 
d="M324 187l1 54q-16 -16 -84 -29q-55 -10 -76.5 -27.5t-21.5 -49.5q0 -55 63 -55q50 0 83.5 31.5t34.5 75.5zM455 0h-121q-6 19 -8 44q-52 -57 -149 -57q-81 0 -122.5 36.5t-41.5 98.5q0 41 12 71t28.5 47t50.5 29t60 17t75 12q48 7 65.5 18.5t17.5 37.5q0 24 -22.5 37.5
t-60.5 13.5q-79 0 -89 -73h-121q3 173 216 173q113 0 161.5 -48.5t48.5 -145.5v-311zM471 581h-50q0 38 25 53q23 13 23 30t-24 17q-20 0 -41 -15l-18 55q29 25 70 25q34 0 54 -16.5t20 -44.5q0 -24 -15 -40t-29.5 -30.5t-14.5 -33.5zM361 571l-116 101l-116 -101l-40 44
l110 115h91l110 -115z" />
    <glyph glyph-name="uni1EAA" unicode="&#x1eaa;" horiz-adv-x="643" 
d="M402 251l-83 264h-1l-85 -264h169zM635 0h-151l-42 137h-245l-47 -137h-147l237 664h161zM400 918l51 -14q-15 -61 -78 -61q-18 0 -53.5 10t-46.5 10q-16 0 -28 -32l-49 20q17 63 70 63q25 0 58 -11.5t48 -11.5q23 0 28 27zM458 756l-34 -30l-102 70l-101 -70l-35 30
l96 80h80z" />
    <glyph glyph-name="uni1EAB" unicode="&#x1eab;" horiz-adv-x="486" 
d="M324 187l1 54q-16 -16 -84 -29q-55 -10 -76.5 -27.5t-21.5 -49.5q0 -55 63 -55q50 0 83.5 31.5t34.5 75.5zM455 0h-121q-6 19 -8 44q-52 -57 -149 -57q-81 0 -122.5 36.5t-41.5 98.5q0 41 12 71t28.5 47t50.5 29t60 17t75 12q48 7 65.5 18.5t17.5 37.5q0 24 -22.5 37.5
t-60.5 13.5q-79 0 -89 -73h-121q3 173 216 173q113 0 161.5 -48.5t48.5 -145.5v-311zM327 746l51 -14q-15 -61 -78 -61q-18 0 -53.5 10t-46.5 10q-16 0 -28 -32l-49 20q17 63 70 63q25 0 58 -11.5t48 -11.5q23 0 28 27zM385 584l-34 -30l-102 70l-101 -70l-35 30l96 80h80z
" />
    <glyph glyph-name="uni1EAC" unicode="&#x1eac;" horiz-adv-x="643" 
d="M402 251l-83 264h-1l-85 -264h169zM635 0h-151l-42 137h-245l-47 -137h-147l237 664h161zM457 733l-135 118l-135 -118l-46 51l128 134h106l128 -134zM391 -206h-130v124h130v-124z" />
    <glyph glyph-name="uni1EAD" unicode="&#x1ead;" horiz-adv-x="486" 
d="M324 187l1 54q-16 -16 -84 -29q-55 -10 -76.5 -27.5t-21.5 -49.5q0 -55 63 -55q50 0 83.5 31.5t34.5 75.5zM455 0h-121q-6 19 -8 44q-52 -57 -149 -57q-81 0 -122.5 36.5t-41.5 98.5q0 41 12 71t28.5 47t50.5 29t60 17t75 12q48 7 65.5 18.5t17.5 37.5q0 24 -22.5 37.5
t-60.5 13.5q-79 0 -89 -73h-121q3 173 216 173q113 0 161.5 -48.5t48.5 -145.5v-311zM379 561l-135 118l-135 -118l-46 51l128 134h106l128 -134zM303 -206h-130v124h130v-124z" />
    <glyph glyph-name="uni1EAE" unicode="&#x1eae;" horiz-adv-x="643" 
d="M402 251l-83 264h-1l-85 -264h169zM635 0h-151l-42 137h-245l-47 -137h-147l237 664h161zM376 840h57q0 -54 -33 -84t-79 -30t-78.5 30t-32.5 84h57q0 -28 14.5 -44t39.5 -16q53 0 55 60zM421 871l-128 -55l-18 33l119 69z" />
    <glyph glyph-name="uni1EAF" unicode="&#x1eaf;" horiz-adv-x="486" 
d="M324 187l1 54q-16 -16 -84 -29q-55 -10 -76.5 -27.5t-21.5 -49.5q0 -55 63 -55q50 0 83.5 31.5t34.5 75.5zM455 0h-121q-6 19 -8 44q-52 -57 -149 -57q-81 0 -122.5 36.5t-41.5 98.5q0 41 12 71t28.5 47t50.5 29t60 17t75 12q48 7 65.5 18.5t17.5 37.5q0 24 -22.5 37.5
t-60.5 13.5q-79 0 -89 -73h-121q3 173 216 173q113 0 161.5 -48.5t48.5 -145.5v-311zM298 668h57q0 -54 -33 -84t-79 -30t-78.5 30t-32.5 84h57q0 -28 14.5 -44t39.5 -16q53 0 55 60zM343 699l-128 -55l-18 33l119 69z" />
    <glyph glyph-name="uni1EB0" unicode="&#x1eb0;" horiz-adv-x="643" 
d="M402 251l-83 264h-1l-85 -264h169zM635 0h-151l-42 137h-245l-47 -137h-147l237 664h161zM376 840h57q0 -54 -32.5 -84t-78.5 -30t-79 30t-33 84h57q2 -60 55 -60q25 0 39.5 16t14.5 44zM350 816l-128 55l27 47l119 -69z" />
    <glyph glyph-name="uni1EB1" unicode="&#x1eb1;" horiz-adv-x="486" 
d="M324 187l1 54q-16 -16 -84 -29q-55 -10 -76.5 -27.5t-21.5 -49.5q0 -55 63 -55q50 0 83.5 31.5t34.5 75.5zM455 0h-121q-6 19 -8 44q-52 -57 -149 -57q-81 0 -122.5 36.5t-41.5 98.5q0 41 12 71t28.5 47t50.5 29t60 17t75 12q48 7 65.5 18.5t17.5 37.5q0 24 -22.5 37.5
t-60.5 13.5q-79 0 -89 -73h-121q3 173 216 173q113 0 161.5 -48.5t48.5 -145.5v-311zM302 668h57q0 -54 -32.5 -84t-78.5 -30t-79 30t-33 84h57q2 -60 55 -60q25 0 39.5 16t14.5 44zM276 644l-128 55l27 47l119 -69z" />
    <glyph glyph-name="uni1EB2" unicode="&#x1eb2;" horiz-adv-x="643" 
d="M402 251l-83 264h-1l-85 -264h169zM635 0h-151l-42 137h-245l-47 -137h-147l237 664h161zM376 840h57q0 -54 -32.5 -84t-78.5 -30t-79 30t-33 84h57q2 -60 55 -60q25 0 39.5 16t14.5 44zM333 795h-37q0 29 19 40q17 10 17 22q0 13 -18 13q-13 0 -31 -11l-13 40
q22 19 52 19q25 0 40 -12.5t15 -32.5q0 -22 -22 -41.5t-22 -36.5z" />
    <glyph glyph-name="uni1EB3" unicode="&#x1eb3;" horiz-adv-x="486" 
d="M324 187l1 54q-16 -16 -84 -29q-55 -10 -76.5 -27.5t-21.5 -49.5q0 -55 63 -55q50 0 83.5 31.5t34.5 75.5zM455 0h-121q-6 19 -8 44q-52 -57 -149 -57q-81 0 -122.5 36.5t-41.5 98.5q0 41 12 71t28.5 47t50.5 29t60 17t75 12q48 7 65.5 18.5t17.5 37.5q0 24 -22.5 37.5
t-60.5 13.5q-79 0 -89 -73h-121q3 173 216 173q113 0 161.5 -48.5t48.5 -145.5v-311zM300 668h57q0 -54 -32.5 -84t-78.5 -30t-79 30t-33 84h57q2 -60 55 -60q25 0 39.5 16t14.5 44zM257 623h-37q0 29 19 40q17 10 17 22q0 13 -18 13q-13 0 -31 -11l-13 40q22 19 52 19
q25 0 40 -12.5t15 -32.5q0 -22 -22 -41.5t-22 -36.5z" />
    <glyph glyph-name="uni1EB4" unicode="&#x1eb4;" horiz-adv-x="643" 
d="M402 251l-83 264h-1l-85 -264h169zM635 0h-151l-42 137h-245l-47 -137h-147l237 664h161zM374 918l39 -10q-6 -27 -20.5 -40.5t-32.5 -13.5q-13 0 -35 11t-34 11q-9 0 -17 -23l-37 18q14 45 51 45q14 0 36 -11.5t35 -11.5q12 0 15 25zM376 840h57q0 -54 -32.5 -84
t-78.5 -30t-79 30t-33 84h57q2 -60 55 -60q25 0 39.5 16t14.5 44z" />
    <glyph glyph-name="uni1EB5" unicode="&#x1eb5;" horiz-adv-x="486" 
d="M324 187l1 54q-16 -16 -84 -29q-55 -10 -76.5 -27.5t-21.5 -49.5q0 -55 63 -55q50 0 83.5 31.5t34.5 75.5zM455 0h-121q-6 19 -8 44q-52 -57 -149 -57q-81 0 -122.5 36.5t-41.5 98.5q0 41 12 71t28.5 47t50.5 29t60 17t75 12q48 7 65.5 18.5t17.5 37.5q0 24 -22.5 37.5
t-60.5 13.5q-79 0 -89 -73h-121q3 173 216 173q113 0 161.5 -48.5t48.5 -145.5v-311zM296 746l39 -10q-6 -27 -20.5 -40.5t-32.5 -13.5q-13 0 -35 11t-34 11q-9 0 -17 -23l-37 18q14 45 51 45q13 0 35.5 -11.5t35.5 -11.5q12 0 15 25zM298 668h57q0 -54 -32.5 -84t-78.5 -30
t-79 30t-33 84h57q2 -60 55 -60q25 0 39.5 16t14.5 44z" />
    <glyph glyph-name="uni1EB6" unicode="&#x1eb6;" horiz-adv-x="643" 
d="M402 251l-83 264h-1l-85 -264h169zM635 0h-151l-42 137h-245l-47 -137h-147l237 664h161zM403 918h82q0 -79 -47.5 -122.5t-114.5 -43.5t-114.5 43.5t-47.5 122.5h82q2 -41 22.5 -64t57.5 -23t57.5 23t22.5 64zM391 -206h-130v124h130v-124z" />
    <glyph glyph-name="uni1EB7" unicode="&#x1eb7;" horiz-adv-x="486" 
d="M324 187l1 54q-16 -16 -84 -29q-55 -10 -76.5 -27.5t-21.5 -49.5q0 -55 63 -55q50 0 83.5 31.5t34.5 75.5zM455 0h-121q-6 19 -8 44q-52 -57 -149 -57q-81 0 -122.5 36.5t-41.5 98.5q0 41 12 71t28.5 47t50.5 29t60 17t75 12q48 7 65.5 18.5t17.5 37.5q0 24 -22.5 37.5
t-60.5 13.5q-79 0 -89 -73h-121q3 173 216 173q113 0 161.5 -48.5t48.5 -145.5v-311zM324 746h82q0 -79 -47.5 -122.5t-114.5 -43.5t-114.5 43.5t-47.5 122.5h82q2 -41 22.5 -64t57.5 -23t57.5 23t22.5 64zM303 -206h-130v124h130v-124z" />
    <glyph glyph-name="uni1EB8" unicode="&#x1eb8;" horiz-adv-x="532" 
d="M527 0h-504v664h488v-116h-353v-142h325v-117h-325v-171h369v-118zM341 -206h-130v124h130v-124z" />
    <glyph glyph-name="uni1EB9" unicode="&#x1eb9;" 
d="M149 294h201q-1 52 -30.5 80t-70.5 28q-40 0 -68 -29t-32 -79zM484 212h-339q3 -56 32.5 -89t77.5 -33q32 0 56.5 15t31.5 40h134q-22 -75 -79.5 -116.5t-136.5 -41.5q-246 0 -246 268q0 115 63 182.5t175 67.5q231 0 231 -293zM323 -206h-130v124h130v-124z" />
    <glyph glyph-name="uni1EBA" unicode="&#x1eba;" horiz-adv-x="532" 
d="M527 0h-504v664h488v-116h-353v-142h325v-117h-325v-171h369v-118zM296 753h-50q0 38 25 53q23 13 23 30t-24 17q-20 0 -41 -15l-18 55q29 25 70 25q34 0 54 -16.5t20 -44.5q0 -19 -9 -33.5t-20.5 -22t-20.5 -20t-9 -28.5z" />
    <glyph glyph-name="uni1EBB" unicode="&#x1ebb;" 
d="M149 294h201q-1 52 -30.5 80t-70.5 28q-40 0 -68 -29t-32 -79zM484 212h-339q3 -56 32.5 -89t77.5 -33q32 0 56.5 15t31.5 40h134q-22 -75 -79.5 -116.5t-136.5 -41.5q-246 0 -246 268q0 115 63 182.5t175 67.5q231 0 231 -293zM274 581h-50q0 38 25 53q23 13 23 30
t-24 17q-20 0 -41 -15l-18 55q29 25 70 25q34 0 54 -16.5t20 -44.5q0 -19 -9 -33.5t-20.5 -22t-20.5 -20t-9 -28.5z" />
    <glyph glyph-name="uni1EBC" unicode="&#x1ebc;" horiz-adv-x="532" 
d="M527 0h-504v664h488v-116h-353v-142h325v-117h-325v-171h369v-118zM370 873l75 -27q-30 -98 -109 -98q-26 0 -67 22.5t-61 22.5q-5 0 -11 -3t-14 -13.5t-14 -27.5l-69 37q28 88 97 88q33 0 75 -24t58 -24q11 0 23.5 11.5t16.5 35.5z" />
    <glyph glyph-name="uni1EBD" unicode="&#x1ebd;" 
d="M149 294h201q-1 52 -30.5 80t-70.5 28q-40 0 -68 -29t-32 -79zM484 212h-339q3 -56 32.5 -89t77.5 -33q32 0 56.5 15t31.5 40h134q-22 -75 -79.5 -116.5t-136.5 -41.5q-246 0 -246 268q0 115 63 182.5t175 67.5q231 0 231 -293zM350 701l75 -27q-30 -98 -109 -98
q-26 0 -67 22.5t-61 22.5q-5 0 -11 -3t-14 -13.5t-14 -27.5l-69 37q28 88 97 88q33 0 75 -24t58 -24q11 0 23.5 11.5t16.5 35.5z" />
    <glyph glyph-name="uni1EBE" unicode="&#x1ebe;" horiz-adv-x="532" 
d="M527 0h-504v664h488v-116h-353v-142h325v-117h-325v-171h369v-118zM394 743l-116 101l-116 -101l-39 44l110 115h91l110 -115zM647 834l-185 -78l-25 46l171 100z" />
    <glyph glyph-name="uni1EBF" unicode="&#x1ebf;" 
d="M149 294h201q-1 52 -30.5 80t-70.5 28q-40 0 -68 -29t-32 -79zM484 212h-339q3 -56 32.5 -89t77.5 -33q32 0 56.5 15t31.5 40h134q-22 -75 -79.5 -116.5t-136.5 -41.5q-246 0 -246 268q0 115 63 182.5t175 67.5q231 0 231 -293zM372 571l-116 101l-116 -101l-39 44
l110 115h91l110 -115zM625 662l-185 -78l-25 46l171 100z" />
    <glyph glyph-name="uni1EC0" unicode="&#x1ec0;" horiz-adv-x="532" 
d="M527 0h-504v664h488v-116h-353v-142h325v-117h-325v-171h369v-118zM396 743l-116 101l-116 -101l-40 44l110 115h91l110 -115zM600 756l-185 78l39 68l171 -100z" />
    <glyph glyph-name="uni1EC1" unicode="&#x1ec1;" 
d="M149 294h201q-1 52 -30.5 80t-70.5 28q-40 0 -68 -29t-32 -79zM484 212h-339q3 -56 32.5 -89t77.5 -33q32 0 56.5 15t31.5 40h134q-22 -75 -79.5 -116.5t-136.5 -41.5q-246 0 -246 268q0 115 63 182.5t175 67.5q231 0 231 -293zM373 571l-116 101l-116 -101l-40 44
l110 115h91l110 -115zM577 584l-185 78l39 68l171 -100z" />
    <glyph glyph-name="uni1EC2" unicode="&#x1ec2;" horiz-adv-x="532" 
d="M527 0h-504v664h488v-116h-353v-142h325v-117h-325v-171h369v-118zM504 753h-50q0 38 25 53q23 13 23 30t-24 17q-20 0 -41 -15l-18 55q29 25 70 25q34 0 54 -16.5t20 -44.5q0 -19 -9 -33.5t-20.5 -22t-20.5 -20t-9 -28.5zM394 743l-116 101l-116 -101l-40 44l110 115h91
l110 -115z" />
    <glyph glyph-name="uni1EC3" unicode="&#x1ec3;" 
d="M149 294h201q-1 52 -30.5 80t-70.5 28q-40 0 -68 -29t-32 -79zM484 212h-339q3 -56 32.5 -89t77.5 -33q32 0 56.5 15t31.5 40h134q-22 -75 -79.5 -116.5t-136.5 -41.5q-246 0 -246 268q0 115 63 182.5t175 67.5q231 0 231 -293zM479 581h-50q0 38 25 53q23 13 23 30
t-24 17q-20 0 -41 -15l-18 55q29 25 70 25q34 0 54 -16.5t20 -44.5q0 -24 -15 -40t-29.5 -30.5t-14.5 -33.5zM369 571l-116 101l-116 -101l-40 44l110 115h91l110 -115z" />
    <glyph glyph-name="uni1EC4" unicode="&#x1ec4;" horiz-adv-x="532" 
d="M527 0h-504v664h488v-116h-353v-142h325v-117h-325v-171h369v-118zM352 918l51 -14q-15 -61 -78 -61q-18 0 -53.5 10t-46.5 10q-16 0 -28 -32l-49 20q17 63 70 63q25 0 58 -11.5t48 -11.5q23 0 28 27zM410 756l-34 -30l-102 70l-101 -70l-35 30l96 80h80z" />
    <glyph glyph-name="uni1EC5" unicode="&#x1ec5;" 
d="M149 294h201q-1 52 -30.5 80t-70.5 28q-40 0 -68 -29t-32 -79zM484 212h-339q3 -56 32.5 -89t77.5 -33q32 0 56.5 15t31.5 40h134q-22 -75 -79.5 -116.5t-136.5 -41.5q-246 0 -246 268q0 115 63 182.5t175 67.5q231 0 231 -293zM330 746l51 -14q-15 -61 -78 -61
q-18 0 -53.5 10t-46.5 10q-16 0 -28 -32l-49 20q17 63 70 63q25 0 58 -11.5t48 -11.5q23 0 28 27zM388 584l-34 -30l-102 70l-101 -70l-35 30l96 80h80z" />
    <glyph glyph-name="uni1EC6" unicode="&#x1ec6;" horiz-adv-x="532" 
d="M527 0h-504v664h488v-116h-353v-142h325v-117h-325v-171h369v-118zM404 733l-135 118l-135 -118l-46 51l128 134h106l128 -134zM336 -206h-130v124h130v-124z" />
    <glyph glyph-name="uni1EC7" unicode="&#x1ec7;" 
d="M149 294h201q-1 52 -30.5 80t-70.5 28q-40 0 -68 -29t-32 -79zM484 212h-339q3 -56 32.5 -89t77.5 -33q32 0 56.5 15t31.5 40h134q-22 -75 -79.5 -116.5t-136.5 -41.5q-246 0 -246 268q0 115 63 182.5t175 67.5q231 0 231 -293zM388 561l-135 118l-135 -118l-46 51
l128 134h106l128 -134zM321 -206h-130v124h130v-124z" />
    <glyph glyph-name="uni1EC8" unicode="&#x1ec8;" horiz-adv-x="187" 
d="M162 0h-139v664h139v-664zM112 753h-50q0 38 25 53q23 13 23 30t-24 17q-20 0 -41 -15l-18 55q29 25 70 25q34 0 54 -16.5t20 -44.5q0 -19 -9 -33.5t-20.5 -22t-20.5 -20t-9 -28.5z" />
    <glyph glyph-name="uni1EC9" unicode="&#x1ec9;" horiz-adv-x="192" 
d="M159 0h-130v492h130v-492zM116 581h-50q0 38 25 53q23 13 23 30t-24 17q-20 0 -41 -15l-18 55q29 25 70 25q34 0 54 -16.5t20 -44.5q0 -19 -9 -33.5t-20.5 -22t-20.5 -20t-9 -28.5z" />
    <glyph glyph-name="uni1ECA" unicode="&#x1eca;" horiz-adv-x="187" 
d="M162 0h-139v664h139v-664zM164 -206h-130v124h130v-124z" />
    <glyph glyph-name="uni1ECB" unicode="&#x1ecb;" horiz-adv-x="192" 
d="M159 0h-130v492h130v-492zM159 551h-130v121h130v-121zM166 -206h-130v124h130v-124z" />
    <glyph glyph-name="uni1ECC" unicode="&#x1ecc;" horiz-adv-x="670" 
d="M334 96q80 0 130 57.5t50 169.5q0 117 -46.5 178.5t-133.5 61.5q-88 0 -135 -61.5t-47 -178.5q0 -227 182 -227zM334 -23q-153 0 -236 90.5t-83 258.5q0 170 83.5 265t235.5 95t234.5 -95.5t82.5 -267.5q0 -170 -81.5 -258t-235.5 -88zM405 -206h-130v124h130v-124z" />
    <glyph glyph-name="uni1ECD" unicode="&#x1ecd;" horiz-adv-x="539" 
d="M268 96q119 0 119 150q0 149 -119 149t-119 -149q0 -150 119 -150zM268 -13q-118 0 -185.5 71t-67.5 188q0 118 68.5 188.5t184.5 70.5q115 0 182.5 -70.5t67.5 -188.5q0 -117 -68 -188t-182 -71zM339 -206h-130v124h130v-124z" />
    <glyph glyph-name="uni1ECE" unicode="&#x1ece;" horiz-adv-x="670" 
d="M334 96q80 0 130 57.5t50 169.5q0 117 -46.5 178.5t-133.5 61.5q-88 0 -135 -61.5t-47 -178.5q0 -227 182 -227zM334 -23q-153 0 -236 90.5t-83 258.5q0 170 83.5 265t235.5 95t234.5 -95.5t82.5 -267.5q0 -170 -81.5 -258t-235.5 -88zM356 753h-50q0 38 25 53
q23 13 23 30t-24 17q-20 0 -41 -15l-18 55q29 25 70 25q34 0 54 -16.5t20 -44.5q0 -19 -9 -33.5t-20.5 -22t-20.5 -20t-9 -28.5z" />
    <glyph glyph-name="uni1ECF" unicode="&#x1ecf;" horiz-adv-x="539" 
d="M268 96q119 0 119 150q0 149 -119 149t-119 -149q0 -150 119 -150zM268 -13q-118 0 -185.5 71t-67.5 188q0 118 68.5 188.5t184.5 70.5q115 0 182.5 -70.5t67.5 -188.5q0 -117 -68 -188t-182 -71zM290 581h-50q0 38 25 53q23 13 23 30t-24 17q-20 0 -41 -15l-18 55
q29 25 70 25q34 0 54 -16.5t20 -44.5q0 -19 -9 -33.5t-20.5 -22t-20.5 -20t-9 -28.5z" />
    <glyph glyph-name="uni1ED0" unicode="&#x1ed0;" horiz-adv-x="670" 
d="M334 96q80 0 130 57.5t50 169.5q0 117 -46.5 178.5t-133.5 61.5q-88 0 -135 -61.5t-47 -178.5q0 -227 182 -227zM334 -23q-153 0 -236 90.5t-83 258.5q0 170 83.5 265t235.5 95t234.5 -95.5t82.5 -267.5q0 -170 -81.5 -258t-235.5 -88zM456 743l-116 101l-116 -101
l-39 44l110 115h91l110 -115zM709 834l-185 -78l-25 46l171 100z" />
    <glyph glyph-name="uni1ED1" unicode="&#x1ed1;" horiz-adv-x="539" 
d="M268 96q119 0 119 150q0 149 -119 149t-119 -149q0 -150 119 -150zM268 -13q-118 0 -185.5 71t-67.5 188q0 118 68.5 188.5t184.5 70.5q115 0 182.5 -70.5t67.5 -188.5q0 -117 -68 -188t-182 -71zM390 571l-116 101l-116 -101l-39 44l110 115h91l110 -115zM643 662
l-185 -78l-25 46l171 100z" />
    <glyph glyph-name="uni1ED2" unicode="&#x1ed2;" horiz-adv-x="670" 
d="M334 96q80 0 130 57.5t50 169.5q0 117 -46.5 178.5t-133.5 61.5q-88 0 -135 -61.5t-47 -178.5q0 -227 182 -227zM334 -23q-153 0 -236 90.5t-83 258.5q0 170 83.5 265t235.5 95t234.5 -95.5t82.5 -267.5q0 -170 -81.5 -258t-235.5 -88zM458 743l-116 101l-116 -101
l-40 44l110 115h91l110 -115zM662 756l-185 78l39 68l171 -100z" />
    <glyph glyph-name="uni1ED3" unicode="&#x1ed3;" horiz-adv-x="539" 
d="M268 96q119 0 119 150q0 149 -119 149t-119 -149q0 -150 119 -150zM268 -13q-118 0 -185.5 71t-67.5 188q0 118 68.5 188.5t184.5 70.5q115 0 182.5 -70.5t67.5 -188.5q0 -117 -68 -188t-182 -71zM394 571l-116 101l-116 -101l-40 44l110 115h91l110 -115zM598 584
l-185 78l39 68l171 -100z" />
    <glyph glyph-name="uni1ED4" unicode="&#x1ed4;" horiz-adv-x="670" 
d="M334 96q80 0 130 57.5t50 169.5q0 117 -46.5 178.5t-133.5 61.5q-88 0 -135 -61.5t-47 -178.5q0 -227 182 -227zM334 -23q-153 0 -236 90.5t-83 258.5q0 170 83.5 265t235.5 95t234.5 -95.5t82.5 -267.5q0 -170 -81.5 -258t-235.5 -88zM563 753h-50q0 38 25 53
q23 13 23 30t-24 17q-20 0 -41 -15l-18 55q29 25 70 25q34 0 54 -16.5t20 -44.5q0 -24 -15 -40t-29.5 -30.5t-14.5 -33.5zM453 743l-116 101l-116 -101l-40 44l110 115h91l110 -115z" />
    <glyph glyph-name="uni1ED5" unicode="&#x1ed5;" horiz-adv-x="539" 
d="M268 96q119 0 119 150q0 149 -119 149t-119 -149q0 -150 119 -150zM268 -13q-118 0 -185.5 71t-67.5 188q0 118 68.5 188.5t184.5 70.5q115 0 182.5 -70.5t67.5 -188.5q0 -117 -68 -188t-182 -71zM498 581h-50q0 38 25 53q23 13 23 30t-24 17q-20 0 -41 -15l-18 55
q29 25 70 25q34 0 54 -16.5t20 -44.5q0 -19 -9 -33.5t-20.5 -22t-20.5 -20t-9 -28.5zM388 571l-116 101l-116 -101l-40 44l110 115h91l110 -115z" />
    <glyph glyph-name="uni1ED6" unicode="&#x1ed6;" horiz-adv-x="670" 
d="M334 96q80 0 130 57.5t50 169.5q0 117 -46.5 178.5t-133.5 61.5q-88 0 -135 -61.5t-47 -178.5q0 -227 182 -227zM334 -23q-153 0 -236 90.5t-83 258.5q0 170 83.5 265t235.5 95t234.5 -95.5t82.5 -267.5q0 -170 -81.5 -258t-235.5 -88zM414 918l51 -14q-15 -61 -78 -61
q-18 0 -53.5 10t-46.5 10q-16 0 -28 -32l-49 20q17 63 70 63q25 0 58 -11.5t48 -11.5q23 0 28 27zM472 756l-34 -30l-102 70l-101 -70l-35 30l96 80h80z" />
    <glyph glyph-name="uni1ED7" unicode="&#x1ed7;" horiz-adv-x="539" 
d="M268 96q119 0 119 150q0 149 -119 149t-119 -149q0 -150 119 -150zM268 -13q-118 0 -185.5 71t-67.5 188q0 118 68.5 188.5t184.5 70.5q115 0 182.5 -70.5t67.5 -188.5q0 -117 -68 -188t-182 -71zM348 746l51 -14q-15 -61 -78 -61q-18 0 -53.5 10t-46.5 10q-16 0 -28 -32
l-49 20q17 63 70 63q25 0 58 -11.5t48 -11.5q23 0 28 27zM406 584l-34 -30l-102 70l-101 -70l-35 30l96 80h80z" />
    <glyph glyph-name="uni1ED8" unicode="&#x1ed8;" horiz-adv-x="670" 
d="M334 96q80 0 130 57.5t50 169.5q0 117 -46.5 178.5t-133.5 61.5q-88 0 -135 -61.5t-47 -178.5q0 -227 182 -227zM334 -23q-153 0 -236 90.5t-83 258.5q0 170 83.5 265t235.5 95t234.5 -95.5t82.5 -267.5q0 -170 -81.5 -258t-235.5 -88zM471 733l-135 118l-135 -118
l-46 51l128 134h106l128 -134zM405 -206h-130v124h130v-124z" />
    <glyph glyph-name="uni1ED9" unicode="&#x1ed9;" horiz-adv-x="539" 
d="M268 96q119 0 119 150q0 149 -119 149t-119 -149q0 -150 119 -150zM268 -13q-118 0 -185.5 71t-67.5 188q0 118 68.5 188.5t184.5 70.5q115 0 182.5 -70.5t67.5 -188.5q0 -117 -68 -188t-182 -71zM405 561l-135 118l-135 -118l-46 51l128 134h106l128 -134zM339 -206
h-130v124h130v-124z" />
    <glyph glyph-name="uni1EDA" unicode="&#x1eda;" horiz-adv-x="769" 
d="M682 702h70q21 -24 21 -78q0 -107 -92 -107q-35 0 -74 15q44 -85 44 -209q0 -170 -81.5 -258t-235.5 -88q-153 0 -236 90.5t-83 258.5q0 170 83.5 265t235.5 95q126 0 206 -68q41 -35 103 -35q48 0 48 63q0 34 -9 56zM334 96q80 0 130 57.5t50 169.5q0 117 -46.5 178.5
t-133.5 61.5q-88 0 -135 -61.5t-47 -178.5q0 -227 182 -227zM494 820l-223 -94l-31 55l207 121z" />
    <glyph glyph-name="uni1EDB" unicode="&#x1edb;" horiz-adv-x="651" 
d="M426 648l-223 -94l-31 55l207 121zM564 543h70q21 -24 21 -78q0 -44 -19.5 -75.5t-60.5 -31.5q-49 0 -83 14q26 -55 26 -126q0 -117 -68 -188t-182 -71q-118 0 -185.5 71t-67.5 188q0 118 68.5 188.5t184.5 70.5q91 0 154 -46q48 -35 103 -35q48 0 48 63q0 34 -9 56z
M268 96q119 0 119 150q0 149 -119 149t-119 -149q0 -150 119 -150z" />
    <glyph glyph-name="uni1EDC" unicode="&#x1edc;" horiz-adv-x="769" 
d="M682 702h70q21 -24 21 -78q0 -107 -92 -107q-35 0 -74 15q44 -85 44 -209q0 -170 -81.5 -258t-235.5 -88q-153 0 -236 90.5t-83 258.5q0 170 83.5 265t235.5 95q126 0 206 -68q41 -35 103 -35q48 0 48 63q0 34 -9 56zM334 96q80 0 130 57.5t50 169.5q0 117 -46.5 178.5
t-133.5 61.5q-88 0 -135 -61.5t-47 -178.5q0 -227 182 -227zM403 726l-223 94l47 82l207 -121z" />
    <glyph glyph-name="uni1EDD" unicode="&#x1edd;" horiz-adv-x="651" 
d="M337 554l-223 94l47 82l207 -121zM564 543h70q21 -24 21 -78q0 -44 -19.5 -75.5t-60.5 -31.5q-49 0 -83 14q26 -55 26 -126q0 -117 -68 -188t-182 -71q-118 0 -185.5 71t-67.5 188q0 118 68.5 188.5t184.5 70.5q91 0 154 -46q48 -35 103 -35q48 0 48 63q0 34 -9 56z
M268 96q119 0 119 150q0 149 -119 149t-119 -149q0 -150 119 -150z" />
    <glyph glyph-name="uni1EDE" unicode="&#x1ede;" horiz-adv-x="769" 
d="M682 702h70q21 -24 21 -78q0 -107 -92 -107q-35 0 -74 15q44 -85 44 -209q0 -170 -81.5 -258t-235.5 -88q-153 0 -236 90.5t-83 258.5q0 170 83.5 265t235.5 95q126 0 206 -68q41 -35 103 -35q48 0 48 63q0 34 -9 56zM334 96q80 0 130 57.5t50 169.5q0 117 -46.5 178.5
t-133.5 61.5q-88 0 -135 -61.5t-47 -178.5q0 -227 182 -227zM358 753h-50q0 38 25 53q23 13 23 30t-24 17q-20 0 -41 -15l-18 55q29 25 70 25q34 0 54 -16.5t20 -44.5q0 -19 -9 -33.5t-20.5 -22t-20.5 -20t-9 -28.5z" />
    <glyph glyph-name="uni1EDF" unicode="&#x1edf;" horiz-adv-x="651" 
d="M564 543h70q21 -24 21 -78q0 -44 -19.5 -75.5t-60.5 -31.5q-49 0 -83 14q26 -55 26 -126q0 -117 -68 -188t-182 -71q-118 0 -185.5 71t-67.5 188q0 118 68.5 188.5t184.5 70.5q91 0 154 -46q48 -35 103 -35q48 0 48 63q0 34 -9 56zM268 96q119 0 119 150q0 149 -119 149
t-119 -149q0 -150 119 -150zM298 581h-50q0 38 25 53q23 13 23 30t-24 17q-20 0 -41 -15l-18 55q29 25 70 25q34 0 54 -16.5t20 -44.5q0 -19 -9 -33.5t-20.5 -22t-20.5 -20t-9 -28.5z" />
    <glyph glyph-name="uni1EE0" unicode="&#x1ee0;" horiz-adv-x="769" 
d="M682 702h70q21 -24 21 -78q0 -107 -92 -107q-35 0 -74 15q44 -85 44 -209q0 -170 -81.5 -258t-235.5 -88q-153 0 -236 90.5t-83 258.5q0 170 83.5 265t235.5 95q126 0 206 -68q41 -35 103 -35q48 0 48 63q0 34 -9 56zM334 96q80 0 130 57.5t50 169.5q0 117 -46.5 178.5
t-133.5 61.5q-88 0 -135 -61.5t-47 -178.5q0 -227 182 -227zM435 873l75 -27q-30 -98 -109 -98q-27 0 -67 22.5t-61 22.5q-5 0 -11 -3t-14 -13.5t-14 -27.5l-69 37q28 88 97 88q33 0 75 -24t58 -24q11 0 23.5 11.5t16.5 35.5z" />
    <glyph glyph-name="uni1EE1" unicode="&#x1ee1;" horiz-adv-x="651" 
d="M564 543h70q21 -24 21 -78q0 -44 -19.5 -75.5t-60.5 -31.5q-49 0 -83 14q26 -55 26 -126q0 -117 -68 -188t-182 -71q-118 0 -185.5 71t-67.5 188q0 118 68.5 188.5t184.5 70.5q91 0 154 -46q48 -35 103 -35q48 0 48 63q0 34 -9 56zM268 96q119 0 119 150q0 149 -119 149
t-119 -149q0 -150 119 -150zM368 701l75 -27q-30 -98 -109 -98q-26 0 -67 22.5t-61 22.5q-5 0 -11 -3t-14 -13.5t-14 -27.5l-69 37q28 88 97 88q33 0 75 -24t58 -24q11 0 23.5 11.5t16.5 35.5z" />
    <glyph glyph-name="uni1EE2" unicode="&#x1ee2;" horiz-adv-x="769" 
d="M682 702h70q21 -24 21 -78q0 -107 -92 -107q-35 0 -74 15q44 -85 44 -209q0 -170 -81.5 -258t-235.5 -88q-153 0 -236 90.5t-83 258.5q0 170 83.5 265t235.5 95q126 0 206 -68q41 -35 103 -35q48 0 48 63q0 34 -9 56zM334 96q80 0 130 57.5t50 169.5q0 117 -46.5 178.5
t-133.5 61.5q-88 0 -135 -61.5t-47 -178.5q0 -227 182 -227zM401 -206h-130v124h130v-124z" />
    <glyph glyph-name="uni1EE3" unicode="&#x1ee3;" horiz-adv-x="651" 
d="M564 543h70q21 -24 21 -78q0 -44 -19.5 -75.5t-60.5 -31.5q-49 0 -83 14q26 -55 26 -126q0 -117 -68 -188t-182 -71q-118 0 -185.5 71t-67.5 188q0 118 68.5 188.5t184.5 70.5q91 0 154 -46q48 -35 103 -35q48 0 48 63q0 34 -9 56zM268 96q119 0 119 150q0 149 -119 149
t-119 -149q0 -150 119 -150zM340 -206h-130v124h130v-124z" />
    <glyph glyph-name="uni1EE4" unicode="&#x1ee4;" horiz-adv-x="586" 
d="M416 221v443h142v-443q0 -120 -70.5 -182t-202.5 -62q-124 0 -193 59.5t-69 176.5v451h141v-438q0 -62 31.5 -98t87.5 -36q133 0 133 129zM363 -206h-130v124h130v-124z" />
    <glyph glyph-name="uni1EE5" unicode="&#x1ee5;" horiz-adv-x="500" 
d="M469 0h-123v69q-50 -82 -153 -82q-74 0 -120.5 50t-46.5 131v324h130v-304q0 -92 83 -92q48 0 74.5 31t26.5 81v284h129v-492zM328 -206h-130v124h130v-124z" />
    <glyph glyph-name="uni1EE6" unicode="&#x1ee6;" horiz-adv-x="586" 
d="M416 221v443h142v-443q0 -120 -70.5 -182t-202.5 -62q-124 0 -193 59.5t-69 176.5v451h141v-438q0 -62 31.5 -98t87.5 -36q133 0 133 129zM314 753h-50q0 38 25 53q23 13 23 30t-24 17q-20 0 -41 -15l-18 55q29 25 70 25q34 0 54 -16.5t20 -44.5q0 -19 -9 -33.5
t-20.5 -22t-20.5 -20t-9 -28.5z" />
    <glyph glyph-name="uni1EE7" unicode="&#x1ee7;" horiz-adv-x="500" 
d="M469 0h-123v69q-50 -82 -153 -82q-74 0 -120.5 50t-46.5 131v324h130v-304q0 -92 83 -92q48 0 74.5 31t26.5 81v284h129v-492zM273 581h-50q0 38 25 53q23 13 23 30t-24 17q-20 0 -41 -15l-18 55q29 25 70 25q34 0 54 -16.5t20 -44.5q0 -24 -15 -40t-29.5 -30.5
t-14.5 -33.5z" />
    <glyph glyph-name="uni1EE8" unicode="&#x1ee8;" horiz-adv-x="748" 
d="M416 221v443h142v-73q24 -8 50 -8q28 0 40.5 14.5t12.5 48.5t-9 56h70q21 -24 21 -79q0 -53 -25.5 -80t-68.5 -27q-44 0 -91 26v-321q0 -119 -70.5 -181.5t-200.5 -62.5q-126 0 -195 59t-69 177v451h141v-438q0 -63 31.5 -98.5t94.5 -35.5q60 0 93 32.5t33 96.5zM455 820
l-223 -94l-31 55l207 121z" />
    <glyph glyph-name="uni1EE9" unicode="&#x1ee9;" horiz-adv-x="638" 
d="M410 648l-223 -94l-31 55l207 121zM469 0h-123v69q-49 -82 -150 -82q-77 0 -123.5 50t-46.5 131v324h130v-304q0 -92 82 -92q49 0 75.5 30.5t26.5 81.5v284h129v-64q19 -4 38 -4q52 0 52 62q0 35 -9 57h70q21 -24 21 -79q0 -53 -25 -79.5t-68 -26.5q-37 0 -79 18v-376z
" />
    <glyph glyph-name="uni1EEA" unicode="&#x1eea;" horiz-adv-x="748" 
d="M416 221v443h142v-73q24 -8 50 -8q28 0 40.5 14.5t12.5 48.5t-9 56h70q21 -24 21 -79q0 -53 -25.5 -80t-68.5 -27q-44 0 -91 26v-321q0 -119 -70.5 -181.5t-200.5 -62.5q-126 0 -195 59t-69 177v451h141v-438q0 -63 31.5 -98.5t94.5 -35.5q60 0 93 32.5t33 96.5zM365 726
l-223 94l47 82l207 -121z" />
    <glyph glyph-name="uni1EEB" unicode="&#x1eeb;" horiz-adv-x="638" 
d="M318 554l-223 94l47 82l207 -121zM469 0h-123v69q-49 -82 -150 -82q-77 0 -123.5 50t-46.5 131v324h130v-304q0 -92 82 -92q49 0 75.5 30.5t26.5 81.5v284h129v-64q19 -4 38 -4q52 0 52 62q0 35 -9 57h70q21 -24 21 -79q0 -53 -25 -79.5t-68 -26.5q-37 0 -79 18v-376z
" />
    <glyph glyph-name="uni1EEC" unicode="&#x1eec;" horiz-adv-x="748" 
d="M416 221v443h142v-73q24 -8 50 -8q28 0 40.5 14.5t12.5 48.5t-9 56h70q21 -24 21 -79q0 -53 -25.5 -80t-68.5 -27q-44 0 -91 26v-321q0 -119 -70.5 -181.5t-200.5 -62.5q-126 0 -195 59t-69 177v451h141v-438q0 -63 31.5 -98.5t94.5 -35.5q60 0 93 32.5t33 96.5zM326 753
h-50q0 38 25 53q23 13 23 30t-24 17q-20 0 -41 -15l-18 55q29 25 70 25q34 0 54 -16.5t20 -44.5q0 -19 -9 -33.5t-20.5 -22t-20.5 -20t-9 -28.5z" />
    <glyph glyph-name="uni1EED" unicode="&#x1eed;" horiz-adv-x="638" 
d="M469 0h-123v69q-49 -82 -150 -82q-77 0 -123.5 50t-46.5 131v324h130v-304q0 -92 82 -92q49 0 75.5 30.5t26.5 81.5v284h129v-64q19 -4 38 -4q52 0 52 62q0 35 -9 57h70q21 -24 21 -79q0 -53 -25 -79.5t-68 -26.5q-37 0 -79 18v-376zM274 581h-50q0 38 25 53q23 13 23 30
t-24 17q-20 0 -41 -15l-18 55q29 25 70 25q34 0 54 -16.5t20 -44.5q0 -19 -9 -33.5t-20.5 -22t-20.5 -20t-9 -28.5z" />
    <glyph glyph-name="uni1EEE" unicode="&#x1eee;" horiz-adv-x="748" 
d="M416 221v443h142v-73q24 -8 50 -8q28 0 40.5 14.5t12.5 48.5t-9 56h70q21 -24 21 -79q0 -53 -25.5 -80t-68.5 -27q-44 0 -91 26v-321q0 -119 -70.5 -181.5t-200.5 -62.5q-126 0 -195 59t-69 177v451h141v-438q0 -63 31.5 -98.5t94.5 -35.5q60 0 93 32.5t33 96.5zM392 873
l75 -27q-30 -98 -109 -98q-26 0 -66.5 22.5t-61.5 22.5q-5 0 -11 -3t-14 -13.5t-14 -27.5l-69 37q28 88 97 88q33 0 75 -24t58 -24q11 0 23.5 11.5t16.5 35.5z" />
    <glyph glyph-name="uni1EEF" unicode="&#x1eef;" horiz-adv-x="638" 
d="M351 701l75 -27q-30 -98 -109 -98q-27 0 -67.5 22.5t-60.5 22.5q-5 0 -11 -3t-14 -13.5t-14 -27.5l-69 37q28 88 97 88q33 0 75 -24t58 -24q11 0 23.5 11.5t16.5 35.5zM469 0h-123v69q-49 -82 -150 -82q-77 0 -123.5 50t-46.5 131v324h130v-304q0 -92 82 -92
q49 0 75.5 30.5t26.5 81.5v284h129v-64q19 -4 38 -4q52 0 52 62q0 35 -9 57h70q21 -24 21 -79q0 -53 -25 -79.5t-68 -26.5q-37 0 -79 18v-376z" />
    <glyph glyph-name="uni1EF0" unicode="&#x1ef0;" horiz-adv-x="748" 
d="M416 221v443h142v-73q24 -8 50 -8q28 0 40.5 14.5t12.5 48.5t-9 56h70q21 -24 21 -79q0 -53 -25.5 -80t-68.5 -27q-44 0 -91 26v-321q0 -119 -70.5 -181.5t-200.5 -62.5q-126 0 -195 59t-69 177v451h141v-438q0 -63 31.5 -98.5t94.5 -35.5q60 0 93 32.5t33 96.5z
M365 -206h-130v124h130v-124z" />
    <glyph glyph-name="uni1EF1" unicode="&#x1ef1;" horiz-adv-x="638" 
d="M469 0h-123v69q-49 -82 -150 -82q-77 0 -123.5 50t-46.5 131v324h130v-304q0 -92 82 -92q49 0 75.5 30.5t26.5 81.5v284h129v-64q19 -4 38 -4q52 0 52 62q0 35 -9 57h70q21 -24 21 -79q0 -53 -25 -79.5t-68 -26.5q-37 0 -79 18v-376zM318 -206h-130v124h130v-124z" />
    <glyph glyph-name="Ygrave" unicode="&#x1ef2;" horiz-adv-x="602" 
d="M372 0h-139v251l-230 413h162l140 -270l129 270h160l-222 -415v-249zM375 726l-223 94l47 82l207 -121z" />
    <glyph glyph-name="ygrave" unicode="&#x1ef3;" horiz-adv-x="502" 
d="M339 -15v80q-13 -32 -49.5 -51t-83.5 -19q-78 0 -129 49t-51 129v319h130v-300q0 -92 83 -92q44 0 72 26t28 66v300h130v-505q0 -101 -64 -160.5t-162 -59.5q-106 0 -161.5 54.5t-55.5 151.5h121q0 -44 26 -69t76 -25q37 0 63.5 29.5t26.5 76.5zM318 554l-223 94l47 82
l207 -121z" />
    <glyph glyph-name="uni1EF6" unicode="&#x1ef6;" horiz-adv-x="602" 
d="M372 0h-139v251l-230 413h162l140 -270l129 270h160l-222 -415v-249zM324 753h-50q0 38 25 53q23 13 23 30t-24 17q-20 0 -41 -15l-18 55q29 25 70 25q34 0 54 -16.5t20 -44.5q0 -19 -9 -33.5t-20.5 -22t-20.5 -20t-9 -28.5z" />
    <glyph glyph-name="uni1EF7" unicode="&#x1ef7;" horiz-adv-x="502" 
d="M339 -15v80q-13 -32 -49.5 -51t-83.5 -19q-78 0 -129 49t-51 129v319h130v-300q0 -92 83 -92q44 0 72 26t28 66v300h130v-505q0 -101 -64 -160.5t-162 -59.5q-106 0 -161.5 54.5t-55.5 151.5h121q0 -44 26 -69t76 -25q37 0 63.5 29.5t26.5 76.5zM274 581h-50q0 38 25 53
q23 13 23 30t-24 17q-20 0 -41 -15l-18 55q29 25 70 25q34 0 54 -16.5t20 -44.5q0 -19 -9 -33.5t-20.5 -22t-20.5 -20t-9 -28.5z" />
    <glyph glyph-name="endash" unicode="&#x2013;" horiz-adv-x="436" 
d="M418 257h-405v101h405v-101z" />
    <glyph glyph-name="emdash" unicode="&#x2014;" horiz-adv-x="617" 
d="M600 259h-584v98h584v-98z" />
    <glyph glyph-name="quoteleft" unicode="&#x2018;" horiz-adv-x="193" 
d="M161 731v-50q-76 -19 -77 -106h77v-135h-138v102q0 86 30.5 129.5t107.5 59.5z" />
    <glyph glyph-name="quoteright" unicode="&#x2019;" horiz-adv-x="193" 
d="M24 400v50q76 19 77 106h-77v135h138v-102q0 -86 -30.5 -129.5t-107.5 -59.5z" />
    <glyph glyph-name="quotesinglbase" unicode="&#x201a;" horiz-adv-x="204" 
d="M40 -148v47q70 18 71 101h-71v129h127v-98q0 -82 -28 -123t-99 -56z" />
    <glyph glyph-name="quotedblleft" unicode="&#x201c;" horiz-adv-x="386" 
d="M354 731v-50q-76 -19 -77 -106h77v-135h-138v102q0 86 30.5 129.5t107.5 59.5zM161 731v-50q-76 -19 -77 -106h77v-135h-138v102q0 86 30.5 129.5t107.5 59.5z" />
    <glyph glyph-name="quotedblright" unicode="&#x201d;" horiz-adv-x="386" 
d="M24 400v50q76 19 77 106h-77v135h138v-102q0 -86 -30.5 -129.5t-107.5 -59.5zM219 400v50q76 19 77 106h-77v135h138v-102q0 -86 -30.5 -129.5t-107.5 -59.5z" />
    <glyph glyph-name="quotedblbase" unicode="&#x201e;" horiz-adv-x="408" 
d="M244 -148v47q70 18 71 101h-71v129h127v-98q0 -82 -28 -123t-99 -56zM40 -148v47q70 18 71 101h-71v129h127v-98q0 -82 -28 -123t-99 -56z" />
    <glyph glyph-name="dagger" unicode="&#x2020;" horiz-adv-x="533" 
d="M320 0h-102v435h-183v80h183v149h102v-149h175v-80h-175v-435z" />
    <glyph glyph-name="daggerdbl" unicode="&#x2021;" horiz-adv-x="533" 
d="M495 149h-175v-149h-100v149h-182v79h182v209h-182v78h182v149h100v-149h175v-78h-175v-209h175v-79z" />
    <glyph glyph-name="bullet" unicode="&#x2022;" horiz-adv-x="422" 
d="M371 343q0 -60 -47 -101t-115 -41q-70 0 -117 40.5t-47 101.5q0 62 47 102.5t117 40.5q68 0 115 -40.5t47 -102.5z" />
    <glyph glyph-name="ellipsis" unicode="&#x2026;" horiz-adv-x="936" 
d="M536 0h-139v135h139v-135zM911 0h-139v135h139v-135zM162 0h-139v135h139v-135z" />
    <glyph glyph-name="perthousand" unicode="&#x2030;" horiz-adv-x="857" 
d="M93 -20h-67l461 704h68zM450 31q24 0 35.5 29t11.5 95q0 68 -11.5 97t-35.5 29q-47 0 -47 -125t47 -125zM448 -22q-113 0 -113 179q0 176 113 176q115 0 115 -175q0 -180 -115 -180zM728 31q24 0 35.5 29t11.5 95q0 68 -11.5 97t-35.5 29q-47 0 -47 -125t47 -125z
M726 -22q-113 0 -113 179q0 176 113 176q115 0 115 -175q0 -180 -115 -180zM134 384q24 0 35.5 29t11.5 95q0 68 -11.5 97t-35.5 29q-47 0 -47 -125t47 -125zM132 331q-113 0 -113 179q0 176 113 176q115 0 115 -175q0 -180 -115 -180z" />
    <glyph glyph-name="guilsinglleft" unicode="&#x2039;" horiz-adv-x="232" 
d="M156 145l-143 172l143 174l63 -68l-94 -106l94 -105z" />
    <glyph glyph-name="guilsinglright" unicode="&#x203a;" horiz-adv-x="232" 
d="M76 145l-63 67l94 105l-94 106l63 68l143 -174z" />
    <glyph glyph-name="fraction" unicode="&#x2044;" horiz-adv-x="133" 
d="M-132 -20h-67l461 704h68z" />
    <glyph glyph-name="zerosuperior" unicode="&#x2070;" horiz-adv-x="275" 
d="M138 384q24 0 35.5 29t11.5 95q0 68 -11.5 97t-35.5 29q-47 0 -47 -125t47 -125zM136 331q-113 0 -113 179q0 176 113 176q115 0 115 -175q0 -180 -115 -180z" />
    <glyph glyph-name="foursuperior" unicode="&#x2074;" horiz-adv-x="268" 
d="M147 466v117l-68 -117h68zM211 343h-65v72h-129v57l121 203h73v-209h37v-51h-37v-72z" />
    <glyph glyph-name="fivesuperior" unicode="&#x2075;" horiz-adv-x="275" 
d="M96 473h-67l7 202h204v-55h-146l-3 -89q22 23 66 23q42 0 69 -28t27 -76q0 -54 -32 -86.5t-83 -32.5q-45 0 -77 27.5t-33 69.5h65q2 -20 14 -32t31 -12q50 0 50 63q0 55 -46 55q-32 0 -46 -29z" />
    <glyph glyph-name="sixsuperior" unicode="&#x2076;" horiz-adv-x="273" 
d="M138 384q22 0 34 17.5t12 45.5t-13 45t-34 17q-22 0 -36 -17t-14 -44q0 -29 13.5 -46.5t37.5 -17.5zM242 603h-64q-3 31 -35 31q-51 0 -57 -105q28 31 68 31q41 0 67.5 -29.5t26.5 -80.5q0 -52 -30.5 -85.5t-78.5 -33.5q-117 0 -117 167q0 98 30.5 143t93.5 45
q40 0 65.5 -21.5t30.5 -61.5z" />
    <glyph glyph-name="sevensuperior" unicode="&#x2077;" horiz-adv-x="269" 
d="M129 343h-67q13 155 117 274h-162v58h232v-50q-112 -126 -120 -282z" />
    <glyph glyph-name="eightsuperior" unicode="&#x2078;" horiz-adv-x="277" 
d="M137 385q48 0 48 55q0 52 -48 52q-47 0 -47 -52q0 -55 47 -55zM137 543q20 0 30.5 12.5t10.5 32.5q0 45 -41 45q-40 0 -40 -45t40 -45zM203 524q22 -10 35.5 -33t13.5 -51q0 -49 -29 -79t-85 -30t-86 30t-30 76q0 60 52 84q-37 19 -37 73q0 40 28.5 66t72.5 26
q47 0 73 -25t26 -65q0 -54 -34 -72z" />
    <glyph glyph-name="ninesuperior" unicode="&#x2079;" horiz-adv-x="273" 
d="M134 508q22 0 35.5 17t13.5 44q0 29 -13 46.5t-37 17.5q-22 0 -34.5 -17.5t-12.5 -45.5t13 -45t35 -17zM28 414h65q2 -31 35 -31q50 0 56 105q-26 -31 -68 -31q-40 0 -67 30t-27 80q0 52 30.5 85.5t79.5 33.5q116 0 116 -167q0 -98 -30.5 -143t-92.5 -45
q-41 0 -66.5 21.5t-30.5 61.5z" />
    <glyph glyph-name="zeroinferior" unicode="&#x2080;" horiz-adv-x="275" 
d="M138 31q24 0 35.5 29t11.5 95q0 68 -11.5 97t-35.5 29q-47 0 -47 -125t47 -125zM136 -22q-113 0 -113 179q0 176 113 176q115 0 115 -175q0 -180 -115 -180z" />
    <glyph glyph-name="oneinferior" unicode="&#x2081;" horiz-adv-x="178" 
d="M150 -10h-65v229h-68v45q41 0 59 14t21 44h53v-332z" />
    <glyph glyph-name="twoinferior" unicode="&#x2082;" horiz-adv-x="262" 
d="M243 -10h-226q0 50 20 86t80 79q36 26 48.5 42t12.5 37q0 43 -46 43q-48 0 -48 -59h-63q0 54 28.5 84.5t79.5 30.5q52 0 82.5 -25t30.5 -72q0 -37 -20.5 -64t-75.5 -66q-44 -32 -46 -60h143v-56z" />
    <glyph glyph-name="threeinferior" unicode="&#x2083;" horiz-adv-x="269" 
d="M107 139v45q67 0 67 46q0 51 -43 51q-19 0 -31.5 -14.5t-12.5 -40.5h-60q0 48 30 77.5t77 29.5q43 0 73 -25.5t30 -65.5q0 -52 -39 -74q49 -21 49 -82q0 -50 -32 -79t-85 -29q-51 0 -80 29t-29 80h63q0 -55 49 -55q21 0 34.5 14.5t13.5 40.5q0 29 -16.5 40.5t-57.5 11.5z
" />
    <glyph glyph-name="fourinferior" unicode="&#x2084;" horiz-adv-x="268" 
d="M147 113v117l-68 -117h68zM211 -10h-65v72h-129v57l121 203h73v-209h37v-51h-37v-72z" />
    <glyph glyph-name="fiveinferior" unicode="&#x2085;" horiz-adv-x="275" 
d="M96 120h-67l7 202h204v-55h-146l-3 -89q22 23 66 23q42 0 69 -28t27 -76q0 -54 -32 -86.5t-83 -32.5q-45 0 -77 27.5t-33 69.5h65q2 -20 14 -32t31 -12q50 0 50 63q0 55 -46 55q-32 0 -46 -29z" />
    <glyph glyph-name="sixinferior" unicode="&#x2086;" horiz-adv-x="273" 
d="M138 31q22 0 34 17.5t12 45.5t-13 45t-34 17q-22 0 -36 -17t-14 -44q0 -29 13.5 -46.5t37.5 -17.5zM242 250h-64q-3 31 -35 31q-51 0 -57 -105q28 31 68 31q41 0 67.5 -29.5t26.5 -80.5q0 -52 -30.5 -85.5t-78.5 -33.5q-117 0 -117 167q0 98 30.5 143t93.5 45
q40 0 65.5 -21.5t30.5 -61.5z" />
    <glyph glyph-name="seveninferior" unicode="&#x2087;" horiz-adv-x="269" 
d="M129 -10h-67q13 155 117 274h-162v58h232v-50q-112 -126 -120 -282z" />
    <glyph glyph-name="eightinferior" unicode="&#x2088;" horiz-adv-x="277" 
d="M137 32q48 0 48 55q0 52 -48 52q-47 0 -47 -52q0 -55 47 -55zM137 190q20 0 30.5 12.5t10.5 32.5q0 45 -41 45q-40 0 -40 -45t40 -45zM203 171q22 -10 35.5 -33t13.5 -51q0 -49 -29 -79t-85 -30t-86 30t-30 76q0 60 52 84q-37 19 -37 73q0 40 28.5 66t72.5 26
q47 0 73 -25t26 -65q0 -54 -34 -72z" />
    <glyph glyph-name="nineinferior" unicode="&#x2089;" horiz-adv-x="273" 
d="M134 155q22 0 35.5 17t13.5 44q0 29 -13 46.5t-37 17.5q-22 0 -34.5 -17.5t-12.5 -45.5t13 -45t35 -17zM28 61h65q2 -31 35 -31q50 0 56 105q-26 -31 -68 -31q-40 0 -67 30t-27 80q0 52 30.5 85.5t79.5 33.5q116 0 116 -167q0 -98 -30.5 -143t-92.5 -45q-41 0 -66.5 21.5
t-30.5 61.5z" />
    <glyph glyph-name="uni20A9" unicode="&#x20a9;" horiz-adv-x="724" 
d="M545 0h-104l-71 381h-19l-71 -381h-101l-84 381h-85v56h73l-17 76h-56v56h44l-21 95h115l18 -95h122l16 95h113l17 -95h126l19 95h110l-21 -95h46v-56h-58l-17 -76h75v-56h-87zM444 513l14 -76h76l15 76h-105zM177 513l15 -76h74l12 76h-101zM468 381l27 -147l28 147h-55
zM203 381l29 -147l24 147h-53z" />
    <glyph glyph-name="uni20AA" unicode="&#x20aa;" horiz-adv-x="624" 
d="M260 551h-135v-551h-99v664h173q49 0 78 -1.5t61 -8t49.5 -19.5t33 -35.5t21.5 -57t6 -82.5v-289h-98v291q0 89 -90 89zM375 112h136v552h99v-664h-173q-43 0 -68 1t-55.5 5t-47 12t-34 22.5t-26 36.5t-14 53t-5.5 73v289h99v-291q0 -89 89 -89z" />
    <glyph glyph-name="dong" unicode="&#x20ab;" horiz-adv-x="540" 
d="M415 110h-102v50q-36 -61 -111 -61q-77 0 -125 59.5t-48 161.5q0 95 44 153.5t120 58.5q73 0 118 -64v101h-121v59h121v44h104v-44h94v-59h-94v-459zM226 187q38 0 63.5 33.5t25.5 84.5q0 134 -88 134q-91 0 -91 -127q0 -55 25 -90t65 -35zM479 0h-448v59h448v-59z" />
    <glyph glyph-name="Euro" unicode="&#x20ac;" horiz-adv-x="616" 
d="M486 166l116 -65q-38 -58 -101 -91t-140 -33q-108 0 -187.5 59.5t-106.5 170.5h-58l18 76h28q-1 13 -1 41q0 23 1 32h-46l18 78h37q67 252 299 252q92 0 173 -50l-64 -117q-40 47 -108 47q-56 0 -96.5 -34.5t-59.5 -97.5h219l-41 -78h-192q0 -50 3 -73h149l-41 -76h-89
q44 -109 140 -109q92 0 130 68z" />
    <glyph glyph-name="uni20AD" unicode="&#x20ad;" horiz-adv-x="596" 
d="M565 297h-220l245 -297h-166l-206 273v-273h-133v297h-79v98h79v269h133v-246l198 246h161l-220 -269h208v-98z" />
    <glyph glyph-name="uni20AE" unicode="&#x20ae;" horiz-adv-x="554" 
d="M449 401l-106 -46v-86l106 47v-83l-106 -46v-187h-135v130l-114 -49v82l114 49v85l-114 -48v82l114 49v171h-201v113h538v-113h-202v-114l106 47v-83z" />
    <glyph glyph-name="uni20B1" unicode="&#x20b1;" horiz-adv-x="576" 
d="M568 345h-56q-19 -72 -72.5 -110t-132.5 -38h-127v-197h-131v345h-44v53h44v54h-44v53h44v159h258q81 0 135 -41.5t72 -117.5h54v-53h-47q1 -8 1 -23q0 -11 -2 -31h48v-53zM407 427q0 9 -2 25h-225v-54h225q2 18 2 29zM180 558v-53h209q-29 53 -87 53h-122zM180 294h122
q57 0 86 51h-208v-51z" />
    <glyph glyph-name="uni20B2" unicode="&#x20b2;" horiz-adv-x="658" 
d="M180 -78h-108l65 121q-58 50 -90 127t-32 163q0 154 86 253.5t241 99.5q65 0 125 -22l37 70h108l-201 -377h222v-357h-115l-3 66q-24 -42 -77 -65.5t-122 -23.5q-53 0 -98 18zM157 327q0 -96 45 -161l208 391q-33 14 -68 14q-85 0 -135 -64t-50 -180zM503 246h-151
l-75 -141q30 -11 64 -11q68 0 115 44.5t47 107.5z" />
    <glyph glyph-name="uni20B4" unicode="&#x20b4;" horiz-adv-x="563" 
d="M547 215h-384q-5 -17 -5 -35q0 -44 29 -70t86 -26q91 0 120 71h110q-11 -86 -70.5 -132t-158.5 -46q-106 0 -163 52.5t-57 146.5q0 21 3 39h-42v80h78q22 23 52.5 37t81.5 27.5t64 17.5h-276v80h369q5 17 5 35q0 92 -97 92q-91 0 -111 -76h-104q16 84 73 131t146 47
q97 0 148 -54t51 -140q0 -17 -2 -35h54v-80h-86q-27 -34 -67 -51.5t-99 -30.5h252v-80z" />
    <glyph glyph-name="uni20B8" unicode="&#x20b8;" horiz-adv-x="488" 
d="M308 0h-127v357h-169v104h464v-104h-168v-357zM476 566h-464v98h464v-98z" />
    <glyph glyph-name="uni20B9" unicode="&#x20b9;" horiz-adv-x="534" 
d="M524 381h-85q-9 -89 -63 -140t-142 -56l123 -185h-164l-125 194v106h144q33 0 55 22.5t31 58.5h-286v105h282q-24 73 -78 73h-204v105h512v-105h-128q24 -27 37 -73h91v-105z" />
    <glyph glyph-name="uni20BA" unicode="&#x20ba;" horiz-adv-x="584" 
d="M199 110h100q53 0 90 32t48 86h136q-23 -106 -93.5 -167t-176.5 -61h-236v195l-62 -26v82l62 26v86l-62 -26v82l62 26v219h132v-162l161 70v-83l-161 -69v-86l161 70v-83l-161 -69v-142z" />
    <glyph glyph-name="uni20BC" unicode="&#x20bc;" horiz-adv-x="658" 
d="M265 664h129v-165q134 -9 189 -63.5t55 -161.5v-274h-134v261q0 110 -110 129v-390h-129v390q-58 -10 -83.5 -42.5t-25.5 -87.5v-260h-136v272q0 106 56.5 161.5t188.5 65.5v165z" />
    <glyph glyph-name="uni20BD" unicode="&#x20bd;" horiz-adv-x="534" 
d="M348 92h-145v-92h-136v92h-57v99h57v53h-57v99h57v321h248q100 0 157.5 -55.5t57.5 -155.5q0 -104 -59.5 -156.5t-166.5 -52.5h-101v-53h145v-99zM203 343h103q49 0 77 28.5t28 76.5q0 46 -28.5 75.5t-76.5 29.5h-103v-210z" />
    <glyph glyph-name="uni20BE" unicode="&#x20be;" horiz-adv-x="652" 
d="M437 736v-57q99 -16 143.5 -71t58.5 -162h-125q-7 100 -77 124v-182h-69v193q-7 1 -22 1q-28 0 -50 -3v-191h-68v174q-39 -18 -55.5 -54.5t-16.5 -97.5q0 -110 52 -182t167 -130v-98h-348v107h185q-197 107 -197 320q0 107 50.5 169t162.5 81v59h68v-51q7 0 21 0.5
t22 0.5q19 0 29 -1v51h69z" />
    <glyph glyph-name="litre" unicode="&#x2113;" horiz-adv-x="362" 
d="M267 63v-75q-17 -5 -35 -5q-95 0 -134 105q-44 -22 -96 -39v73q42 16 79 36q-7 43 -7 101q0 70 11.5 139t33.5 130.5t60.5 100t87.5 38.5q45 0 66.5 -34t21.5 -108q0 -108 -45 -214t-146 -181q23 -71 73 -71q17 0 30 4zM148 273q0 -32 3 -68q126 107 126 299
q0 37 -6.5 53.5t-24.5 16.5q-48 0 -73 -91.5t-25 -209.5z" />
    <glyph glyph-name="uni2116" unicode="&#x2116;" horiz-adv-x="977" 
d="M564 0h-128l-284 446v-446h-129v664h147l264 -427v427h130v-664zM781 364q90 0 90 112t-90 112q-89 0 -89 -112t89 -112zM781 282q-88 0 -139 53.5t-51 140.5q0 89 51.5 142.5t138.5 53.5t138 -53.5t51 -142.5q0 -88 -51.5 -141t-137.5 -53z" />
    <glyph glyph-name="uni2117" unicode="&#x2117;" horiz-adv-x="673" 
d="M333 -9q-131 0 -224.5 100.5t-93.5 241.5t93.5 241t224.5 100q132 0 225 -100t93 -241t-93 -241.5t-225 -100.5zM335 44q111 0 190 84t79 204q0 118 -79.5 203.5t-189.5 85.5q-111 0 -189.5 -85t-78.5 -204q0 -120 78 -204t190 -84zM291 342h64q54 0 54 49q0 45 -54 45
h-64v-94zM291 172h-67v320h141q46 0 74.5 -30t28.5 -74t-28.5 -72t-74.5 -28h-74v-116z" />
    <glyph glyph-name="trademark" unicode="&#x2122;" horiz-adv-x="466" 
d="M135 407h-54v206h-66v51h184v-51h-64v-206zM441 407h-52v142l-55 -142l-61 148v-147h-51v256h62l49 -132l48 132h60v-257z" />
    <glyph glyph-name="onethird" unicode="&#x2153;" horiz-adv-x="628" 
d="M93 -20h-67l461 704h68zM152 343h-65v229h-68v45q41 0 59 14t21 44h53v-332zM471 139v45q67 0 67 46q0 51 -43 51q-19 0 -31.5 -14.5t-12.5 -40.5h-60q0 48 30 77.5t77 29.5q43 0 73 -25.5t30 -65.5q0 -52 -39 -74q49 -21 49 -82q0 -50 -32 -79t-85 -29q-51 0 -80 29
t-29 80h63q0 -55 49 -55q21 0 34.5 14.5t13.5 40.5q0 29 -16.5 40.5t-57.5 11.5z" />
    <glyph glyph-name="twothirds" unicode="&#x2154;" horiz-adv-x="645" 
d="M124 -20h-67l461 704h68zM245 343h-226q0 50 20 86t80 79q36 26 48.5 42t12.5 37q0 43 -46 43q-48 0 -48 -59h-63q0 54 28.5 84.5t79.5 30.5q52 0 82.5 -25t30.5 -72q0 -37 -20.5 -64t-75.5 -66q-44 -32 -46 -60h143v-56zM488 139v45q67 0 67 46q0 51 -43 51
q-19 0 -31.5 -14.5t-12.5 -40.5h-60q0 48 30 77.5t77 29.5q43 0 73 -25.5t30 -65.5q0 -52 -39 -74q49 -21 49 -82q0 -50 -32 -79t-85 -29q-51 0 -80 29t-29 80h63q0 -55 49 -55q21 0 34.5 14.5t13.5 40.5q0 29 -16.5 40.5t-57.5 11.5z" />
    <glyph glyph-name="oneeighth" unicode="&#x215b;" horiz-adv-x="633" 
d="M91 -20h-67l461 704h68zM152 343h-65v229h-68v45q41 0 59 14t21 44h53v-332zM501 32q48 0 48 55q0 52 -48 52q-47 0 -47 -52q0 -55 47 -55zM501 190q20 0 30.5 12.5t10.5 32.5q0 45 -41 45q-40 0 -40 -45t40 -45zM567 171q22 -10 35.5 -33t13.5 -51q0 -49 -29 -79
t-85 -30t-86 30t-30 76q0 60 52 84q-37 19 -37 73q0 40 28.5 66t72.5 26q47 0 73 -25t26 -65q0 -54 -34 -72z" />
    <glyph glyph-name="threeeighths" unicode="&#x215c;" horiz-adv-x="644" 
d="M127 -20h-67l461 704h68zM513 32q48 0 48 55q0 52 -48 52q-47 0 -47 -52q0 -55 47 -55zM513 190q20 0 30.5 12.5t10.5 32.5q0 45 -41 45q-40 0 -40 -45t40 -45zM579 171q22 -10 35.5 -33t13.5 -51q0 -49 -29 -79t-85 -30t-86 30t-30 76q0 60 52 84q-37 19 -37 73
q0 40 28.5 66t72.5 26q47 0 73 -25t26 -65q0 -54 -34 -72zM105 492v45q67 0 67 46q0 51 -43 51q-19 0 -31.5 -14.5t-12.5 -40.5h-60q0 48 30 77.5t77 29.5q43 0 73 -25.5t30 -65.5q0 -51 -39 -74q49 -21 49 -82q0 -50 -32 -79t-85 -29q-51 0 -80 29t-29 80h63q0 -55 49 -55
q21 0 34.5 14.5t13.5 40.5q0 29 -16.5 40.5t-57.5 11.5z" />
    <glyph glyph-name="fiveeighths" unicode="&#x215d;" horiz-adv-x="631" 
d="M116 -20h-67l461 704h68zM87 473h-67l7 202h204v-55h-146l-3 -89q22 23 66 23q42 0 69 -28t27 -76q0 -54 -32 -86.5t-83 -32.5q-45 0 -77 27.5t-33 69.5h65q2 -20 14 -32t31 -12q50 0 50 63q0 55 -46 55q-32 0 -46 -29zM500 32q48 0 48 55q0 52 -48 52q-47 0 -47 -52
q0 -55 47 -55zM500 190q20 0 30.5 12.5t10.5 32.5q0 45 -41 45q-40 0 -40 -45t40 -45zM566 171q22 -10 35.5 -33t13.5 -51q0 -49 -29 -79t-85 -30t-86 30t-30 76q0 60 52 84q-37 19 -37 73q0 40 28.5 66t72.5 26q47 0 73 -25t26 -65q0 -54 -34 -72z" />
    <glyph glyph-name="seveneighths" unicode="&#x215e;" horiz-adv-x="637" 
d="M107 -20h-67l461 704h68zM506 32q48 0 48 55q0 52 -48 52q-47 0 -47 -52q0 -55 47 -55zM506 190q20 0 30.5 12.5t10.5 32.5q0 45 -41 45q-40 0 -40 -45t40 -45zM572 171q22 -10 35.5 -33t13.5 -51q0 -49 -29 -79t-85 -30t-86 30t-30 76q0 60 52 84q-37 19 -37 73
q0 40 28.5 66t72.5 26q47 0 73 -25t26 -65q0 -54 -34 -72zM131 343h-67q13 155 117 274h-162v58h232v-50q-112 -126 -120 -282z" />
    <glyph glyph-name="partialdiff" unicode="&#x2202;" horiz-adv-x="572" 
d="M408 273q-15 22 -54 38t-82 16q-112 0 -112 -113q0 -62 33.5 -92t91.5 -30q51 0 86.5 46t36.5 135zM101 534l-44 102q57 50 199 50q50 0 90.5 -10t78 -35.5t63 -67t40.5 -108t15 -154.5q0 -334 -277 -334q-114 0 -178 65.5t-64 174.5q0 107 63.5 165t174.5 58
q38 0 77 -12t62 -35q0 87 -41.5 133.5t-103.5 46.5q-99 0 -155 -39z" />
    <glyph glyph-name="product" unicode="&#x220f;" horiz-adv-x="598" 
d="M549 -233h-114v805h-279v-805h-113v897h506v-897z" />
    <glyph glyph-name="summation" unicode="&#x2211;" horiz-adv-x="526" 
d="M492 -182h-463v79l174 344l-174 344v79h463v-108h-303l150 -315l-150 -316h303v-107z" />
    <glyph glyph-name="minus" unicode="&#x2212;" horiz-adv-x="523" 
d="M494 296h-471v94h471v-94z" />
    <glyph glyph-name="radical" unicode="&#x221a;" horiz-adv-x="584" 
d="M339 0h-125l-109 287h-87v79h201l57 -201l145 499h139z" />
    <glyph glyph-name="infinity" unicode="&#x221e;" horiz-adv-x="669" 
d="M332 260q-46 -85 -150 -85q-62 0 -102.5 43t-40.5 122q0 80 40.5 123.5t102.5 43.5q53 0 88 -21.5t62 -64.5q27 43 62 64.5t88 21.5q62 0 102.5 -43.5t40.5 -123.5q0 -79 -40.5 -122t-102.5 -43q-104 0 -150 85zM292 337q-39 73 -93 73q-36 0 -55 -19t-19 -51
q0 -72 74 -72q62 0 93 69zM372 337q31 -69 93 -69q74 0 74 72q0 32 -19 51t-55 19q-54 0 -93 -73z" />
    <glyph glyph-name="integral" unicode="&#x222b;" horiz-adv-x="461" 
d="M100 -233h-57v112h57q54 0 54 80v530q0 96 55 139.5t145 43.5h57v-112h-57q-54 0 -54 -80v-530q0 -96 -55 -139.5t-145 -43.5z" />
    <glyph glyph-name="approxequal" unicode="&#x2248;" horiz-adv-x="555" 
d="M525 532v-101q-61 -67 -148 -67q-41 0 -111.5 29t-104.5 29q-76 0 -136 -76v101q57 67 132 67q52 0 124.5 -28.5t101.5 -28.5q86 0 142 75zM525 280v-101q-61 -67 -148 -67q-41 0 -111.5 29t-104.5 29q-76 0 -136 -76v101q57 67 132 67q52 0 124.5 -28.5t101.5 -28.5
q86 0 142 75z" />
    <glyph glyph-name="notequal" unicode="&#x2260;" horiz-adv-x="523" 
d="M61 -20h-67l141 216h-112v94h174l69 106h-243v94h305l127 194h68l-128 -194h99v-94h-160l-70 -106h230v-94h-291z" />
    <glyph glyph-name="lessequal" unicode="&#x2264;" horiz-adv-x="523" 
d="M494 96l-471 200v94l471 200v-104l-365 -143l365 -143v-104zM494 -29h-471v94h471v-94z" />
    <glyph glyph-name="greaterequal" unicode="&#x2265;" horiz-adv-x="523" 
d="M494 -29h-471v94h471v-94zM494 296l-471 -200v104l365 143l-365 143v104l471 -200v-94z" />
    <glyph glyph-name="dotmath" unicode="&#x22c5;" horiz-adv-x="187" 
d="M162 265h-139v135h139v-135z" />
    <glyph glyph-name="lozenge" unicode="&#x25ca;" horiz-adv-x="555" 
d="M350 0h-137l-171 332l171 332h137l162 -332zM280 120l105 212l-105 213l-106 -213z" />
    <glyph glyph-name="uniE000" unicode="&#xe000;" horiz-adv-x="664" 
d="M773 -14h121q0 -106 -54.5 -162.5t-140.5 -56.5q-88 0 -142 55.5t-54 144.5v81q-53 -71 -177 -71q-143 0 -227 100t-84 254q0 155 85.5 255t238.5 100q121 0 203 -63t90 -164h-140q-6 48 -50 80t-103 32q-82 0 -132 -64.5t-50 -174.5q0 -111 50 -174.5t131 -63.5
q70 0 117.5 44.5t47.5 107.5h-147v111h277v-384q0 -48 19.5 -69.5t50.5 -21.5q70 0 70 104z" />
    <glyph glyph-name="uniE001" unicode="&#xe001;" horiz-adv-x="523" 
d="M258 98q54 0 82.5 39t28.5 109q0 78 -32 115.5t-78 37.5q-49 0 -80 -41.5t-31 -115.5q0 -68 28 -106t82 -38zM492 -233h-128v297q-55 -77 -146 -77q-94 0 -148 70.5t-54 184.5q0 121 59 192t154 71q92 0 137 -73l1 60h125v-725z" />
    <glyph glyph-name="uniE002" unicode="&#xe002;" horiz-adv-x="464" 
d="M436 280h-189l82 -83l-82 -84l-225 228l225 227l82 -83l-82 -82h189v-123z" />
    <glyph glyph-name="uniE003" unicode="&#xe003;" horiz-adv-x="465" 
d="M210 113l-83 84l83 83h-187v123h187l-83 82l83 83l227 -227z" />
    <glyph glyph-name="uniE004" unicode="&#xe004;" horiz-adv-x="1111" 
d="M902 0h-139v548h-140v116h480v-116h-201v-548zM773 -14h121q0 -106 -54.5 -162.5t-140.5 -56.5q-88 0 -142 55.5t-54 144.5v81q-53 -71 -177 -71q-143 0 -227 100t-84 254q0 155 85.5 255t238.5 100q121 0 203 -63t90 -164h-140q-6 48 -50 80t-103 32q-82 0 -132 -64.5
t-50 -174.5q0 -111 50 -174.5t131 -63.5q70 0 117.5 44.5t47.5 107.5h-147v111h277v-384q0 -48 19.5 -69.5t50.5 -21.5q70 0 70 104z" />
    <glyph glyph-name="uniE005" unicode="&#xe005;" horiz-adv-x="574" 
d="M568 664l-258 -511q-44 -87 -97 -120t-155 -33h-34v118h34q59 0 88.5 19.5t56.5 74.5l19 38l-216 414h147l135 -279l137 279h143z" />
    <glyph glyph-name="uniE006" unicode="&#xe006;" horiz-adv-x="295" 
d="M7 492h58v131h124v-131h102v-90h-102v-237q0 -30 16 -46.5t45 -16.5h33v-102h-67q-151 0 -151 149v253h-58v90z" />
    <glyph glyph-name="fi" unicode="&#xfb01;" horiz-adv-x="472" 
d="M205 0h-128v400h-73v92h73q0 86 51 133t148 47h169v-121h-150q-54 0 -72 -9.5t-18 -49.5h84v-92h-84v-400zM445 0h-130v492h130v-492z" />
    <glyph glyph-name="fl" unicode="&#xfb02;" horiz-adv-x="474" 
d="M445 0h-130v400h-110v-400h-128v400h-73v92h73q0 180 209 180v-105q-49 0 -65 -15.5t-16 -59.5h110v180h130v-672z" />
    <glyph glyph-name="circumflexhook" horiz-adv-x="537" 
d="M432 581h-50q0 38 25 53q23 13 23 30t-24 17q-20 0 -41 -15l-18 55q29 25 70 25q34 0 54 -16.5t20 -44.5q0 -19 -9 -33.5t-20.5 -22t-20.5 -20t-9 -28.5zM322 571l-116 101l-116 -101l-40 44l110 115h91l110 -115z" />
    <glyph glyph-name="breveacute" horiz-adv-x="321" 
d="M216 668h57q0 -54 -33 -84t-79 -30t-78.5 30t-32.5 84h57q0 -28 14.5 -44t39.5 -16q53 0 55 60zM261 699l-128 -55l-18 33l119 69z" />
    <glyph glyph-name="brevetilde" horiz-adv-x="322" 
d="M214 746l39 -10q-6 -27 -20.5 -40.5t-32.5 -13.5q-13 0 -35 11t-34 11q-9 0 -17 -23l-37 18q14 45 51 45q14 0 36 -11.5t35 -11.5q12 0 15 25zM216 668h57q0 -54 -32.5 -84t-78.5 -30t-79 30t-33 84h57q2 -60 55 -60q25 0 39.5 16t14.5 44z" />
    <glyph glyph-name="brevehook" horiz-adv-x="321" 
d="M216 668h57q0 -54 -32.5 -84t-78.5 -30t-79 30t-33 84h57q2 -60 55 -60q25 0 39.5 16t14.5 44zM173 623h-37q0 29 19 40q17 10 17 22q0 13 -18 13q-13 0 -31 -11l-13 40q22 19 52 19q25 0 40 -12.5t15 -32.5q0 -22 -22 -41.5t-22 -36.5z" />
    <glyph glyph-name="circumflexacute" horiz-adv-x="640" 
d="M321 571l-116 101l-116 -101l-39 44l110 115h91l110 -115zM574 662l-185 -78l-25 46l171 100z" />
    <glyph glyph-name="gravecircumflex" horiz-adv-x="639" 
d="M560 571l-116 101l-116 -101l-40 44l110 115h91l110 -115zM764 584l-185 78l39 68l171 -100z" />
    <glyph glyph-name="CR" horiz-adv-x="0" 
 />
    <glyph glyph-name="brevegrave" horiz-adv-x="321" 
d="M216 668h57q0 -54 -32.5 -84t-78.5 -30t-79 30t-33 84h57q2 -60 55 -60q25 0 39.5 16t14.5 44zM190 644l-128 55l27 47l119 -69z" />
    </font>
</defs>
</svg>
