<?xml version="1.0" standalone="no"?>
<!DOCTYPE svg PUBLIC "-//W3C//DTD SVG 1.1//EN" "http://www.w3.org/Graphics/SVG/1.1/DTD/svg11.dtd" >
<svg xmlns="http://www.w3.org/2000/svg" xmlns:xlink="http://www.w3.org/1999/xlink" version="1.1">
<metadata>
Created by FontForge 20190801 at Wed Mar 31 11:41:14 2021
 By www-data
</metadata>
<defs>
<font id="FridayFunkinRegular" horiz-adv-x="250" >
  <font-face 
    font-family="FridayFunkinRegular"
    font-weight="400"
    font-stretch="normal"
    units-per-em="1000"
    panose-1="2 0 5 3 0 0 0 0 0 0"
    ascent="800"
    descent="-200"
    x-height="429"
    cap-height="650"
    bbox="33 -113 761 698"
    underline-thickness="50"
    underline-position="-100"
    unicode-range="U+000D-00A0"
  />
<missing-glyph horiz-adv-x="364" 
d="M33 0v666h265v-666h-265zM66 33h199v600h-199v-600z" />
    <glyph glyph-name=".notdef" horiz-adv-x="364" 
d="M33 0v666h265v-666h-265zM66 33h199v600h-199v-600z" />
    <glyph glyph-name=".null" 
 />
    <glyph glyph-name=".null" 
 />
    <glyph glyph-name="nonmarkingreturn" horiz-adv-x="333" 
 />
    <glyph glyph-name="CR" unicode="&#xd;" 
 />
    <glyph glyph-name="space" unicode=" " 
 />
    <glyph glyph-name="exclam" unicode="!" horiz-adv-x="275" 
d="M123 609q14 7 28 7q21 0 40.5 -11.5t25.5 -29.5q4 -11 4 -33q0 -74 -44 -217q-10 -33 -16 -65q-11 -68 -19.5 -91.5t-21.5 -23.5q-11 0 -16.5 21t-10.5 85q-5 81 -13 131q-4 25 -4 60q0 58 13 106t34 61zM83 97q10 5 42 5q23 0 31.5 -3t18.5 -14q18 -18 18 -46t-17 -48
q-10 -13 -18 -16t-28 -3q-21 0 -29.5 3.5t-22.5 18.5q-22 22 -22 46q0 37 27 57z" />
    <glyph glyph-name="quotesingle" unicode="'" horiz-adv-x="267" 
d="M105 376q12 31 48 31q35 0 50 -31q8 -18 8 -34q0 -33 -28 -64q-2 -2 -20.5 -25t-34 -40.5t-23.5 -22.5q-12 -9 -12 -16q0 -5 -10 -13q-10 -6 -20 -2t-10 22q0 20 14 52q10 23 13 58q3 32 25 85z" />
    <glyph glyph-name="quotesingle" unicode="&#x201a;" horiz-adv-x="267" 
d="M105 376q12 31 48 31q35 0 50 -31q8 -18 8 -34q0 -33 -28 -64q-2 -2 -20.5 -25t-34 -40.5t-23.5 -22.5q-12 -9 -12 -16q0 -5 -10 -13q-10 -6 -20 -2t-10 22q0 20 14 52q10 23 13 58q3 32 25 85z" />
    <glyph glyph-name="quotesingle" unicode="&#x2019;" horiz-adv-x="267" 
d="M105 376q12 31 48 31q35 0 50 -31q8 -18 8 -34q0 -33 -28 -64q-2 -2 -20.5 -25t-34 -40.5t-23.5 -22.5q-12 -9 -12 -16q0 -5 -10 -13q-10 -6 -20 -2t-10 22q0 20 14 52q10 23 13 58q3 32 25 85z" />
    <glyph glyph-name="quotesingle" unicode="&#x2018;" horiz-adv-x="267" 
d="M105 376q12 31 48 31q35 0 50 -31q8 -18 8 -34q0 -33 -28 -64q-2 -2 -20.5 -25t-34 -40.5t-23.5 -22.5q-12 -9 -12 -16q0 -5 -10 -13q-10 -6 -20 -2t-10 22q0 20 14 52q10 23 13 58q3 32 25 85z" />
    <glyph glyph-name="comma" unicode="," horiz-adv-x="303" 
d="M171 369q18 8 23 8q7 0 20 -7q34 -17 34 -55q0 -68 -77 -126q-61 -46 -85 -46h-6q-25 4 -25 21q0 10 3.5 14.5t16.5 12.5q17 10 33.5 37.5t16.5 45.5q0 29 20 69q7 16 26 26z" />
    <glyph glyph-name="period" unicode="." horiz-adv-x="236" 
d="M96 343q2 0 6 0.5t5 0.5q32 0 53 -19.5t21 -47.5q0 -15 -7 -29q-14 -30 -64 -30q-27 0 -42 14q-10 10 -12.5 18t-2.5 28q0 32 13 47q11 14 30 18z" />
    <glyph glyph-name="colon" unicode=":" horiz-adv-x="270" 
d="M114 556q16 6 27 6q12 0 35 -13q44 -23 44 -70t-31 -77q-17 -16 -43 -16t-49.5 16t-32.5 42q-4 12 -4 22q0 9 4 21q12 40 19.5 50.5t30.5 18.5zM100 234q9 3 22 3q39 0 56 -12q32 -21 32 -71q0 -23 -10 -42q-19 -38 -66 -38t-70 38q-11 19 -11 42q0 35 19 57q14 19 28 23
z" />
    <glyph glyph-name="semicolon" unicode=";" horiz-adv-x="280" 
d="M72 522q20 40 63 40q17 0 35 -9q29 -14 41 -55q3 -9 3 -19q0 -47 -52 -73q-14 -6 -23 -6q-7 0 -21 3q-26 7 -41 27.5t-15 47.5q0 23 10 44zM102 273q15 15 23 18.5t26 3.5q35 0 56 -24t21 -66q0 -26 -7.5 -41t-29.5 -33q-36 -33 -46 -43q-40 -40 -64 -40q-9 0 -19 5
q-9 6 -9 13q0 12 22 31q23 19 23 31q0 9 -9 24q-14 24 -14 56q0 13 1 20q4 22 26 45z" />
    <glyph glyph-name="question" unicode="?" horiz-adv-x="466" 
d="M191 614q24 10 58 10q25 0 37 -5q37 -12 52 -20t33 -25q25 -24 33 -41t8 -45q0 -37 -6.5 -56t-28.5 -48q-28 -36 -72 -60q-45 -25 -52 -36q-8 -10 -8 -43q0 -31 -10 -40q-7 -7 -17 -7q-19 0 -28 22q-7 19 -7 57t7 52q10 16 40 39q67 55 67 88q0 14 -10 25q-10 13 -34 13
q-28 0 -46 -15q-14 -11 -20.5 -24t-16.5 -47q-9 -31 -24.5 -49t-32.5 -18t-30 17q-29 38 -29 85q0 24 7 42q14 40 50.5 76.5t79.5 52.5zM149 121q10 13 31 25t40 15q12 0 30 -8t30 -19t12 -32q0 -36 -28 -64q-12 -11 -30 -11q-13 0 -22 1q-35 2 -49.5 12t-21.5 39
q-4 18 -4 19q0 6 12 23z" />
    <glyph glyph-name="A" unicode="A" horiz-adv-x="688" 
d="M389 565q-10 2 -20 2q-38 0 -55 -12q-8 -6 -21 -44q-12 -35 -46.5 -114.5t-46.5 -114.5q-2 -3 -46 -142q-4 -12 -16 -51q-2 -5 -5 -18t-5 -17q-4 -9 -4 -18q0 -13 20 -24q17 -10 27 -10q15 0 26 35q36 121 60 132q4 2 96 6l90 3l15 -17q16 -18 16 -24q0 -9 4 -16t25 -58
q20 -50 32 -51h4q11 0 18.5 8t7.5 19q0 1 -0.5 3t-0.5 3q-12 51 -43 167q-27 112 -92 277q-29 73 -40 76zM286 623q43 16 75 16h13q40 -1 62 -15q26 -17 43 -66q19 -48 28 -68q31 -70 85 -278q31 -106 36 -126t5 -51q0 -70 -73 -96q-13 -5 -21 -5q-7 0 -25 5q-28 7 -36 14
q-9 7 -25 47q-23 53 -34 85q-9 25 -15 27q-1 1 -7 1q-17 0 -52 -5l-54 -6l-8 -24q-13 -33 -21 -62q-28 -92 -78 -92q-16 0 -49 16t-55 35q-17 16 -20.5 23t-3.5 28q0 29 5 44q2 6 16 55q13 46 31 90q2 5 6 15.5t9.5 26.5t8.5 25q16 46 44 106q35 76 67 154q1 2 4 10.5
t5 11.5q5 8 5 17q0 11 9.5 24.5t19.5 17.5zM360 326q-6 14 -11 14q-3 0 -9 -11q-5 -9 -5 -19q0 -18 15 -18t15 14q0 7 -5 20zM329 417q0 8 9.5 15t19.5 7q11 0 20.5 -17.5t26.5 -67.5q25 -77 25 -93q0 -10 -4 -16t-16.5 -8.5t-24.5 -3t-40 -0.5q-45 0 -59 4.5t-14 20.5
q0 11 14 51t27 68q16 34 16 40z" />
    <glyph glyph-name="B" unicode="B" horiz-adv-x="563" 
d="M380 549q-23 10 -39 12.5t-65 4.5h-29q-79 0 -118 -12l-15 -5l1 -177q4 -360 18 -374q4 -4 70 -6h21q97 0 145 23q22 11 49.5 57t27.5 72q0 17 -12.5 44t-27.5 40q-54 48 -87 63q-22 9 -22 16t35 23q58 27 82 59t24 83q0 29 -12.5 45.5t-45.5 31.5zM116 622q46 13 119 13
q128 0 196 -33q36 -19 56 -54.5t20 -79.5q0 -31 -10 -60q-18 -56 -56 -89l-17 -15l17 -16q18 -16 39 -49q32 -49 32 -95q0 -38 -21 -84q-15 -32 -42 -62.5t-52 -45.5q-43 -25 -175 -25h-21q-108 0 -123 15q-13 13 -16 59.5t-5 223.5q-2 221 -6 294q-1 18 -1 40t11 36
q13 15 55 27zM288 442q-3 7 -28 7q-17 0 -21 -1.5t-4 -8.5q0 -14 17 -14q7 0 19 3q10 3 14.5 6.5t2.5 7.5zM211 502q7 3 26 3q52 0 78 -12q40 -19 40 -55q0 -17 -13 -29q-14 -13 -41 -23.5t-54 -12.5q-3 0 -9 -0.5t-8 -0.5q-19 0 -25 7.5t-6 30.5q0 29 -5 47q-2 12 -2 16
q0 20 19 29zM301 142q-12 3 -29 3q-25 0 -25 -11q0 -4 3 -9q6 -11 20 -11q2 0 6 0.5t7 0.5q26 2 28 13q1 10 -10 14zM240 199q12 2 23 2q53 0 72 -13q16 -9 27.5 -27t11.5 -34q0 -17 -12.5 -35t-31.5 -27q-24 -12 -61 -12q-28 0 -43 9q-12 7 -14.5 15t-3.5 46q0 4 -0.5 11
t-0.5 10q0 29 7.5 40.5t25.5 14.5z" />
    <glyph glyph-name="C" unicode="C" horiz-adv-x="660" 
d="M466 545q-18 9 -32 11.5t-55 3.5h-21q-49 0 -73.5 -11.5t-65.5 -51.5q-28 -27 -40 -44.5t-31 -54.5l-27 -56v-65q0 -58 8.5 -89.5t33.5 -65.5q39 -53 74 -76t79 -25h11q43 0 89.5 20.5t81.5 54.5q36 34 36 67q0 7 -4 21q-7 19 -13 19t-27 -19q-77 -71 -178 -71
q-32 0 -42.5 2.5t-26.5 13.5q-43 29 -60.5 66.5t-17.5 101.5q0 33 3 45.5t16 38.5q32 62 99 94q23 11 36.5 13.5t51.5 2.5h14q38 0 57 -7.5t48 -32.5q24 -20 29 -20q3 0 9 6q7 7 7 13q0 3 -5 20q-16 50 -64 75zM287 621q31 11 66 11h15q109 -3 165 -67q25 -29 36 -35
q12 -7 25.5 -37.5t13.5 -51.5q0 -22 -11 -39t-36 -35t-42 -21q-3 -1 -7 -1q-11 0 -43 27q-36 32 -56.5 43t-43.5 11h-11q-26 -1 -44.5 -11t-45.5 -36q-18 -17 -24.5 -36t-6.5 -52q0 -39 11.5 -67t31.5 -36q27 -12 49 -12q15 0 29 6q26 10 64.5 37.5t44.5 38.5q15 29 45 29
q8 0 12 -1q28 -4 42.5 -20t35.5 -67q5 -11 5 -29q0 -49 -45 -105t-109 -85q-37 -16 -53 -20t-49 -4h-21q-44 0 -58.5 2.5t-37.5 13.5q-45 22 -91.5 73.5t-70.5 106.5q-13 30 -15.5 44.5t-4.5 67.5v23q0 53 5 73q11 42 49 101t78 98q41 40 103 62z" />
    <glyph glyph-name="D" unicode="D" horiz-adv-x="659" 
d="M377 537q-19 4 -62 4q-60 0 -124.5 -7.5t-76.5 -16.5q-9 -7 -9 -19q0 -3 2 -17l4 -26h46q32 0 40 -2t14 -11q14 -23 20 -233q1 -31 1 -69q0 -37 -10 -48q-12 -13 -43 -17q-25 -3 -33.5 -7.5t-8.5 -16.5q0 -8 1 -13q5 -35 13.5 -41t52.5 -6h8q63 0 91 5q10 2 29 5.5
t23 4.5q36 7 86 42t63 63q14 31 23.5 82.5t9.5 94.5q0 4 -0.5 10.5t-0.5 9.5q-3 40 -14.5 87t-23.5 68q-14 25 -48 45.5t-73 28.5zM231 611q3 3 54 3q89 0 107 -5q63 -15 63 -21q0 -4 6 -4q11 0 41.5 -26.5t44.5 -48.5q23 -35 45 -114q5 -19 10.5 -63.5t5.5 -66.5
q0 -10 -1 -11q-2 -3 -8 -50q-4 -38 -17 -80t-29 -64q-45 -63 -124 -101q-85 -41 -214 -41q-52 0 -87 11q-25 8 -35 15q-14 12 -22 110q-2 26 -2 33q0 25 9 33.5t37 13.5q32 6 40 11t8 18v6l-3 55q-2 56 -5 104.5t-6 52.5q-4 2 -26 2h-16h-12q-27 0 -34 5q-8 6 -8 48
q0 34 6 58q3 14 3 23t-3 18q-4 12 -4 16q0 10 8.5 18t28.5 18q26 13 84 18q54 5 55 6zM413 309q-8 20 -28.5 39t-42.5 19q-6 0 -7.5 -2t-1.5 -12q0 -15 1 -28q4 -47 8 -58q5 -13 5 -37q0 -20 7 -31q5 -8 8.5 -7.5t13.5 8.5q14 11 18 18q22 43 22 73q0 11 -3 18zM295 420
q8 9 14.5 11.5t25.5 2.5q35 -1 59 -14.5t52 -48.5q18 -24 24 -40t6 -43q0 -47 -24.5 -91.5t-57.5 -58.5q-20 -8 -50 -8q-24 0 -29.5 2t-9.5 12q-6 15 -17 202q-2 40 -2 43q0 19 9 31z" />
    <glyph glyph-name="E" unicode="E" horiz-adv-x="559" 
d="M423 541l-2 30h-54h-17q-44 0 -60 -3q-22 -5 -93 -5q-73 -2 -77 -5q-7 -4 -7 -119v-94q1 -313 18 -324q5 -3 18 -3q9 0 14 1q15 2 122 8.5t122 8.5l27 2l-1 50l-2 50l-42 1h-13q-30 0 -40 -4q-20 -9 -66 -9q-20 0 -28 3q-30 11 -34 70q0 5 -0.5 13t-0.5 12q0 17 2 25
q8 29 80 35q31 3 39 9t8 26q0 10 -4.5 18t-9.5 8q-2 0 -4 -2q-4 -4 -78 -15q-5 -1 -12 -1q-11 0 -20 12q-7 10 -9 23t-2 57q0 65 8 72q10 8 163 18l56 3zM345 647q4 4 50 4q79 0 95 -31q3 -6 3 -43q0 -98 -9 -111q-10 -14 -58 -26q-22 -6 -91 -6t-73 -8q-4 -9 0.5 -16
t11.5 -3q8 3 47 5q5 0 11.5 0.5t9.5 0.5q18 0 37 -15q16 -14 20 -31t5 -69v-13q0 -38 -7 -45t-38 -14.5t-54 -7.5q-26 0 -26 -6q0 -5 83 -5q66 0 93.5 -4t38.5 -17q12 -12 12 -121q0 -66 -7 -77q-11 -18 -33.5 -22t-119.5 -7q-133 -4 -188 -7l-67 -4l-16 16q-11 11 -14.5 21
t-6.5 40q-4 39 -4 163q0 188 7 264q5 53 8 119q1 39 10.5 49t46.5 10q40 1 130 7.5t93 9.5z" />
    <glyph glyph-name="F" unicode="F" horiz-adv-x="529" 
d="M407 559q-4 9 -75 9h-41q-176 -2 -186 -12q-1 -16 -1 -42q0 -82 3 -212l4 -251l19 -5q16 -3 29 -1q5 1 7 4t3 13.5t1 36.5v43v33q0 63 7 74q5 8 18.5 11.5t58.5 10.5q57 7 75 12q7 3 7 23v20l-59 -3l-58 -4l-16 17q-27 27 -27 92q0 29 14 35.5t86 11.5q83 7 109 13l25 6
v28q0 30 -3 37zM125 630q60 4 189 4q122 0 130 -4q25 -13 30 -100q1 -14 1 -36q0 -28 -3 -36q-5 -10 -33 -25q-19 -9 -38.5 -12.5t-72.5 -7.5q-82 -5 -85 -8q-1 -1 3 -7q2 -5 66 -5h11q58 0 67 -11t10 -76q0 -69 -9 -75q-10 -6 -48 -13q-5 -1 -34 -6t-40 -7l-34 -7v-89
q0 -93 -4 -104q-5 -14 -22 -18t-78 -4q-69 0 -76 9q-5 8 -5 98q0 73 1 126q3 270 5 333t9 70q8 8 60 11z" />
    <glyph glyph-name="G" unicode="G" horiz-adv-x="639" 
d="M399 593q-37 5 -58 5q-49 0 -99 -23q-30 -13 -58.5 -57t-47.5 -105q-22 -71 -22 -143q1 -67 15.5 -108t53.5 -83q14 -16 22 -16q4 0 12 -8q6 -8 36 -21q28 -13 75 -14q51 0 60 5q3 1 17.5 8t23.5 11q48 21 74 78q15 33 19 55t4 70v6q0 53 -9 62t-61 13q-30 2 -36 2
q-23 0 -30.5 -6.5t-7.5 -24.5v-21l32 3q6 1 15 1q26 0 36 -14.5t10 -51.5q0 -58 -45 -104q-43 -44 -109 -44q-57 0 -93 34.5t-65 115.5q-11 29 -11 80q0 84 26 142q43 96 147 96q52 0 112 -25q8 -4 14 -4q5 0 16 9q22 21 22 35q0 4 -1 6q-3 10 -29.5 21t-59.5 15zM272 653
q25 7 65 7q84 0 132 -24q18 -11 54 -47q36 -37 36 -55t-39 -60q-23 -25 -31 -32t-17 -7q-6 0 -10 1q-22 2 -65 18q-44 16 -73 16q-30 0 -51 -17q-22 -18 -33.5 -40t-18.5 -61q-5 -30 -5 -51q0 -47 24 -96q20 -40 33 -51t43 -11h6q31 0 47 7.5t26 26.5q7 16 7 19q0 10 -34 13
q-36 3 -45.5 12.5t-9.5 45.5v20q2 70 13 90t53 20q3 0 10.5 -0.5t12.5 -0.5q136 -8 161 -18q12 -4 19 -22q6 -18 6 -98q0 -96 -7 -118q-17 -55 -54.5 -100t-86.5 -67q-19 -9 -34.5 -11t-64.5 -2q-50 0 -66 2t-43 13q-63 26 -103 68.5t-62 108.5q-10 30 -12.5 47.5t-2.5 69.5
q0 120 37 203q36 82 79 129q11 12 43.5 28.5t60.5 23.5z" />
    <glyph glyph-name="H" unicode="H" horiz-adv-x="577" 
d="M180 582l-2 22h-31q-31 0 -34 -8q-1 -1 -1 -44q0 -86 3 -224q5 -260 12 -268q6 -8 22 -6l16 1v75q0 61 5.5 84t20.5 27q6 2 49 2q35 0 75 2l35 1l10 -28q8 -24 8 -96v-74q1 -5 24 -5h17l40 2l4 162q1 24 5 271l1 108h-93l-1 -96q-1 -96 -9 -102q-8 -7 -45.5 -14t-66.5 -7
q-17 0 -23.5 1.5t-13.5 5t-9.5 18t-4.5 30.5t-4 53q-1 17 -3.5 44t-3.5 42.5t-2 20.5zM140 676q40 5 57 5q37 0 45.5 -25.5t12.5 -124.5q4 -87 9 -92q6 -6 20 0l14 5l-4 95q-2 54 -2 64q0 40 14 48t71 9h6.5h6.5h7h35q53 0 60 -4q20 -11 28 -48.5t8 -124.5q0 -24 -2 -104
q-3 -86 -3 -160q0 -43 1 -53q1 -12 1 -38q0 -100 -16 -132q-12 -26 -52 -26q-10 0 -48 4q-76 9 -90 17q-18 10 -20 52q0 8 -1 50l-2 79l-29 -2l-30 -1l-1 -81q-1 -72 -8 -85q-9 -16 -50 -17h-23h-15q-69 0 -74 6q-11 12 -15 262q-1 42 -1 112q0 104 4 147q4 56 4 62
q0 17 -4 37q-4 13 -4 22q0 8 7 15q16 19 83 27z" />
    <glyph glyph-name="I" unicode="I" horiz-adv-x="566" 
d="M435 541l1 37l-40 -1q-254 -6 -268 -13q-10 -6 -10 -19q0 -9 1 -15q0 -4 1 -9.5t1 -8t1 -6t1.5 -5t1.5 -3.5t2.5 -3t3.5 -2t4.5 -1h5.5q4 0 34 2q32 2 34 2q16 0 27 -11q9 -9 11.5 -26.5t5.5 -96.5q5 -122 5 -154q0 -58 -11 -78l-10 -18l-54 -4q-55 -6 -57 -8
q-1 -1 -1 -7q0 -11 3 -29l5 -32h27q41 1 136 6t105 7t12 7.5t2 28.5q0 25 -5 34t-20 9q-3 0 -17 -2q-12 -2 -20 -2q-9 0 -21 2q-22 4 -28.5 21.5t-6.5 78.5v25q1 213 17 232q17 17 101 24l18 1zM147 643q46 7 167 7q93 0 130 -5q35 -5 49 -20q9 -10 12.5 -21.5t5.5 -47.5
q2 -30 2 -38q0 -24 -6 -44q-6 -23 -15 -27.5t-69 -16.5q-42 -7 -47 -9q-4 -1 -8 -58.5t-4 -104.5q0 -25 1 -33l1 -26l21 -1q24 -2 48 -7q18 -4 24 -8t12 -16q6 -11 9.5 -33.5t6 -56t3.5 -40.5q2 -18 2 -20q0 -12 -10 -23q-8 -10 -22 -13.5t-68 -10.5q-70 -10 -190 -10h-112
l-12 13q-10 11 -17 50t-7 78q0 47 10 56q17 17 75 19q31 1 36 6q8 8 8 77v39q0 115 -6 119q-8 4 -52 4q-30 0 -39 1.5t-13 8.5q-10 13 -10 136q0 38 3 44q10 21 81 32z" />
    <glyph glyph-name="J" unicode="J" horiz-adv-x="621" 
d="M490 560q-12 4 -144 4q-166 0 -173 -5q-1 -1 -1 -27v-26h63h6q57 0 66.5 -10t11.5 -68q0 -5 0.5 -18t0.5 -21q0 -166 -13 -209q-9 -33 -33 -57t-49 -24q-54 0 -66 111q-4 34 -7 44t-11 10q-18 0 -22 -8t-4 -43q0 -143 56 -175q18 -11 57 -11q32 0 48 6.5t34 27.5
q24 27 32 69q6 30 13 129t7 150q0 64 6 70q7 7 64 7q44 0 56.5 4t12.5 20q0 4 -2 20q-4 28 -9 30zM152 624q16 4 137 4h53q156 -1 184.5 -7t33.5 -35q7 -46 7 -103q0 -32 -3 -38q-6 -11 -34.5 -18.5t-65.5 -7.5h-40v-65q0 -71 -9 -157.5t-20 -120.5q-18 -53 -63 -84.5
t-104 -31.5q-2 0 -7 0.5t-8 0.5q-61 5 -96 36t-49.5 81.5t-14.5 144.5q0 63 7 76t45 22q39 9 61 9q38 0 44 -27q1 -4 3 -37.5t6 -60.5t10 -27q8 0 16 33q9 32 10 128l2 98l-63 2q-63 3 -71 10q-8 5 -8 27q0 24 8 56q6 22 6 41q0 6 -1 8q-1 3 -1 10q0 25 25 33z" />
    <glyph glyph-name="K" unicode="K" horiz-adv-x="514" 
d="M171 477l-8 91h-60l3 -215q4 -219 8 -233q5 -17 5 -48v-30l27 1l27 2l1 75q1 41 1 93q1 19 15 25q10 4 14 4q6 0 17 -6q16 -9 16 -13q0 -5 7 -12q4 -4 25.5 -35.5t26.5 -35.5q11 -9 19 -25q9 -17 22 -32t18 -15t21 23q13 19 13 24q0 4 -6 13q-12 20 -33 42q-24 28 -58 76
q-22 32 -28 44.5t-6 28.5q0 22 10.5 40t56.5 73q3 4 17 26q6 12 21 27q13 13 13 22q0 7 -16 20.5t-24 13.5h-2q-7 -3 -17 -22q-6 -12 -25.5 -44t-30.5 -55q-15 -29 -27 -41t-26 -12q-17 0 -23.5 19t-13.5 91zM139 635q17 5 34 5q28 0 38 -9q7 -6 10 -17.5t6 -47.5
q5 -56 7 -58h1q5 0 19.5 22.5t26.5 49.5l18 40h56l52 -47q52 -48 52 -65q0 -12 -25 -39q-31 -34 -56 -69q-6 -8 -16.5 -22.5t-17.5 -24.5t-11 -14l-15 -19l25 -37q27 -40 61 -76q56 -62 56 -95q0 -6 -1 -8q-8 -30 -50 -79.5t-59 -49.5q-8 0 -31 26t-48 63q-29 45 -34 45
q-3 0 -3 -38v-16v-21q0 -29 -6.5 -35.5t-35.5 -15.5q-22 -7 -49 -7q-23 0 -45 6q-2 1 -6 2q-22 5 -27 17q-7 16 -10 136l-1 20q-4 142 -4 185v20q5 242 12 250q5 5 77 23z" />
    <glyph glyph-name="L" unicode="L" horiz-adv-x="514" 
d="M199 569q-3 5 -17 3q-65 -4 -71 -10q-4 -4 -4 -154q0 -229 6 -238q3 -4 7 -68l2 -62h268l-1 42q-2 49 -3 51q-2 7 -90 7q-86 0 -96 7q-9 6 -9 72v53q2 145 6 205q3 45 3 76q0 15 -1 16zM190 642q3 3 28 3q34 0 39 -4t10 -22t5 -32q0 -8 -1 -10q-5 -15 -9.5 -165
t-5.5 -155q-1 -10 -1 -27q0 -16 2 -18q4 -4 93 -8q88 -4 94 -10q6 -7 11 -53.5t5 -96.5v-58l-30 -11q-26 -9 -42 -9q-4 0 -34 2q-62 4 -85 4q-22 0 -86 -4q-12 -1 -36 -1q-75 0 -84 21q-13 28 -13 321q0 125 5 222q5 78 13 89.5t63 14.5q56 4 59 7z" />
    <glyph glyph-name="M" unicode="M" horiz-adv-x="767" 
d="M306 558q-7 7 -20 7q-5 0 -17.5 -1.5t-18.5 -1.5q-25 -2 -32 -11.5t-15 -52.5q-36 -186 -57 -336q-7 -55 -12 -84q-5 -30 -5 -45q0 -6 1 -8q2 -6 14.5 -10.5t24.5 -4.5t17 5q7 7 11 36q0 2 9.5 53t13.5 75q7 41 21 90t21 58q10 10 27 10q14 0 25 -8q11 -7 31 -74
q21 -66 28 -66q8 0 12 23q3 20 17 65q15 52 43 52q5 0 15 -2q13 -3 19.5 -13t13.5 -36q63 -261 79 -267h1q7 0 31.5 14t24.5 18q0 2 -13 63q-13 63 -18 95q-5 31 -17 87.5t-20 110.5q-2 23 -12.5 73t-11.5 57q0 1 -1 3q-2 15 -9 17q-5 1 -14 1q-21 0 -38 -1
q-24 -1 -35 -17.5t-35 -87.5q-18 -53 -26.5 -70t-17.5 -17q-4 0 -6 1q-9 4 -13 17t-16 89q-13 87 -20 94zM206 636q28 2 68 4h10q41 0 53.5 -10t15.5 -44q4 -36 9 -63q3 -19 7 -19t10 47q2 16 4 27t6.5 19t6 12t10.5 7.5t11.5 4.5t17.5 3.5l21 3.5q22 6 71 10q24 2 28 2
q16 0 28 -12q8 -8 16 -35.5t15 -63.5t9 -43q4 -20 14 -74t18.5 -98.5t10.5 -50.5q3 -13 13 -68t17 -77q10 -41 12 -75l3 -39l-32 -24q-30 -25 -62 -36q-31 -11 -34 -16t-40 -5h-36l-8 29q-28 107 -37 130q-6 16 -6 26q0 11 -9 18q-4 2 -5 2q-7 0 -26 -62q-16 -49 -46 -49
q-6 0 -9 1q-25 6 -40 59l-16 52l-8 24l-7 -18q-5 -10 -13 -61q-18 -104 -29.5 -127.5t-43.5 -23.5q-27 0 -77.5 18t-62.5 32q-9 12 -9 30q0 4 2 28q4 41 35 247q20 125 49 224q6 16 6 57q0 46 10.5 59t48.5 18z" />
    <glyph glyph-name="N" unicode="N" horiz-adv-x="536" 
d="M194 505q-14 32 -21 32q-53 -5 -70 -15q-7 -3 -8.5 -9t-1.5 -31q0 -37 1 -68q5 -135 13 -237q2 -32 4.5 -67t4 -53.5t1.5 -19.5q0 -5 15 -5q18 0 28 7q7 5 7 19t-6 67q-6 54 -6 92q0 58 14 70q8 8 19 8q18 0 27 -18q0 -1 32 -59q37 -68 89 -168q4 -7 19.5 -12t32.5 -5
q12 0 17 2l14 5v98q0 34 -2 132t-2 143q0 48 1 67q0 4 0.5 10t0.5 8q0 25 -9.5 32t-38.5 7h-36l2 -73q2 -75 9 -129q3 -29 3 -45q0 -36 -19 -36t-33.5 21.5t-38.5 86.5q-14 37 -62 143zM140 605q25 4 44 4q22 0 36 -14q15 -15 31 -58q21 -52 26 -52t5 35q0 42 -5 45t-5 12
q0 15 13 25q11 8 36 8q6 0 44 -2q83 -4 102 -26q5 -6 8 -195q4 -190 9 -273q3 -42 3 -66q0 -35 -7 -48t-28 -21q-24 -9 -65 -9q-46 0 -66 10q-18 8 -25.5 16t-23.5 39q-36 67 -41 67h-1q-2 -2 -2 -6t3 -25.5t3 -35.5q0 -24 -8 -39q-7 -16 -20.5 -20t-57.5 -5h-11
q-35 0 -50.5 6t-20.5 21q-14 46 -16 372v82q0 21 0.5 34.5t0 26.5t1 21t2 15.5t3 12t3.5 7.5t5.5 6t6.5 4.5t9 4.5t10 5q23 12 49 16z" />
    <glyph glyph-name="O" unicode="O" horiz-adv-x="605" 
d="M352 579q-27 7 -50 7q-35 0 -81 -25q-29 -16 -57.5 -72t-46.5 -131q-6 -28 -6 -73q0 -92 17 -134q3 -5 14 -37q8 -24 30.5 -48t49.5 -37q29 -13 68 -13q26 0 39 3.5t36 15.5q57 31 84 78t37 136q5 50 5 53q0 10 -3 41q-9 115 -57 185q-16 23 -30.5 32.5t-48.5 18.5z
M268 646q32 4 50 4q16 0 43 -6q47 -12 67.5 -23t42.5 -36q46 -53 58 -105q4 -20 13 -50q12 -42 12 -116q0 -89 -17 -151q-36 -129 -145 -183q-31 -16 -44.5 -18.5t-62.5 -2.5h-66l-41 23q-45 27 -69.5 59.5t-42.5 91.5q-10 31 -12 52.5t-2 82.5q0 85 10.5 135t42.5 113
q16 34 50.5 70.5t58.5 47.5q14 6 54 12zM353 379q-25 52 -46 52q-16 0 -34 -27q-35 -49 -35 -121q0 -57 25 -85q15 -17 30 -17q14 0 36 17q20 15 32 52q10 33 10 59q0 33 -18 70zM277 479q15 8 38 8q28 0 43 -11q15 -10 37 -46t31 -66q8 -24 8 -57q0 -48 -19 -92t-53 -70
q-21 -18 -30.5 -21t-39.5 -3h-42l-25 27q-25 27 -34.5 57t-9.5 80q0 145 96 194z" />
    <glyph glyph-name="P" unicode="P" horiz-adv-x="539" 
d="M371 544q-17 8 -34.5 10t-70.5 3h-36q-51 0 -81 -2l-37 -3l1 -144q1 -174 16 -350q2 -27 5 -34t12 -11q6 -3 15 -3q6 0 28 4l30 6l-4 52q-8 130 -8 141q0 18 5 25q6 7 46 7h21h25q37 0 59 11q29 16 40.5 36.5t18.5 72.5q4 23 4 42q0 16 -3 28q-6 28 -6 44q0 42 -46 65z
M106 618q19 5 81 5q59 0 114 -4q46 -4 64 -8t44 -16q44 -21 58.5 -54t18.5 -122v-23q0 -169 -110 -202q-8 -2 -22 -6.5t-20.5 -6.5t-18.5 -3.5t-26 -1.5q-22 0 -21 -5q4 -5 9 -91q2 -42 2 -53q0 -46 -16.5 -58.5t-76.5 -17.5q-28 -2 -33 -2q-20 0 -41 9q-25 11 -30 22
q-17 33 -19 364q-1 205 -8 213q-5 5 -5 14q0 14 15.5 27t40.5 20zM293 430q-9 5 -26 5q-18 0 -21 -7q-3 -6 4 -20q6 -12 26 -8q17 3 23 6q6 4 4 11.5t-10 12.5zM204 488q6 8 14.5 10t40.5 2q47 0 69 -12q39 -22 39 -66v-9q-4 -44 -43 -68q-22 -14 -65 -15h-10q-38 0 -46 14
t-8 72t9 72z" />
    <glyph glyph-name="Q" unicode="Q" horiz-adv-x="635" 
d="M380 578q-3 5 -46 5h-12q-56 0 -83 -13q-58 -28 -92.5 -109t-34.5 -190v-25q4 -87 16.5 -125.5t46.5 -66.5q17 -14 48.5 -26t52.5 -12q14 0 36 13.5t31 28.5q17 26 32 26t53 -24q48 -31 58 -31q3 0 7 2q8 3 8 9q0 9 -36 49t-36 59q0 11 10 20q31 28 51 139q2 8 2 32
q0 44 -10 99.5t-22 74.5q-10 16 -34.5 37t-32.5 22q-9 0 -13 6zM218 629q37 15 65 15q4 0 15 -0.5t18 -0.5q59 -3 87 -15q27 -13 29 -17q3 -5 13 -5q21 0 52 -29.5t40 -57.5q14 -44 19 -154q1 -9 1 -27q0 -80 -36 -163q-12 -27 -12 -32t8 -13q24 -22 44 -55t20 -50
q0 -14 -22 -32t-47 -25q-15 -5 -34 -5q-36 0 -65 23q-18 13 -29 13q-12 0 -24 -14q-28 -31 -86 -31q-42 0 -86 18.5t-73 49.5q-37 39 -56 99q-8 26 -8 138q0 103 8 137q23 93 65 155q20 30 39 45.5t55 32.5zM363 474q-17 11 -38 11q-18 0 -30 -8q-16 -10 -25.5 -22
t-24.5 -38q-19 -33 -26 -65.5t-8 -88.5v-23q0 -48 11 -65q12 -21 28 -21q8 0 13 4q3 2 3 7q0 15 -29 62q-14 22 -14 36q0 18 32 44q31 27 42 43q12 18 29 18q30 0 51 -48q11 -26 17 -26q7 0 7 59q0 5 -0.5 17.5t-0.5 19.5q-1 23 -12.5 49.5t-24.5 34.5zM276 541q14 7 39 7
q43 0 72 -18q53 -35 66 -107q3 -17 3 -37q0 -49 -12 -105t-28 -75q-7 -9 -24 -7q-11 1 -19 8t-23 31q-25 39 -34 39q-5 0 -10 -5q-8 -6 -8 -18q0 -18 23 -56q22 -37 22 -50q0 -14 -17.5 -30.5t-37.5 -21.5q-21 -6 -39 -6q-53 0 -83 59q-11 23 -13.5 39t-2.5 73q1 69 8 105.5
t26 72.5q17 31 45 62t47 40z" />
    <glyph glyph-name="R" unicode="R" horiz-adv-x="618" 
d="M391 570l-17 19l-86 -1q-127 -3 -135 -3l-51 -2l4 -177q5 -312 18 -378q4 -20 10 -24q5 -4 20 -4q18 0 29 6q10 6 10 37q0 4 -2 74q-2 78 -2 81q0 29 7 36q9 9 24 9q34 0 56 -33q8 -12 58 -70t77 -88q16 -18 26 -18q10 1 24 21.5t14 33.5t-41 56q-53 56 -72.5 81
t-21.5 40q-1 5 -4 16.5t-3 15.5q0 11 20.5 30.5t46.5 33.5q17 8 28 31.5t11 50.5t-15 66.5t-33 59.5zM211 663q73 4 125 4q48 0 67 -6t33 -24q29 -36 60 -99q16 -32 16 -109q0 -36 -6 -51q-20 -50 -56 -74q-6 -4 -15.5 -9.5t-10.5 -6.5q-1 0 -1 -2q0 -13 90 -120
q44 -53 47 -68q1 -3 1 -9q0 -23 -41 -77q-36 -46 -37 -47q-8 -12 -37 -15q-2 0 -6 -0.5t-6 -0.5q-37 0 -62 32q-63 81 -68 88q-21 27 -28 27q-11 0 -14 -69t-15.5 -81t-82.5 -13q-21 -1 -47 -1q-27 0 -39 12q-11 9 -14.5 21.5t-7.5 57.5q-7 79 -7 343q0 123 3 186q2 61 8 72
t46 25q36 11 105 14zM276 446q-11 8 -22 8t-18 -6.5t-7 -16.5q0 -13 4.5 -16.5t23.5 -3.5q17 0 21 2t6 11q3 13 -8 22zM183 501q13 9 64 9q49 0 67 -13q34 -25 34 -64q0 -53 -56 -81q-24 -12 -44 -12q-18 0 -33 7q-21 9 -28 22t-8 44q-2 42 -5 58q-1 5 -1 13q0 10 10 17z
" />
    <glyph glyph-name="S" unicode="S" horiz-adv-x="605" 
d="M417 581q-2 12 -5.5 15.5t-13.5 3.5h-9q-11 -1 -48.5 -5.5t-69.5 -4.5q-75 -1 -109 -34q-15 -13 -15 -24q0 -6 -5 -14q-7 -7 -12.5 -32t-5.5 -45q0 -21 11.5 -40.5t28.5 -26.5q18 -7 87 -12q66 -5 91 -11t43 -21q14 -12 29.5 -42.5t15.5 -47.5q0 -28 -21 -53.5t-55 -38.5
q-56 -21 -160 -21q-22 0 -32 1q-28 2 -30 2q-7 0 -10.5 -1.5t-4.5 -3.5t-2 -8q-1 -4 -1 -12q0 -20 8.5 -42t18.5 -28q9 -5 51 -5q123 0 173 21q9 3 31 11q51 18 68 47q23 38 23 115q0 4 -0.5 11t-0.5 10q-2 47 -18 74q-37 61 -161 71q-54 5 -77 21.5t-23 52.5t43 56
q16 8 32 10t62 2q51 0 61 2t12 13q1 4 1 16t-1 18zM206 646q21 3 101 3h46h25q78 -1 93 -9q15 -11 15 -50q0 -5 -0.5 -19.5t-0.5 -23.5q0 -31 -1 -46.5t-4 -27.5t-8 -15.5t-14 -3.5q-5 0 -27 4q-30 6 -83 6q-51 0 -51 -6q0 -8 85 -16q66 -7 104.5 -38t60.5 -96q7 -20 7 -54
q0 -23 -1 -38q-4 -73 -8 -89q-11 -50 -49.5 -89t-93.5 -55t-168 -22h-14q-33 0 -73.5 8t-62.5 18q-18 10 -25.5 32t-7.5 70v22q1 60 9 72q11 16 65 17q11 1 63 1q76 0 96 2t40 11q18 9 22.5 14.5t4.5 17.5q0 20 -8 26q-11 9 -46 15.5t-74 6.5q-53 0 -84 13.5t-59 49.5
q-13 16 -15.5 25.5t-2.5 41.5v15q0 46 6.5 74.5t25.5 62.5q19 33 44 49t68 21z" />
    <glyph glyph-name="T" unicode="T" horiz-adv-x="579" 
d="M454 595q-8 5 -123 5q-46 0 -74 -2q-25 -2 -92 -7l-53 -4l2 -29l1 -29l67 -2q49 -2 59 -4.5t18 -12.5q7 -10 9 -23.5t2 -61.5q0 -83 -5 -215q-2 -45 -2 -101q0 -43 4 -46q9 -4 25 -1l19 3v443l14 10q10 7 17 7q6 0 20 -3q26 -6 54 -6q21 0 26.5 2t9.5 11q6 12 6 42
q0 21 -4 24zM261 674q3 3 62 3q111 0 134 -6q53 -13 63 -31q5 -8 5 -80q0 -79 -11 -101.5t-53 -22.5q-19 0 -31 1l-54 4v-20q0 -1 4 -154t4 -203v-16l-1 -9q-4 -29 -21 -36t-87 -7h-21q-45 0 -57 8t-12 43q0 9 2 59q10 251 10 306q0 33 -3 39q-5 11 -26 6q-27 -5 -43 -5
q-31 0 -50 12l-20 13l2 79q2 79 11 88q11 11 132 21q59 6 61 9z" />
    <glyph glyph-name="U" unicode="U" horiz-adv-x="675" 
d="M194 577q-30 0 -40 3q-12 2 -18 -1q-5 -2 -5 -153q0 -227 8 -280q5 -33 20 -74t25 -51q7 -7 41 -24q22 -11 38.5 -14t55.5 -3q58 0 89.5 11t63.5 42q26 26 34 48t22 107q10 57 10 204q0 102 -6 138l-4 31q-11 1 -33 2.5t-33 1.5v-134q0 -143 -17 -202t-65 -85
q-16 -9 -43 -9q-33 0 -53 13q-36 23 -51 80t-15 180q0 8 0.5 27t0.5 29l2 113h-27zM198 670q13 5 35 5q25 0 38 -6t18 -11t9 -28t5 -54t1 -102q1 -114 3.5 -154.5t14.5 -82.5q3 -14 15 -14q13 0 23 15t13 54t6 185q3 160 12 169q8 8 70 8h32q65 0 81.5 -2t25.5 -11
q14 -14 19.5 -71t5.5 -195v-17q0 -142 -13.5 -220t-48.5 -137q-16 -27 -53.5 -54t-73.5 -38q-81 -22 -122 -22q-30 0 -66 9q-30 7 -72.5 26.5t-42.5 26.5q0 6 -20 28q-18 20 -38 76q-14 40 -16.5 62.5t-2.5 112.5q0 128 5 186q2 38 2 55q0 46 -5 82l-8 72l22 20q16 14 26 17
t42 4q44 0 58 6z" />
    <glyph glyph-name="V" unicode="V" horiz-adv-x="734" 
d="M228 582q-2 8 -10 6q-20 -2 -54 -18.5t-34 -24.5t21 -57q4 -10 11.5 -28.5t12.5 -31.5t8 -21q10 -29 76.5 -161t89.5 -170q24 -38 31 -38q9 0 31 62q1 2 2.5 7.5t3.5 13t4 12.5q7 23 30 69q18 32 75 175q11 28 26 65.5t22.5 56t8.5 20.5q5 12 5 18q0 14 -20 28
q-19 12 -27 12q-11 0 -22.5 -18.5t-40.5 -77.5q-49 -103 -68 -160q-19 -59 -35 -70q-8 -5 -12 -5q-5 0 -20 16q-25 27 -70 178q-4 13 -22.5 69t-22.5 73zM237 697q3 1 8 1q15 0 30 -12.5t16 -27.5q0 -15 27 -96q13 -39 32 -111q16 -60 21 -60h1q6 3 19 40q8 20 20 48
q3 12 31 91q26 79 36.5 93.5t38.5 14.5q29 0 33 -6q2 -4 32 -20t63 -42l34 -28l-4 -31q-3 -26 -12 -48q-15 -34 -55 -135.5t-71 -161.5q-19 -35 -73 -177q-13 -33 -32 -61q-15 -24 -22 -29t-23 -5q-15 0 -23.5 5.5t-25.5 25.5q-34 41 -42 52q-49 69 -154 325
q-4 10 -10.5 25.5t-11 26t-6.5 15.5q-10 23 -22 66q-14 44 -27 70q-9 17 -9 29q0 31 59 57q14 6 62.5 33.5t59.5 32.5z" />
    <glyph glyph-name="W" unicode="W" horiz-adv-x="816" 
d="M224 548q-9 34 -15 34q-9 -1 -40 -19t-31 -25q0 -15 10 -57q15 -73 31 -139q0 -2 5 -20t10.5 -39.5t9.5 -40.5q39 -154 49 -171q2 -4 6 -4q15 0 37 45q13 27 39 69.5t36 52.5q11 11 34 11q25 0 35 -12q12 -14 19 -27q14 -27 47 -74t38 -47t15 30q37 118 41 127
q27 62 52 181l19 89l-14 19q-14 18 -19 18q-10 0 -20 -29q-5 -18 -34.5 -97.5t-30.5 -81.5q-13 -38 -25 -42q-2 -1 -6 -1q-13 0 -26 11t-13 23t-6 20.5t-8 16.5q-5 22 -21.5 63.5t-21.5 46.5q-4 4 -7.5 0t-8.5 -17q-11 -26 -11 -27q0 -9 -31 -68.5t-37 -61.5q-2 -1 -7 -1
q-21 0 -34 27q-8 16 -17.5 52t-9.5 49q0 11 -15 47q-16 37 -24 69zM158 653q68 45 82 45q19 0 29 -19t18 -69q4 -29 9 -52.5t12 -51.5t10 -42q5 -30 16 -30q5 0 8 6q3 5 19 51q25 78 56 78q17 0 38 -24.5t35 -59.5q15 -39 22 -39q3 0 6 8q23 94 35 124q15 39 15 49
q0 13 15 26t31 13q47 0 97 -62q32 -39 41 -53t9 -26q0 -8 -5 -26q-11 -38 -24 -110q-3 -21 -10 -25q-5 -3 -5 -16t-40 -128q-45 -136 -58 -188q-14 -59 -24.5 -78t-29.5 -19h-6q-13 1 -26.5 17t-58.5 81q-65 95 -71 95q-8 -3 -37 -47q-28 -46 -64 -93q-23 -34 -31 -40.5
t-27 -6.5q-17 0 -24 3.5t-15 16.5q-13 22 -13 38q0 18 -5 23q-5 6 -14 42q-3 10 -11 46t-11 51q-5 20 -14 57.5t-10 42.5q-14 75 -26 156q-7 63 -26 103t-19 43q0 23 102 90z" />
    <glyph glyph-name="X" unicode="X" horiz-adv-x="679" 
d="M244 559q0 6 -10 6q-11 -1 -45.5 -20.5t-34.5 -25.5q0 -11 60 -87q65 -84 76 -100.5t11 -29.5q0 -18 -48 -64q-42 -41 -79.5 -85t-37.5 -52t18 -27t25 -19h2q12 7 79 101q51 73 76 73q20 0 120 -121q33 -38 35 -40q1 0 1 -0.5t1 -0.5q9 0 28 18.5t19 27.5t-29 50
q-14 19 -28.5 39t-25 33t-33.5 37q-37 41 -37 50q0 25 94 116q40 39 51.5 52.5t11.5 22.5q0 5 -1 8q-4 20 -12 31l-9 13l-21 -19q-27 -24 -53 -55t-63.5 -67t-43.5 -36q-29 0 -45 44q-26 66 -37 89q-15 34 -15 38zM130 441q0 2 -17 29t-17 30q0 5 -13 18q-10 12 -10 22
q0 23 34 40q38 20 82.5 33t69.5 13q9 0 12 -1q12 -4 41 -67q7 -13 15.5 -31t12.5 -27l4 -8q1 -1 4 -1q7 0 17 4.5t10 8.5q0 8 67 77q47 48 60.5 59t27.5 11t21 -4.5t18 -21.5q17 -26 17 -29q0 -1 21 -45q18 -36 18 -50q0 -5 -1 -8q-4 -15 -80 -89q-70 -66 -70 -77q0 -2 1 -3
q8 -12 122 -164q22 -28 22 -51q0 -31 -49 -77l-44 -43h-71l-15 25q-20 32 -56 78t-41 46t-37.5 -39.5t-58.5 -76.5l-23 -33l-45 1h-46l-26 32q-51 63 -51 84q0 14 18.5 38t74.5 83q72 76 72 79q0 10 -69 102q-22 28 -22 33z" />
    <glyph glyph-name="Y" unicode="Y" horiz-adv-x="615" 
d="M194 515q-26 39 -29 39t-23 -12.5t-28 -19.5q-1 -1 -1 -2q0 -14 55 -74q73 -81 89.5 -100t20.5 -29q2 -4 2 -28q0 -32 -2 -53q-5 -60 -5 -113q0 -39 6.5 -46.5t40.5 -7.5h21v45q0 114 -14 198l-4 23l71 72q71 71 77 83q3 4 3 8q0 7 -17 24q-22 20 -28 20q-5 0 -48 -68
t-45 -79q-1 -7 -13 -13.5t-23 -6.5q-4 0 -10 2q-22 11 -55 71q-12 22 -41 67zM106 594q51 51 70 51q6 0 17 -7q11 -9 43 -64q57 -98 66 -104h1q13 0 67 107q17 33 29 44.5t31 11.5q8 0 53.5 -45.5t60.5 -68.5l15 -22l-15 -23q-16 -23 -84 -91l-69 -69l6 -73q11 -135 11 -183
q0 -27 -3 -33q-13 -24 -74 -24q-3 0 -9.5 0.5t-9.5 0.5q-86 6 -101 26q-6 8 -6 46q0 35 8 169l4 57l-23 28q-5 6 -11.5 15t-11.5 15.5t-8 9.5q-33 36 -70 92t-37 71q0 13 50 63z" />
    <glyph glyph-name="Z" unicode="Z" horiz-adv-x="610" 
d="M348 543q-94 8 -176 8q-36 0 -37 -2q-8 -12 -8 -59q0 -13 2 -15q4 -3 224 -19q40 -2 50.5 -8.5t10.5 -26.5q0 -14 -79 -98q-109 -114 -147 -150l-68 -67v-59h179q179 0 185 8q5 7 5 30v9l-2 32h-120q-120 0 -126 4q-7 5 -7 19q0 21 71 74q17 13 87 74q66 60 75 67
q13 11 15.5 21.5t6.5 62.5q3 33 3 57q0 16 -2 18q-7 7 -142 20zM100 615q19 8 75 8q96 0 249 -21q12 -2 42.5 -5.5t36.5 -4.5q41 -5 51 -13q6 -6 6 -37q0 -6 -2 -78q-4 -110 -8 -117q-7 -12 -34 -32q-45 -33 -82 -67t-37 -41q0 -8 37 -8q34 0 69.5 -5.5t40.5 -12.5
q8 -10 8 -95q0 -6 -0.5 -20t-0.5 -20q-1 -35 -7 -42q-11 -15 -93 -17h-79h-82q-230 0 -232 8q-1 2 -3 59q0 10 -0.5 24.5t-0.5 19.5q0 7 0.5 12.5t0.5 10t1.5 9t2 7.5t4 7.5t5 6.5t7 7.5t8 7.5t10.5 9.5t12 11.5q64 61 128.5 127.5t64.5 72.5q0 5 -70 10q-115 6 -150 22
q-13 7 -13 28q0 17 9 49q7 28 7 57v5v18q0 21 3.5 27.5t15.5 11.5z" />
    <glyph glyph-name="a" unicode="a" horiz-adv-x="428" 
d="M244 343q-11 17 -20.5 22t-31.5 9q-1 0 -3 0.5t-3 0.5q-20 0 -35 -27.5t-15 -59.5q0 -28 12 -43q14 -17 30 -17q11 0 29 10q21 13 42 52q9 15 9 23q0 7 -14 30zM150 454q12 4 31 4q39 0 64 -12q40 -18 66 -57q11 -17 27 -58t19 -61q1 -7 12 -59q7 -29 7 -50
q0 -30 -22 -40q-12 -5 -20 -5q-20 0 -33 16t-13 38q0 14 -5 14q-6 0 -32 -19q-20 -14 -30 -17t-36 -3q-58 0 -98 36q-35 32 -35 107q0 63 26 107t72 59z" />
    <glyph glyph-name="b" unicode="b" horiz-adv-x="386" 
d="M234 277q-11 11 -47 11q-23 0 -29.5 -2t-9.5 -10q-2 -6 -2 -16q0 -37 8 -51q3 -4 15 -4q17 0 40.5 7t30.5 16q6 8 6 20q0 18 -12 29zM74 559q9 9 19 9t22 -12q9 -10 11.5 -27t9.5 -108l4 -42l38 1h12q59 0 97 -34q25 -23 34.5 -41t11.5 -49q0 -4 0.5 -10.5t0.5 -9.5
q0 -19 -12 -44q-35 -71 -146 -80q-6 -1 -18 -1q-78 0 -91 60q-10 52 -16 268q0 8 -0.5 21t-0.5 18q0 36 4.5 51t19.5 30z" />
    <glyph glyph-name="c" unicode="c" horiz-adv-x="408" 
d="M160 434q23 11 57 11q38 0 68 -14.5t30 -35.5q0 -16 -12.5 -22.5t-46.5 -8.5q-40 -2 -66 -18q-42 -24 -46 -61q0 -2 -0.5 -5.5t-0.5 -4.5q0 -13 14 -27q10 -10 16.5 -12t24.5 -2q33 0 89 24q21 9 30 9q10 0 23 -13q15 -15 15 -35q0 -18 -13 -29.5t-54 -30.5
q-24 -11 -37.5 -13.5t-46.5 -2.5q-51 0 -57 6q-12 6 -19 7q-13 3 -32 23.5t-30 43.5q-12 27 -12 62q0 32 10 55t40.5 53t55.5 41z" />
    <glyph glyph-name="d" unicode="d" horiz-adv-x="372" 
d="M234 272q-3 11 -7 15.5t-13 4.5q-12 0 -31 -4q-25 -5 -35.5 -15t-10.5 -27q0 -42 50 -42q30 0 42 6.5t12 23.5q0 19 -7 38zM252 565q10 11 23 11q11 0 18 -8q13 -16 17.5 -49.5t5.5 -122.5q0 -113 4 -149q2 -18 2 -23q0 -16 -6 -34q-8 -23 -17.5 -32.5t-41.5 -25.5
t-52 -16q-2 0 -7.5 0.5t-8.5 0.5q-41 3 -75.5 23.5t-49.5 49.5q-10 19 -10 47q0 63 36 96q15 14 46 26.5t57 14.5l35 4l6 59q6 66 6 88q1 29 12 40z" />
    <glyph glyph-name="e" unicode="e" horiz-adv-x="384" 
d="M246 358q0 7 -36 7q-30 0 -35 -6q-1 -1 -1 -3q0 -12 34 -12q38 0 38 14zM156 440q20 7 56 7q31 0 45 -5q34 -11 53 -35.5t19 -54.5q0 -49 -37 -74q-18 -11 -42 -11q-23 0 -42 1q-44 2 -47 2q-13 0 -16 -2t-3 -8q0 -21 22 -29q15 -6 28 -6q20 0 51 15q33 15 50 15
q16 0 28 -12t12 -19q0 -8 -13 -27q-16 -23 -46 -35q-32 -15 -82 -15q-34 0 -45 2.5t-27 12.5q-29 19 -47.5 50t-18.5 60t10 63t25 53q30 39 67 52z" />
    <glyph glyph-name="f" unicode="f" horiz-adv-x="354" 
d="M155 532q26 8 33 8q27 0 54 -20.5t40 -51.5q20 -48 20 -93q0 -7 -1 -9q-4 -16 -17 -28t-25 -12q-14 0 -27 9.5t-15 21.5q-3 17 -7 40q-9 49 -28 49q-15 0 -24 -31q-4 -13 -9.5 -54t-5.5 -55q0 -8 36 -8q24 0 30.5 -2t15.5 -13q10 -11 10 -25q0 -16 -16 -32
q-14 -14 -45 -16q-25 -2 -31.5 -7t-6.5 -22q0 -16 1 -28q1 -9 1 -23q0 -19 -4 -24q-9 -12 -23 -12t-26.5 11.5t-17.5 30.5q-4 15 -9.5 70.5t-5.5 80.5q0 9 1 10q1 3 7 59q8 83 28.5 121.5t66.5 54.5z" />
    <glyph glyph-name="g" unicode="g" horiz-adv-x="412" 
d="M226 352q0 3 0.5 7t0.5 5q0 15 -9 15q-8 0 -22 -7q-26 -14 -26 -40q0 -6 1 -8q4 -11 23 -11t25 7t7 32zM161 456q17 6 42 6t40 -6q16 -6 29 -27q4 -6 30.5 -36.5t31.5 -48.5q1 -4 4.5 -15t6.5 -20.5t5 -16.5q10 -27 10 -65q0 -41 -12 -63q-24 -45 -69 -67
q-22 -10 -37 -12.5t-59 -2.5q-66 0 -73 7q-6 6 -17 6q-10 0 -25 13q-14 14 -14 30t15 31q14 14 40 14q23 0 44 -8q18 -6 38 -6q36 0 61 17q13 8 16.5 14t3.5 18v18l-19 -3q-38 -7 -64 -7q-29 0 -49 10q-28 13 -45.5 40t-17.5 55q0 11 3 21q25 82 81 104z" />
    <glyph glyph-name="h" unicode="h" horiz-adv-x="381" 
d="M70 534q15 12 23 12q4 0 20 -7q15 -7 20.5 -36t5.5 -95q0 -45 2 -59t11 -14q6 0 20 6q17 7 35 7q60 0 100 -63q9 -13 15.5 -53.5t6.5 -74.5q0 -27 -4 -36q-15 -35 -50 -35q-16 0 -29 10q-10 8 -12 18t-2 56q0 44 -2 56t-9 20l-12 12l-11 -16q-31 -37 -38 -80
q-10 -54 -46 -54q-8 0 -12 1q-19 4 -26 19t-13 64q-14 108 -14 265q0 28 2 42q3 22 19 35z" />
    <glyph glyph-name="i" unicode="i" horiz-adv-x="229" 
d="M79 533q10 6 34 6q47 0 55 -43q2 -14 2 -17q0 -9 -7 -22q-21 -36 -62 -36q-35 0 -45 30q-3 9 -3 20q0 19 7.5 37t18.5 25zM85 365q6 10 11.5 13t19.5 3q23 0 32 -13q11 -17 15 -32t9 -68q7 -75 7 -91q0 -31 -13 -44q-12 -13 -34 -13q-38 0 -44 36q-13 77 -13 141
q0 52 10 68z" />
    <glyph glyph-name="j" unicode="j" horiz-adv-x="357" 
d="M211 519q0 28 10 41t34 13q50 0 50 -49q0 -23 -10 -38q-7 -11 -12 -13.5t-23 -2.5q-27 0 -38 10.5t-11 38.5zM245 427q3 1 11 1q29 0 42 -13q8 -8 8 -39v-35q-1 -68 -14 -105.5t-47 -68.5q-37 -36 -71 -36q-2 0 -6 0.5t-7 0.5q-54 5 -84 32q-23 20 -23 69q0 47 22 65
q4 4 16 4q22 0 26 -9q6 -12 15 -36q12 -36 32 -36q5 0 8 1q9 2 19 11t10 15q0 4 4 14q5 8 10 44.5t5 59.5q0 21 7.5 39.5t16.5 21.5z" />
    <glyph glyph-name="k" unicode="k" horiz-adv-x="392" 
d="M81 531q6 4 16 4q9 0 15 -4q16 -10 16 -112q0 -67 5 -72h1q6 0 35 25t45 44q15 17 31 23q17 7 19 7q3 0 17 -7q11 -6 14 -12t4 -21v-10q0 -17 -12 -25q-17 -13 -31 -26l-16 -16l29 -30q70 -72 70 -107q0 -19 -11 -31t-26 -12q-12 0 -26 11q-14 12 -18 24t-24.5 38
t-34.5 36q-16 12 -25 12q-8 0 -24 -11q-11 -8 -14 -16t-4 -31q-4 -61 -31 -67q-3 -1 -9 -1q-20 0 -31 21.5t-11 58.5q0 2 0.5 7.5t0.5 8.5q0 9 3 60t5 83q7 138 22 148z" />
    <glyph glyph-name="l" unicode="l" horiz-adv-x="187" 
d="M69 549q9 9 22 9q17 0 31 -14l11 -12l2 -170q0 -37 0.5 -85.5t1 -72.5t0.5 -28q0 -34 -25 -47q-10 -5 -15 -5q-6 0 -17 4q-15 6 -20 13.5t-7.5 31.5t-2.5 83v60q2 142 5 181t14 52z" />
    <glyph glyph-name="m" unicode="m" horiz-adv-x="563" 
d="M342 423q30 16 56 16q29 0 52 -20q13 -12 30.5 -40.5t23.5 -48.5q8 -29 8 -59q0 -40 -10.5 -75t-27.5 -48q-7 -6 -20 -6q-34 0 -47 23q-8 13 -8 44q0 21 5 38q2 10 2 17q0 21 -8 41t-17 20h-2q-8 -3 -20.5 -33.5t-17.5 -60.5q-4 -27 -8 -36t-15 -19q-15 -15 -30 -15
q-9 0 -22 8q-14 9 -19 17t-9 32q-20 93 -34 95h-1q-10 0 -22.5 -30.5t-12.5 -55.5q0 -18 -7.5 -45t-12.5 -31q-6 -4 -28 -4t-36 13q-11 9 -13.5 18t-5.5 45q-2 27 -9 80q-4 23 -4 46q0 53 24 73q8 8 26 8q19 0 29 -10q9 -9 21 -4q10 5 54 5q41 0 65 -13q17 -10 23 -10
q1 0 9 4q1 1 39 21z" />
    <glyph glyph-name="n" unicode="n" horiz-adv-x="382" 
d="M76 434q13 10 18 10q8 0 23 -15l15 -16l29 16q28 16 56 16q39 0 69 -28t40 -76q5 -17 5 -77t-5 -85q-5 -27 -15 -37.5t-31 -10.5h-7q-15 2 -21 5t-13 14q-13 20 -13 52q0 20 6 36q4 12 4 21q0 5 -4 33q-8 49 -22 49q-8 0 -18 -9q-26 -21 -36 -98q-4 -37 -13.5 -50
t-33.5 -16q-5 -1 -12 -1q-11 0 -24 13q-21 22 -21 92q0 32 1 52q2 64 6 82t17 28z" />
    <glyph glyph-name="o" unicode="o" horiz-adv-x="402" 
d="M244 335q-8 10 -40 14q-6 1 -16 1q-18 0 -25 -9t-13 -36q-4 -22 -4 -25q0 -8 6 -22q12 -30 38 -30q13 0 28 9t24.5 29.5t9.5 40.5q0 19 -8 28zM152 443q15 5 41 5q32 0 53 -8q73 -27 94 -93q10 -30 10 -48q0 -17 -10 -48q-11 -35 -38 -62q-46 -46 -108 -52q-7 -1 -20 -1
q-39 0 -69 29q-15 14 -30.5 41.5t-20.5 48.5q-1 3 -1 13q0 23 7.5 61t14.5 52q9 16 34 36t43 26z" />
    <glyph glyph-name="p" unicode="p" horiz-adv-x="333" 
d="M185 388q-11 10 -25 10t-22.5 -12t-8.5 -31q0 -16 2 -18.5t15 -2.5q14 0 35 7q17 7 17 22t-13 25zM122 473q8 2 37 2q30 0 38 -2q15 -3 37.5 -22.5t31.5 -37.5q13 -25 13 -56q0 -49 -32 -72q-15 -11 -50 -22.5t-51 -11.5q-14 0 -17.5 -8.5t-7.5 -54.5q-4 -43 -14 -53
q-11 -11 -19 -11q-9 0 -18 13.5t-13 34.5q-6 27 -6 125q0 97 6 118q13 46 65 58z" />
    <glyph glyph-name="q" unicode="q" horiz-adv-x="424" 
d="M172 369q0 10 -7 10q-6 0 -17 -8t-11 -25q0 -26 17 -26q4 0 11 18.5t7 30.5zM121 445q17 7 29 7q36 0 83 -48l19 -21v-86q0 -133 18 -133h1q8 2 21 68q5 23 38 31q2 0 4 0.5t3 0.5q10 0 21 -12q10 -9 12 -16.5t2 -32.5q0 -82 -64 -123q-23 -15 -38 -15q-2 0 -5.5 0.5
t-6.5 0.5q-45 3 -64 39q-8 16 -15 48.5t-7 51.5q0 16 -5 21t-19 5q-6 0 -40 17q-30 15 -42 33t-12 51q0 31 5 48q4 15 24 36.5t38 28.5z" />
    <glyph glyph-name="r" unicode="r" horiz-adv-x="350" 
d="M75 438q14 8 21 8q9 0 21 -9q9 -8 17 -8q6 0 17 4q18 6 50 6q37 0 50 -7q15 -7 30 -21q16 -15 16 -35q0 -21 -12.5 -34t-32.5 -13q-10 0 -20 3q-18 7 -29 7t-16.5 -8.5t-14.5 -34.5q-8 -24 -8 -54q0 -59 -21 -78q-10 -8 -29 -8q-22 0 -32 9q-6 5 -11.5 20.5t-4.5 22.5
q0 5 -7 42q-7 42 -7 104q0 53 5 56q5 2 5 11q0 11 13 17z" />
    <glyph glyph-name="s" unicode="s" horiz-adv-x="365" 
d="M154 458q21 12 53 12q15 0 30 -5q17 -7 28 -21.5t11 -30.5q0 -19 -8 -26.5t-28 -7.5q-2 0 -6.5 0.5t-7.5 0.5q-7 1 -18 1q-15 0 -24 -8q-9 -7 -9 -13q0 -8 22 -12q25 -5 51.5 -19.5t42.5 -32.5q14 -16 17.5 -24t3.5 -27q0 -28 -7 -42q-9 -17 -31 -35t-40 -23
q-15 -4 -37 -4q-38 0 -77 11t-54 28q-12 14 -12 30q0 18 14 32q10 10 23 10q18 0 74 -11q37 -8 43 -8q1 0 1 7q0 5 -28.5 17t-38.5 12q-12 0 -28 13t-23 30q-11 24 -11 54q0 22 6 32q6 11 28 30.5t40 29.5z" />
    <glyph glyph-name="t" unicode="t" horiz-adv-x="352" 
d="M153 535q10 10 20 10q27 0 38 -93q3 -37 7 -44q2 -5 20 -5q14 0 30.5 -7.5t23.5 -16.5q7 -11 7 -24q0 -16 -8 -22q-17 -15 -63 -19l-15 -2q-1 -28 -1 -84t-1 -84l-14 -10q-11 -10 -28 -10q-23 0 -30 18q-4 11 -6 89l-3 81l-34 8q-28 7 -35 13.5t-7 24.5q0 11 3.5 15
t17.5 10q23 10 39 12q14 2 16.5 5.5t2.5 18.5q0 49 7 95q2 12 13 21z" />
    <glyph glyph-name="u" unicode="u" horiz-adv-x="398" 
d="M74 452q10 7 16 7t13 -6q21 -16 21 -64q0 -31 12 -87q3 -12 17 -27.5t22 -15.5t23.5 15.5t22.5 29.5q21 42 21 77q0 21 7 43t15 28q9 6 23 6q19 0 36 -12t18 -28q0 -3 0.5 -16t1 -37.5t0.5 -41.5q2 -104 3 -117q0 -4 0.5 -10.5t0.5 -8.5q0 -12 -3 -17t-14 -15
q-14 -13 -24 -13q-4 0 -7 1q-16 4 -26 12.5t-10 17.5q0 21 -10 21q-7 0 -22 -9q-35 -19 -65 -19q-38 0 -63 25q-46 49 -50 118q-1 9 -1 27q0 41 6.5 75t15.5 41z" />
    <glyph glyph-name="v" unicode="v" horiz-adv-x="421" 
d="M288 428q10 12 28 12q19 0 37 -16q15 -15 15 -25q0 -16 -57 -133q-28 -56 -39.5 -74.5t-29.5 -35.5q-28 -25 -38 -25q-5 0 -17 5q-13 6 -37.5 45t-78.5 142q-17 32 -17 57q0 10 11 21.5t22 11.5q9 0 29.5 -13t33.5 -28q14 -16 32 -51q21 -39 26 -41q6 -2 17 24
q48 107 63 124z" />
    <glyph glyph-name="w" unicode="w" horiz-adv-x="508" 
d="M69 426q17 13 28 13q10 0 24 -15t18 -30q13 -59 22 -66q1 -1 3.5 2t5.5 8.5t6 12.5q17 38 23 43.5t28 7.5h8q20 0 28 -4q11 -7 30 -44q21 -42 26 -42t18 25q28 67 40.5 84.5t30.5 17.5q16 0 31 -13q10 -8 13 -15t3 -24q0 -25 -17 -52q-25 -41 -46 -102q-15 -44 -27.5 -58
t-35.5 -14q-20 0 -34.5 13t-34.5 48q-18 32 -24 32q-5 0 -18 -31t-26 -50q-9 -13 -15 -16t-22 -5h-10q-21 0 -33.5 27t-47.5 144q-11 37 -11 63q0 17 3 24t13 16z" />
    <glyph glyph-name="x" unicode="x" horiz-adv-x="396" 
d="M265 438q16 17 37 17q42 0 42 -42q0 -14 -6.5 -23.5t-37.5 -39.5q-44 -44 -44 -48q0 -5 36 -41t36 -51q0 -17 -12 -28t-31 -11q-14 0 -23 5.5t-33 28.5q-35 33 -41 33q-8 0 -27 -19t-42 -33.5t-32 -14.5q-11 0 -21 8.5t-13 19.5q-1 3 -1 8q0 22 44 67l31 31l-19 16
q-46 41 -48 66q0 13 12 25t25 12q28 0 64 -36q19 -21 29 -21q11 0 34 27q5 5 14 15t16 17.5t11 11.5z" />
    <glyph glyph-name="y" unicode="y" horiz-adv-x="439" 
d="M97 387q0 17 12 29t29 12q14 0 27 -9q16 -14 37 -51q24 -42 31 -42q6 0 37 42q32 43 43 51q13 10 29 10q18 0 31 -12t13 -30q0 -27 -39 -69q-19 -20 -39 -52q-64 -93 -132 -166t-91 -73q-11 0 -20 9.5t-9 19.5q0 15 19.5 50t43.5 65l32 40l18 23l-9 19q-1 2 -7.5 16.5
t-10.5 20.5q-30 53 -37.5 69t-7.5 28z" />
    <glyph glyph-name="z" unicode="z" horiz-adv-x="473" 
d="M314 441q6 1 16 1q48 0 63 -30q4 -7 4 -13q0 -8 -14 -30q-21 -34 -103 -100l-23 -19l68 3q8 0 19.5 0.5t15.5 0.5q34 0 47 -8q14 -9 14 -25q0 -29 -36 -51q-28 -17 -217 -23q-58 -2 -63 -2q-31 0 -41 8q-10 9 -10 26q0 21 12 34q30 34 109 92q30 23 34 29l1 1q0 3 -24 5
t-54.5 7.5t-41.5 16.5q-10 12 -10 25q0 20 17 32q14 10 108 14q88 3 109 6z" />
    <glyph glyph-name="nbsp" unicode="&#xa0;" 
 />
  </font>
</defs>
</svg>
